if (_typeface_js && _typeface_js.loadFace) _typeface_js.loadFace({"glyphs":{"\u0000":{"x_min":0,"x_max":0,"ha":104},"¦":{"x_min":37,"x_max":170,"ha":207,"o":"m 37 1073 l 37 512 l 170 512 l 170 1073 l 37 1073 m 37 328 l 37 -233 l 170 -233 l 170 328 l 37 328 "},"Ž":{"x_min":23.359375,"x_max":798.84375,"ha":823,"o":"m 780 876 b 798 934 793 894 798 913 l 798 1003 l 55 1003 l 56 730 l 129 730 b 162 756 147 730 158 738 b 174 854 163 759 166 793 l 557 854 l 40 124 b 27 100 35 116 31 108 b 23 73 24 91 23 82 l 23 0 l 786 0 l 786 148 l 786 270 l 712 270 b 680 244 694 270 684 261 b 668 148 679 240 675 209 l 265 148 l 780 876 m 176 1227 l 345 1075 l 516 1075 l 684 1227 l 554 1227 b 531 1224 547 1227 539 1225 b 511 1215 523 1222 516 1219 l 441 1169 b 435 1165 438 1168 436 1167 b 430 1162 434 1164 431 1163 b 425 1165 428 1163 426 1164 b 420 1169 423 1167 421 1168 l 349 1215 b 329 1224 344 1219 338 1222 b 306 1227 321 1225 313 1226 l 176 1227 "},"Á":{"x_min":23.609375,"x_max":1101.390625,"ha":1127,"o":"m 1074 106 b 997 138 1067 109 1041 119 l 657 1003 l 466 1003 l 127 138 b 50 106 83 120 58 109 b 23 70 32 98 23 86 l 23 0 l 72 0 l 181 0 l 204 0 l 217 0 l 362 0 l 362 70 b 334 106 362 86 353 98 b 306 118 331 107 322 111 l 310 126 l 362 268 l 762 268 l 812 132 l 818 118 b 790 106 802 111 793 107 b 762 70 771 98 762 86 l 762 0 l 907 0 l 920 0 l 943 0 l 1052 0 l 1101 0 l 1101 70 b 1074 106 1101 86 1092 98 m 524 711 b 543 765 530 727 536 744 b 561 830 549 785 555 806 b 581 765 568 806 575 785 b 600 712 588 745 594 727 l 714 400 l 410 400 l 524 711 m 828 1243 l 637 1243 b 613 1242 628 1243 620 1243 b 596 1238 607 1241 602 1240 b 581 1229 591 1236 586 1233 b 565 1215 577 1226 571 1221 l 429 1075 l 564 1075 b 581 1076 571 1075 577 1076 b 595 1078 586 1076 591 1077 b 609 1084 600 1080 604 1082 b 622 1093 613 1087 618 1089 l 828 1243 "},"Î":{"x_min":15.0625,"x_max":522,"ha":538,"o":"m 429 878 b 464 922 452 884 464 897 l 464 1003 l 358 1003 l 172 1003 l 66 1003 l 66 922 b 101 878 66 897 78 884 b 110 877 103 878 106 877 b 130 873 113 876 120 875 b 172 865 140 871 154 869 l 172 137 b 130 129 154 134 140 131 b 110 126 120 128 113 127 b 101 125 106 125 103 125 b 66 81 78 119 66 105 l 66 0 l 172 0 l 358 0 l 464 0 l 464 81 b 429 125 464 105 452 119 b 420 126 427 125 424 125 b 400 129 417 127 410 128 b 358 137 390 131 376 134 l 358 865 b 400 873 376 869 390 871 b 420 877 410 875 417 876 b 429 878 424 877 427 878 m 522 1076 l 353 1228 l 183 1228 l 15 1076 l 144 1076 b 167 1078 151 1075 159 1076 b 187 1087 176 1080 182 1082 l 258 1133 b 264 1137 260 1134 262 1136 b 268 1141 265 1139 267 1139 b 273 1137 269 1139 272 1138 b 278 1133 274 1135 276 1134 l 349 1087 b 369 1078 353 1082 360 1080 b 392 1076 377 1076 385 1076 l 522 1076 "},"e":{"x_min":20.46875,"x_max":671,"ha":694,"o":"m 362 724 b 219 696 309 724 261 714 b 111 620 176 677 140 652 b 44 508 82 588 59 551 b 20 371 28 465 20 420 b 47 206 20 309 29 253 b 121 87 65 159 89 119 b 232 14 153 55 189 30 b 370 -10 275 -2 321 -10 b 448 -4 395 -10 421 -8 b 526 14 474 0 500 5 b 600 50 552 23 576 35 b 664 106 623 65 645 84 l 614 169 b 601 181 610 174 606 178 b 583 185 596 183 590 185 b 550 175 572 185 561 181 b 510 154 539 168 525 161 b 457 132 495 145 478 138 b 386 123 437 125 414 123 b 250 174 329 123 284 139 b 191 335 215 208 196 261 l 631 335 b 650 337 639 335 645 335 b 662 348 655 339 659 343 b 668 368 665 352 667 359 b 671 400 670 376 671 387 b 648 537 671 452 663 497 b 584 639 632 577 611 611 b 486 702 556 666 523 687 b 362 724 448 716 407 723 m 366 601 b 432 587 391 601 413 596 b 480 552 451 579 467 567 b 507 500 492 537 501 520 b 517 438 513 481 517 460 l 194 438 b 248 558 202 489 220 529 b 366 601 276 586 316 601 "},"»":{"x_min":31.25,"x_max":520.140625,"ha":548,"o":"m 113 87 l 291 362 l 291 384 l 113 659 l 57 633 b 31 595 39 625 31 612 b 40 565 31 586 34 575 l 136 402 b 158 373 142 390 150 380 b 135 344 150 366 143 356 l 39 180 b 31 151 34 170 31 160 b 37 129 31 143 33 136 b 57 113 41 122 47 118 l 113 87 m 342 87 l 520 362 l 520 384 l 342 659 l 286 633 b 259 595 268 625 259 612 b 268 565 259 586 262 575 l 364 402 b 386 373 370 390 377 380 b 363 344 379 366 371 356 l 268 180 b 259 151 262 170 259 160 b 265 129 259 143 261 136 b 285 113 269 122 276 118 l 342 87 "},"∆":{"x_min":20.828125,"x_max":1022.21875,"ha":1043,"o":"m 437 1004 l 20 0 l 1022 0 l 606 1004 l 437 1004 m 269 148 l 489 711 b 505 757 494 724 499 740 b 522 813 511 774 516 792 b 538 757 527 793 533 774 b 554 712 543 740 549 725 l 774 147 l 269 148 "},"ò":{"x_min":21,"x_max":726,"ha":747,"o":"m 374 723 b 228 697 321 723 272 713 b 117 624 185 680 148 655 b 46 509 86 592 62 554 b 21 357 29 463 21 413 b 46 205 21 300 29 250 b 117 89 62 159 86 121 b 228 15 148 57 185 32 b 374 -10 272 -1 321 -10 b 519 15 427 -10 475 -1 b 630 89 562 32 599 57 b 701 205 660 121 684 159 b 726 357 717 250 726 300 b 701 509 726 413 717 463 b 630 624 684 554 660 592 b 519 697 599 655 562 680 b 374 723 475 713 427 722 m 374 122 b 241 181 314 122 269 141 b 198 356 211 221 198 280 b 241 531 198 432 211 490 b 374 592 269 571 314 592 b 505 531 433 592 477 571 b 549 356 534 491 549 432 b 505 181 549 279 534 221 b 374 122 477 141 433 122 m 313 1015 l 152 1015 l 324 833 b 348 814 332 823 340 817 b 380 809 357 810 367 809 l 478 809 l 379 978 b 355 1005 372 989 364 999 b 313 1015 346 1011 332 1015 "},"^":{"x_min":25.6875,"x_max":654.859375,"ha":681,"o":"m 654 539 l 395 1004 l 284 1004 l 25 539 l 157 539 b 186 547 169 539 179 542 b 202 567 193 552 198 559 l 311 768 b 329 804 317 781 323 792 b 342 840 334 816 338 828 b 356 805 345 828 350 816 b 375 767 361 793 368 781 l 486 567 b 502 547 490 559 495 552 b 529 538 509 541 518 538 l 654 539 "},"«":{"x_min":27.78125,"x_max":516.671875,"ha":546,"o":"m 27 362 l 205 87 l 261 113 b 288 150 279 122 288 134 b 279 180 288 159 284 170 l 183 344 b 161 373 175 356 168 366 b 183 402 169 380 176 390 l 279 565 b 288 595 284 575 287 586 b 281 617 288 603 286 610 b 261 633 277 623 270 628 l 205 659 l 27 384 l 27 362 m 256 362 l 434 87 l 490 113 b 516 150 507 122 515 134 b 507 180 516 159 513 170 l 411 344 b 389 373 404 356 396 366 b 411 402 397 380 404 390 l 507 565 b 516 595 513 575 516 586 b 510 617 516 603 514 610 b 490 633 506 623 499 629 l 434 659 l 256 384 l 256 362 "},"í":{"x_min":26.109375,"x_max":462.71875,"ha":478,"o":"m 373 125 b 364 126 371 125 368 125 b 343 129 360 127 354 128 b 303 137 334 131 320 134 l 303 713 l 131 713 l 26 713 l 26 630 b 60 587 25 606 37 592 b 69 585 62 587 65 586 b 90 582 73 585 79 583 b 131 574 99 580 113 578 l 131 137 b 90 129 113 134 99 131 b 69 126 79 128 73 127 b 60 125 65 125 62 125 b 26 81 37 119 25 105 l 26 0 l 131 0 l 302 0 l 407 0 l 407 81 b 373 125 407 105 396 119 m 462 1015 l 296 1015 b 254 1005 277 1015 263 1011 b 229 978 245 999 236 990 l 131 809 l 234 809 b 265 814 247 809 257 811 b 291 834 273 818 282 824 l 462 1015 "},"ˆ":{"x_min":30.5625,"x_max":509.71875,"ha":540,"o":"m 509 811 l 350 1004 l 189 1004 l 30 811 l 149 811 b 168 814 156 810 162 811 b 184 822 175 817 179 820 l 258 888 b 265 895 260 891 262 893 b 272 904 268 898 270 901 b 279 895 275 901 277 898 b 287 888 282 893 284 891 l 360 822 b 395 810 368 814 380 810 l 509 811 "},"µ":{"x_min":40,"x_max":660.609375,"ha":699,"o":"m 212 713 l 40 713 l 40 -161 b 59 -214 40 -185 46 -202 b 115 -233 72 -227 91 -233 l 200 -233 l 200 -66 b 197 -5 200 -47 198 -27 b 186 57 195 16 192 37 b 246 22 204 42 223 30 b 321 9 268 13 293 9 b 371 13 339 9 355 10 b 415 27 386 16 401 21 b 457 51 430 33 443 42 b 500 88 471 61 486 74 l 512 30 b 555 0 518 9 533 0 l 660 0 l 660 711 l 489 711 l 489 196 b 415 142 466 173 441 155 b 332 122 389 129 362 122 b 241 158 291 122 261 134 b 211 258 221 181 211 215 l 212 713 "},"’":{"x_min":25.71875,"x_max":228,"ha":256,"o":"m 180 1064 l 77 1023 b 51 992 59 1017 51 1007 b 57 973 51 985 53 979 b 83 916 69 953 77 934 b 91 866 88 898 91 882 b 85 824 91 851 88 837 b 72 789 81 811 77 800 b 53 759 66 777 60 768 b 34 734 46 750 40 741 b 25 712 28 729 25 721 b 28 701 25 709 26 705 b 38 691 29 697 33 694 l 91 658 b 192 775 135 694 168 733 b 228 907 216 817 228 861 b 216 985 228 934 223 959 b 180 1064 208 1011 196 1037 "},"-":{"x_min":40,"x_max":400,"ha":440,"o":"m 40 491 l 40 348 l 400 348 l 400 491 l 40 491 "},"Q":{"x_min":19,"x_max":1089.390625,"ha":1106,"o":"m 1037 502 b 1000 706 1038 575 1025 643 b 896 868 976 768 941 822 b 736 976 852 914 798 949 b 528 1015 673 1001 604 1015 b 320 976 452 1015 383 1001 b 159 869 258 950 203 915 b 55 706 114 823 80 768 b 19 502 30 643 19 575 b 55 297 19 428 30 359 b 159 134 80 234 114 180 b 320 27 203 89 258 52 b 528 -11 383 1 452 -11 b 606 -6 555 -11 581 -9 b 678 8 631 -3 655 1 l 826 -154 b 875 -187 841 -170 857 -181 b 935 -196 893 -193 912 -196 l 1089 -196 l 834 81 b 919 159 866 103 894 130 b 983 258 944 189 966 222 b 1023 373 1001 293 1014 332 b 1037 502 1033 414 1037 457 m 845 502 b 823 353 845 446 838 397 b 760 242 809 309 788 273 b 661 173 733 212 700 189 b 528 149 622 156 577 149 b 395 173 479 149 435 156 b 295 242 356 189 323 212 b 231 353 267 273 246 309 b 209 502 217 397 209 446 b 231 649 209 556 217 606 b 295 761 246 693 267 731 b 395 831 323 792 356 815 b 529 856 435 847 479 856 b 661 831 577 856 622 847 b 760 761 700 815 733 792 b 823 649 788 731 809 693 b 845 502 838 606 845 556 "},"M":{"x_min":28.109375,"x_max":1326.859375,"ha":1355,"o":"m 1292 879 b 1326 922 1315 884 1326 898 l 1326 1003 l 1222 1003 l 1080 1003 b 1059 1003 1072 1005 1065 1004 b 1042 1000 1052 1003 1048 1002 b 1029 990 1037 998 1033 995 b 1018 974 1025 986 1021 981 l 721 417 b 699 371 713 403 705 387 b 678 321 692 355 685 338 b 658 370 672 338 665 354 b 637 416 652 386 644 401 l 337 974 b 325 990 334 981 329 986 b 312 1000 321 995 317 998 b 295 1003 307 1002 302 1003 b 274 1003 289 1003 282 1003 l 133 1003 l 28 1003 l 28 922 b 62 879 27 898 39 884 b 71 877 64 879 67 878 b 92 874 75 876 81 875 b 133 866 101 872 115 870 l 133 137 b 92 129 115 134 101 131 b 71 126 81 128 75 127 b 62 125 67 125 64 125 b 28 81 39 119 27 105 l 28 0 l 133 0 l 297 0 l 422 0 l 422 81 b 388 125 422 105 411 119 b 298 137 385 125 355 129 l 298 648 b 296 689 298 660 298 674 b 293 733 295 703 295 718 l 600 161 b 627 131 607 149 616 138 b 666 120 638 125 651 120 l 692 120 b 730 131 706 120 719 125 b 757 161 742 138 751 149 l 1061 731 b 1057 687 1059 716 1058 702 b 1057 647 1057 673 1057 660 l 1057 137 b 966 125 999 129 969 125 b 932 81 943 119 932 105 l 932 0 l 1057 0 l 1221 0 l 1326 0 l 1326 81 b 1292 125 1326 105 1315 119 b 1283 126 1290 125 1287 125 b 1262 129 1279 127 1272 128 b 1222 137 1253 131 1239 134 l 1222 866 b 1262 874 1239 870 1253 872 b 1283 877 1272 875 1279 876 b 1292 879 1287 878 1290 879 "},"œ":{"x_min":21,"x_max":1144.296875,"ha":1167,"o":"m 861 723 b 709 685 802 723 752 710 b 606 585 666 660 632 627 b 501 686 579 629 544 663 b 350 723 458 710 407 723 b 216 697 302 723 257 713 b 112 624 176 680 141 655 b 45 509 83 592 61 554 b 21 357 28 463 21 413 b 44 205 21 300 28 250 b 111 89 60 159 82 121 b 214 15 140 57 174 32 b 344 -10 253 -1 297 -10 b 500 26 403 -10 455 1 b 609 129 544 49 581 84 b 716 23 636 81 672 45 b 857 -10 760 1 807 -10 b 931 -4 881 -10 906 -8 b 1006 14 956 0 981 5 b 1078 50 1031 23 1055 35 b 1140 106 1100 65 1121 84 l 1090 169 b 1059 185 1082 179 1072 185 b 1026 175 1049 185 1038 181 b 989 153 1016 168 1003 161 b 940 132 975 145 958 138 b 873 122 922 125 899 122 b 749 170 822 122 781 138 b 691 321 717 202 697 253 l 1106 321 b 1125 323 1114 321 1120 321 b 1137 334 1130 325 1134 329 b 1142 354 1139 338 1141 345 b 1144 386 1144 362 1144 373 b 1122 526 1144 437 1137 485 b 1063 632 1108 568 1088 603 b 973 699 1038 661 1008 684 b 861 723 938 714 901 723 m 359 122 b 236 181 304 122 263 141 b 197 356 210 221 197 279 b 236 530 197 432 210 490 b 359 592 263 571 304 592 b 481 531 414 592 454 571 b 520 356 507 491 520 432 b 481 181 520 279 507 221 b 359 122 454 141 414 122 m 853 600 b 915 585 877 600 897 595 b 958 546 933 576 947 562 b 983 489 970 529 978 510 b 992 424 989 468 992 446 l 691 424 b 740 553 697 479 714 523 b 853 600 767 584 804 600 "},"{":{"x_min":21.53125,"x_max":367.453125,"ha":389,"o":"m 105 285 b 100 219 105 262 102 241 b 89 154 97 197 93 176 b 79 88 85 132 81 110 b 75 21 76 66 75 44 b 90 -74 75 -13 79 -45 b 136 -148 100 -103 115 -128 b 216 -196 157 -169 184 -185 b 330 -214 248 -207 286 -214 l 367 -214 l 367 -138 b 363 -122 367 -132 366 -126 b 353 -111 360 -117 357 -114 b 341 -105 349 -108 345 -106 b 330 -103 337 -103 333 -103 l 324 -103 b 249 -72 291 -103 266 -92 b 223 10 232 -51 223 -23 b 227 84 223 36 225 60 b 236 152 230 108 234 130 b 245 217 239 174 242 196 b 249 282 248 238 249 260 b 242 331 249 299 247 315 b 220 374 237 346 230 361 b 186 407 211 387 200 398 b 141 430 173 417 158 424 b 186 451 158 434 173 441 b 220 484 200 461 211 472 b 242 527 230 497 237 511 b 249 577 247 543 249 559 b 245 642 249 599 248 620 b 236 706 243 663 239 684 b 227 774 234 729 230 751 b 223 848 225 798 223 822 b 249 932 223 883 232 911 b 323 963 266 952 291 963 l 329 963 b 341 965 333 963 336 963 b 353 971 345 966 349 968 b 363 981 357 974 360 977 b 366 997 366 985 366 991 l 366 1074 l 329 1074 b 216 1056 286 1074 248 1067 b 136 1008 184 1045 157 1029 b 90 933 115 987 100 962 b 75 838 79 904 75 872 b 79 770 75 815 76 792 b 89 705 81 748 85 727 b 100 640 93 683 97 661 b 105 575 102 618 104 597 b 84 506 105 547 98 524 b 21 480 71 488 50 480 l 21 381 b 84 353 50 381 71 371 b 105 285 98 335 105 312 "},"¼":{"x_min":21.640625,"x_max":951.28125,"ha":974,"o":"m 284 49 l 868 1003 l 795 1003 b 742 988 774 1003 756 998 b 705 947 728 978 715 964 l 125 0 l 199 0 b 246 10 216 0 232 3 b 284 49 259 17 272 29 m 886 196 l 886 514 l 767 514 l 534 190 l 544 137 b 555 118 546 130 549 123 b 582 112 562 114 571 112 l 783 112 l 783 0 l 886 0 l 886 112 l 927 112 b 945 118 934 112 940 114 b 951 134 949 123 951 128 l 951 196 l 886 196 m 67 569 l 67 490 l 366 490 l 366 569 l 287 569 l 287 1004 l 183 1004 l 21 869 l 59 817 b 71 807 61 813 66 810 b 90 803 77 805 83 803 b 114 812 98 803 106 806 l 167 854 l 164 819 l 164 569 l 67 569 m 783 312 l 783 196 l 647 196 l 787 388 b 783 347 785 374 784 360 b 783 312 783 334 783 322 "},"#":{"x_min":23.609375,"x_max":784.71875,"ha":806,"o":"m 573 283 l 724 283 l 732 337 b 734 359 734 345 734 352 b 722 395 734 376 730 388 b 689 407 715 402 704 406 l 590 407 l 626 599 l 695 599 b 749 611 720 598 738 603 b 771 651 760 619 768 633 l 784 723 l 643 723 l 686 944 b 687 954 686 946 687 950 b 672 990 687 968 681 980 b 632 1004 661 999 648 1004 l 556 1004 l 502 723 l 361 723 l 413 1004 l 336 1004 b 288 988 318 1004 302 998 b 263 945 275 978 266 963 l 220 722 l 143 722 b 88 709 118 723 100 718 b 67 670 77 701 70 688 l 54 598 l 202 598 l 166 406 l 34 406 l 25 351 b 23 328 24 342 23 335 b 35 293 23 312 27 300 b 68 282 43 286 54 282 l 148 282 l 95 -1 l 171 -1 b 220 13 189 -1 206 3 b 249 61 236 23 245 39 l 289 282 l 431 282 l 390 69 b 390 63 390 67 390 65 b 389 56 390 61 389 59 b 404 15 389 40 395 26 b 440 -1 415 4 427 -1 l 519 -1 l 573 283 m 306 406 l 343 598 l 484 598 l 449 406 l 306 406 "},"Ê":{"x_min":28.109375,"x_max":766,"ha":797,"o":"m 132 1005 l 28 1005 l 28 922 b 62 878 27 897 39 884 b 71 877 64 878 67 877 b 92 873 75 876 81 874 b 133 865 101 871 115 869 l 133 137 b 92 129 115 133 101 131 b 71 126 81 128 75 127 b 62 125 67 125 64 125 b 28 81 39 119 27 105 l 28 0 l 132 0 l 766 0 l 766 97 l 766 149 l 766 264 l 759 264 l 743 264 l 686 264 b 653 237 668 264 657 255 b 643 149 652 227 648 197 l 321 149 l 321 433 l 660 433 l 660 577 l 321 577 l 321 854 l 643 854 b 653 765 648 806 651 776 b 686 740 657 748 668 740 l 743 740 l 759 740 l 766 740 l 766 854 l 766 906 l 766 1003 l 132 1005 m 713 1075 l 545 1227 l 374 1227 l 206 1075 l 336 1075 b 359 1078 343 1075 350 1076 b 379 1086 367 1080 374 1083 l 449 1132 b 455 1137 451 1134 453 1135 b 459 1140 457 1138 459 1139 b 464 1136 461 1139 463 1137 b 470 1132 466 1135 468 1134 l 540 1086 b 560 1078 545 1083 552 1080 b 583 1075 568 1076 576 1075 l 713 1075 "},")":{"x_min":20,"x_max":312,"ha":336,"o":"m 163 435 b 128 154 163 339 151 245 b 28 -106 104 61 71 -25 b 21 -122 24 -111 22 -117 b 20 -136 20 -127 20 -132 b 26 -159 20 -145 22 -153 b 43 -172 31 -164 36 -169 l 120 -219 b 208 -60 154 -166 183 -113 b 267 100 231 -7 252 46 b 300 265 282 154 293 209 b 312 435 307 320 312 377 b 300 605 312 493 307 550 b 267 770 293 661 282 716 b 208 931 252 825 231 878 b 120 1090 183 984 154 1037 l 43 1044 b 26 1029 36 1040 31 1035 b 20 1008 22 1024 20 1016 b 29 977 20 999 22 988 b 127 716 71 895 104 809 b 163 435 151 624 163 530 "},"Å":{"x_min":23.609375,"x_max":1101.390625,"ha":1127,"o":"m 1074 106 b 997 138 1067 109 1041 119 l 657 1003 l 466 1003 l 127 138 b 50 106 83 120 58 109 b 23 70 32 98 23 86 l 23 0 l 72 0 l 181 0 l 204 0 l 217 0 l 362 0 l 362 70 b 334 106 362 86 353 98 b 306 118 331 107 322 111 l 310 126 l 362 268 l 762 268 l 812 132 l 818 118 b 790 106 802 111 793 107 b 762 70 771 98 762 86 l 762 0 l 907 0 l 920 0 l 943 0 l 1052 0 l 1101 0 l 1101 70 b 1074 106 1101 86 1092 98 m 524 711 b 543 765 530 727 536 744 b 561 830 549 785 555 806 b 581 765 568 806 575 785 b 600 712 588 745 594 727 l 714 400 l 410 400 l 524 711 m 418 1167 b 430 1115 418 1148 422 1131 b 461 1073 438 1099 449 1085 b 506 1047 475 1062 490 1053 b 561 1037 524 1040 542 1037 b 617 1047 581 1037 600 1040 b 663 1073 635 1053 650 1062 b 695 1115 677 1085 688 1099 b 707 1167 704 1131 707 1148 b 695 1221 707 1187 704 1205 b 663 1263 688 1238 677 1252 b 617 1290 650 1275 635 1284 b 561 1300 600 1297 581 1300 b 506 1290 542 1301 524 1297 b 461 1263 490 1284 475 1275 b 430 1221 449 1252 438 1238 b 418 1167 422 1205 418 1187 m 500 1167 b 517 1213 500 1187 506 1202 b 563 1230 528 1224 543 1230 b 608 1213 582 1230 597 1224 b 625 1167 619 1202 625 1187 b 608 1123 625 1149 619 1135 b 563 1106 597 1112 582 1106 b 517 1123 543 1106 528 1112 b 500 1167 506 1135 500 1149 "},"¸":{"x_min":35.1875,"x_max":306,"ha":343,"o":"m 70 -157 b 51 -173 60 -157 53 -162 l 35 -226 b 83 -237 51 -231 67 -235 b 137 -242 100 -240 117 -242 b 206 -235 162 -242 185 -239 b 259 -214 226 -230 244 -223 b 293 -182 274 -205 285 -194 b 306 -140 301 -169 306 -155 b 281 -79 306 -116 297 -96 b 194 -37 264 -62 235 -48 l 208 10 l 101 10 l 69 -92 b 147 -108 104 -97 130 -102 b 172 -136 163 -114 172 -123 b 160 -158 172 -145 167 -153 b 126 -167 152 -164 141 -167 b 106 -165 118 -167 112 -167 b 92 -162 101 -164 96 -163 b 80 -158 87 -160 83 -159 b 70 -157 76 -157 73 -157 "},"a":{"x_min":17.9375,"x_max":697.875,"ha":724,"o":"m 663 125 b 647 127 661 125 656 125 b 611 134 639 129 627 131 l 611 450 b 593 561 611 491 605 528 b 541 649 581 595 564 624 b 459 706 519 673 491 692 b 347 727 426 720 388 726 b 50 614 231 727 132 689 l 82 559 b 102 537 87 550 93 543 b 132 528 110 531 120 528 b 170 538 145 528 158 531 b 208 559 181 544 194 551 b 256 582 222 568 238 575 b 325 592 274 588 298 592 b 413 557 364 592 393 580 b 443 449 434 533 443 497 l 443 408 b 240 386 363 407 295 400 b 108 334 186 372 142 355 b 38 262 76 312 52 288 b 18 182 24 236 18 209 b 32 98 17 150 22 122 b 75 37 43 73 57 53 b 140 0 93 20 115 9 b 224 -11 166 -7 194 -11 b 293 -4 249 -11 272 -9 b 352 13 314 0 334 5 b 406 44 371 22 389 31 b 459 87 424 56 441 70 l 474 36 b 495 6 479 21 486 11 b 533 0 505 2 518 0 l 592 0 l 611 0 l 697 0 l 697 81 b 663 125 697 105 686 119 m 443 183 b 406 149 431 169 419 158 b 368 125 394 140 381 132 b 326 111 355 119 341 114 b 277 107 311 108 295 107 b 208 126 249 107 226 113 b 181 191 190 139 181 161 b 194 234 181 207 186 221 b 237 268 202 247 217 259 b 318 293 258 278 285 286 b 443 303 352 299 393 303 l 443 183 "},"Ę":{"x_min":27.4375,"x_max":772.9375,"ha":797,"o":"m 746 -141 b 730 -130 744 -134 738 -130 b 722 -131 728 -130 725 -130 b 713 -135 720 -133 717 -133 b 700 -138 710 -136 706 -137 b 679 -140 695 -140 688 -140 b 642 -128 663 -140 651 -136 b 629 -94 633 -119 629 -108 b 635 -65 629 -84 631 -75 b 651 -39 639 -56 645 -48 b 675 -17 658 -31 666 -24 b 702 0 684 -11 693 -5 l 766 0 l 766 97 l 766 149 l 766 264 l 759 264 l 743 264 l 686 264 b 653 237 667 264 657 255 b 643 149 651 230 649 210 l 321 149 l 321 433 l 660 433 l 660 576 l 321 576 l 321 854 l 643 854 b 653 765 649 792 651 772 b 686 740 657 748 667 740 l 743 740 l 759 740 l 766 740 l 766 854 l 766 906 l 766 1003 l 132 1003 l 27 1003 l 27 922 b 62 878 27 897 39 883 b 133 865 73 877 73 876 l 133 137 b 62 124 73 126 73 126 b 27 81 39 119 27 105 l 27 0 l 133 0 l 599 0 b 526 -64 567 -19 543 -40 b 501 -137 509 -88 501 -112 b 537 -211 501 -168 513 -192 b 642 -240 562 -230 597 -240 b 715 -230 668 -240 692 -237 b 772 -204 738 -223 757 -215 l 746 -141 "},"=":{"x_min":40.28125,"x_max":655.5625,"ha":695,"o":"m 40 409 l 40 281 l 655 281 l 655 409 l 40 409 m 40 653 l 40 526 l 655 526 l 655 653 l 40 653 "},"˚":{"x_min":33,"x_max":343,"ha":374,"o":"m 33 919 b 45 862 33 898 37 879 b 78 818 53 845 64 830 b 128 789 92 805 109 796 b 186 779 146 783 165 779 b 245 789 207 779 226 783 b 295 818 264 796 281 805 b 329 862 309 830 321 845 b 343 919 338 879 342 898 b 329 977 343 940 338 960 b 295 1022 321 995 309 1010 b 245 1051 281 1035 264 1044 b 186 1062 226 1058 207 1062 b 128 1051 165 1062 146 1058 b 78 1022 109 1044 92 1035 b 45 977 64 1010 53 995 b 33 919 37 960 33 940 m 126 919 b 141 965 126 938 130 954 b 189 982 153 976 168 982 b 232 965 207 983 221 976 b 249 919 243 954 249 938 b 232 875 249 901 243 887 b 188 857 221 863 207 857 b 141 875 168 857 153 863 b 126 919 130 887 126 901 "},"ú":{"x_min":18.125,"x_max":847.859375,"ha":874,"o":"m 813 125 b 743 137 802 126 802 127 l 743 711 l 571 711 l 571 711 l 467 711 l 467 630 b 501 586 467 606 478 592 b 571 574 511 585 512 584 l 571 197 b 497 142 548 173 523 155 b 415 123 472 129 444 123 b 324 158 375 123 344 134 b 295 259 304 182 295 216 l 295 711 l 123 711 l 123 711 l 18 711 l 18 630 b 52 586 17 606 29 592 b 123 574 63 585 63 584 l 123 259 b 138 150 123 219 127 183 b 184 64 149 116 164 88 b 259 8 204 40 230 21 b 363 -11 289 -4 324 -11 b 428 -4 386 -11 408 -8 b 486 16 449 0 468 7 b 536 47 504 24 520 34 b 582 88 552 59 567 73 l 593 31 b 637 0 600 10 615 0 l 743 0 l 847 0 l 847 81 b 813 125 847 105 836 119 m 678 1014 l 511 1014 b 470 1005 493 1014 479 1011 b 446 977 461 999 453 990 l 348 809 l 450 809 b 481 814 463 809 473 811 b 507 833 489 818 498 824 l 678 1014 "},"¯":{"x_min":37,"x_max":452,"ha":489,"o":"m 37 953 l 37 843 l 452 843 l 452 953 l 37 953 "},"Z":{"x_min":23.359375,"x_max":798.359375,"ha":824,"o":"m 780 876 b 798 934 792 894 798 913 l 798 1003 l 55 1003 l 56 730 l 129 730 b 162 756 147 730 158 738 b 174 854 162 759 166 793 l 556 854 l 40 124 b 27 100 35 116 31 108 b 23 73 24 91 23 82 l 23 0 l 785 0 l 785 148 l 785 270 l 712 270 b 679 244 694 270 683 261 b 667 148 678 240 675 209 l 265 148 l 780 876 "},"u":{"x_min":18.125,"x_max":847.859375,"ha":875,"o":"m 813 125 b 743 137 802 126 802 127 l 743 711 l 571 711 l 571 711 l 467 711 l 467 630 b 501 586 467 606 478 592 b 571 574 511 585 512 584 l 571 197 b 497 142 548 173 523 155 b 415 123 472 129 444 123 b 324 158 375 123 344 134 b 295 259 304 182 295 216 l 295 711 l 123 711 l 123 711 l 18 711 l 18 630 b 52 586 17 606 29 592 b 123 574 63 585 63 584 l 123 259 b 138 150 123 219 127 183 b 184 64 149 116 164 88 b 259 8 204 40 230 21 b 363 -11 289 -4 324 -11 b 428 -4 386 -11 408 -8 b 486 16 449 0 468 7 b 536 47 504 24 520 34 b 582 88 552 59 567 73 l 593 31 b 637 0 600 10 615 0 l 743 0 l 847 0 l 847 81 b 813 125 847 105 836 119 "},"k":{"x_min":25.96875,"x_max":815.1875,"ha":842,"o":"m 780 125 b 767 127 777 125 773 125 b 738 130 761 127 752 129 b 693 136 724 132 709 134 l 550 345 b 528 375 542 356 536 365 b 502 399 520 384 512 392 b 529 420 512 405 521 412 b 554 447 538 429 546 438 l 659 576 b 697 582 672 578 685 580 b 724 585 710 583 719 585 b 736 587 729 586 733 587 b 771 630 760 592 771 606 l 771 711 l 770 713 l 618 713 b 604 711 613 713 608 712 l 604 711 l 433 711 l 433 630 b 468 587 433 606 445 592 b 480 585 470 587 473 586 l 381 463 b 361 445 374 454 367 448 b 333 441 354 442 345 441 l 302 441 l 302 1032 l 130 1032 l 26 1032 l 26 950 b 60 906 25 925 37 912 b 68 905 61 906 65 905 b 89 901 72 904 79 903 b 130 894 99 899 112 897 l 130 137 b 89 129 112 134 99 131 b 68 126 79 128 72 127 b 60 125 65 125 61 125 b 26 81 37 120 25 105 l 26 0 l 130 0 l 302 0 l 406 0 l 406 81 b 372 125 406 105 395 120 b 363 126 370 125 367 125 b 342 129 359 127 352 128 b 302 137 333 131 319 134 l 302 326 l 340 326 b 372 321 354 326 365 323 b 392 300 379 317 386 310 l 574 30 b 599 6 581 19 590 11 b 633 0 608 2 620 0 l 710 0 l 788 0 l 815 0 l 815 81 b 780 125 815 105 804 120 "},"Ù":{"x_min":21.125,"x_max":1063.859375,"ha":1085,"o":"m 958 1005 l 772 1005 l 660 1005 l 660 922 b 695 878 660 897 672 884 b 706 877 697 878 701 877 b 729 873 710 876 718 875 b 772 866 740 871 754 869 l 772 402 b 756 298 772 364 766 329 b 710 219 745 267 731 241 b 638 169 691 197 667 180 b 542 151 610 156 578 151 b 444 169 506 151 473 156 b 373 219 416 180 392 197 b 328 299 353 241 338 268 b 313 403 317 330 313 364 l 313 866 b 355 873 330 869 344 871 b 378 877 366 875 374 876 b 389 878 383 877 387 878 b 424 922 412 884 424 897 l 424 1003 l 312 1003 l 126 1003 l 21 1003 l 21 922 b 55 878 20 897 32 884 b 64 877 57 878 60 877 b 85 873 68 876 74 875 b 126 866 94 871 108 869 l 126 402 b 154 236 126 343 135 287 b 237 105 173 186 201 142 b 368 19 273 68 317 40 b 542 -11 419 -1 477 -11 b 715 19 606 -11 664 -1 b 847 105 767 40 811 68 b 929 236 883 142 911 186 b 959 402 949 287 959 343 l 959 866 b 999 873 976 869 990 871 b 1020 877 1009 875 1016 876 b 1029 878 1024 877 1027 878 b 1063 922 1052 884 1063 897 l 1063 1003 l 958 1005 m 443 1243 l 253 1243 l 459 1091 b 473 1082 464 1088 469 1085 b 485 1078 477 1080 481 1079 b 499 1076 490 1076 494 1076 b 516 1075 503 1076 510 1076 l 651 1075 l 515 1215 b 499 1229 509 1221 504 1226 b 484 1238 494 1233 490 1236 b 467 1242 479 1240 473 1241 b 443 1243 460 1243 452 1243 "},"¢":{"x_min":26,"x_max":625.859375,"ha":647,"o":"m 576 166 b 545 183 569 178 559 183 b 516 173 534 183 525 180 b 486 150 508 166 498 159 b 444 128 475 142 460 135 b 377 119 427 121 405 119 b 372 119 377 119 375 119 l 412 585 l 413 589 b 472 578 427 588 446 584 b 483 477 477 522 481 489 b 515 451 487 459 498 451 l 573 451 l 589 451 l 595 451 l 596 670 b 424 719 519 698 462 715 l 428 770 l 429 772 l 437 872 l 374 872 b 342 859 361 872 350 868 b 328 829 333 850 329 839 l 324 784 l 318 719 b 222 694 283 714 251 706 b 114 617 179 675 143 650 b 48 501 85 584 63 546 b 26 356 32 457 26 408 b 51 200 26 297 34 245 b 119 84 67 154 90 115 b 221 12 149 52 182 29 b 256 0 232 7 244 3 l 251 -64 l 243 -155 l 306 -155 b 339 -142 320 -155 331 -151 b 353 -112 347 -133 352 -123 l 355 -91 l 361 -12 b 421 -6 381 -11 401 -9 b 495 12 446 -2 471 3 b 564 48 519 21 542 33 b 625 105 586 63 607 82 l 576 166 m 213 255 b 202 355 205 284 202 318 b 213 454 202 392 205 425 b 246 528 220 483 231 507 b 302 575 261 548 280 564 b 304 575 303 575 303 575 b 306 576 306 576 306 576 l 286 341 l 270 156 b 248 180 262 163 255 171 b 213 255 233 200 222 225 "},"é":{"x_min":20.46875,"x_max":671,"ha":693,"o":"m 362 724 b 219 696 309 724 261 714 b 111 620 176 677 140 652 b 44 508 82 588 59 551 b 20 371 28 465 20 420 b 47 206 20 309 29 253 b 121 87 65 159 89 119 b 232 14 153 55 189 30 b 370 -10 275 -2 321 -10 b 448 -4 395 -10 421 -8 b 526 14 474 0 500 5 b 600 50 552 23 576 35 b 664 106 623 65 645 84 l 614 169 b 601 181 610 174 606 178 b 583 185 596 183 590 185 b 550 175 572 185 561 181 b 510 154 539 168 525 161 b 457 132 495 145 478 138 b 386 123 437 125 414 123 b 250 174 329 123 284 139 b 191 335 215 208 196 261 l 631 335 b 650 337 639 335 645 335 b 662 348 655 339 659 343 b 668 368 665 352 667 359 b 671 400 670 376 671 387 b 648 537 671 452 663 497 b 584 639 632 577 611 611 b 486 702 556 666 523 687 b 362 724 448 716 407 723 m 366 601 b 432 587 391 601 413 596 b 480 552 451 579 467 567 b 507 500 492 537 501 520 b 517 438 513 481 517 460 l 194 438 b 248 558 202 489 220 529 b 366 601 276 586 316 601 m 607 1015 l 440 1015 b 398 1005 421 1015 407 1011 b 374 978 389 999 381 990 l 276 809 l 378 809 b 410 814 391 809 401 811 b 435 834 418 818 426 824 l 607 1015 "},"B":{"x_min":28.109375,"x_max":877,"ha":897,"o":"m 669 518 b 749 557 701 529 727 542 b 805 608 772 572 790 589 b 837 668 819 627 830 647 b 848 736 844 690 848 713 b 827 847 848 777 841 814 b 761 931 813 880 791 908 b 646 984 731 954 693 972 b 479 1004 600 997 545 1003 l 133 1004 l 28 1004 l 28 922 b 62 878 27 898 39 884 b 71 877 64 878 67 878 b 92 873 75 876 81 875 b 133 866 101 871 115 869 l 133 137 b 92 129 115 134 101 132 b 71 126 81 128 75 127 b 62 125 67 125 64 125 b 28 81 39 119 27 105 l 28 0 l 132 0 l 511 0 b 667 22 570 0 622 6 b 781 83 712 36 750 56 b 852 177 813 109 836 140 b 877 295 868 213 877 252 b 669 518 877 413 808 487 m 319 860 l 479 860 b 617 825 542 859 588 848 b 662 714 647 803 662 766 b 613 604 662 663 645 627 b 468 568 580 580 531 568 l 319 568 l 319 860 m 682 240 b 652 191 676 221 666 205 b 596 158 638 177 619 166 b 508 146 572 150 543 146 l 319 146 l 319 440 l 508 440 b 592 430 540 440 569 436 b 649 401 615 423 634 414 b 681 357 663 389 674 374 b 692 299 688 340 692 320 b 682 240 692 278 689 258 "},"…":{"x_min":37,"x_max":988.828125,"ha":1024,"o":"m 37 94 b 44 52 37 78 39 65 b 66 19 50 40 57 28 b 100 -2 76 10 87 3 b 142 -10 113 -7 127 -10 b 183 -2 156 -10 170 -7 b 216 19 195 3 206 10 b 238 52 225 28 233 40 b 247 94 244 65 247 78 b 238 135 247 108 244 121 b 216 168 233 147 225 158 b 183 190 206 177 195 185 b 142 199 170 196 156 199 b 100 190 127 199 113 196 b 66 168 87 185 76 177 b 44 135 57 158 50 147 b 37 94 39 121 37 108 m 777 93 b 786 52 777 78 780 64 b 808 19 791 39 798 28 b 842 -2 818 10 829 3 b 883 -10 854 -7 868 -10 b 924 -2 897 -10 911 -7 b 958 19 937 3 948 10 b 980 52 967 28 974 39 b 988 93 986 64 988 78 b 980 135 988 108 986 121 b 958 168 974 147 967 158 b 924 190 948 177 937 185 b 883 199 911 196 897 199 b 841 190 868 199 854 196 b 808 167 829 185 818 177 b 786 134 798 158 791 147 b 777 93 780 121 777 108 m 407 93 b 415 52 407 78 410 64 b 437 19 421 39 428 28 b 471 -2 447 10 458 3 b 512 -10 484 -7 498 -10 b 554 -2 527 -10 541 -7 b 587 19 566 3 577 10 b 609 52 596 28 603 39 b 618 93 615 64 618 78 b 609 134 618 108 615 121 b 587 167 604 147 596 158 b 554 189 577 177 566 184 b 513 198 541 195 527 198 b 471 189 498 198 484 195 b 437 167 458 184 447 177 b 415 134 428 158 421 147 b 407 93 410 121 408 108 "},"H":{"x_min":28.109375,"x_max":1084.859375,"ha":1113,"o":"m 1050 878 b 1084 922 1073 883 1084 897 l 1084 1003 l 980 1003 l 791 1003 l 687 1003 l 687 922 b 721 878 687 897 698 883 b 730 877 723 878 726 877 b 751 873 734 876 741 874 b 792 865 760 871 774 869 l 792 572 l 321 572 l 321 865 b 361 873 338 869 352 871 b 382 877 371 874 378 876 b 391 878 386 877 389 878 b 425 922 414 883 425 897 l 425 1003 l 321 1003 l 132 1003 l 28 1003 l 28 922 b 62 878 27 897 39 883 b 71 877 64 878 67 877 b 92 873 75 876 81 874 b 133 865 101 871 115 869 l 133 137 b 92 129 115 134 101 131 b 71 126 81 128 75 127 b 62 125 67 125 64 125 b 28 81 39 119 27 105 l 28 0 l 132 0 l 321 0 l 425 0 l 425 81 b 391 125 425 105 414 119 b 382 126 389 125 386 125 b 361 129 378 127 371 128 b 321 137 352 131 338 134 l 321 438 l 792 438 l 792 137 b 751 129 774 134 760 131 b 730 126 741 128 734 127 b 721 125 726 125 723 125 b 687 81 698 119 687 105 l 687 0 l 791 0 l 980 0 l 1084 0 l 1084 81 b 1050 125 1084 105 1073 119 b 1041 126 1048 125 1045 125 b 1020 129 1037 127 1031 128 b 980 137 1011 131 997 134 l 980 865 b 1020 873 997 869 1011 871 b 1041 877 1030 874 1037 876 b 1050 878 1045 877 1048 878 "},"î":{"x_min":15.390625,"x_max":495.03125,"ha":510,"o":"m 406 125 b 397 126 404 125 401 125 b 376 129 393 127 386 128 b 336 137 366 131 352 134 l 336 713 l 164 713 l 58 713 l 58 630 b 93 587 58 606 70 592 b 102 585 95 587 98 586 b 122 582 105 585 112 583 b 164 574 132 580 146 578 l 164 137 b 122 129 146 134 132 131 b 102 126 112 128 105 127 b 93 125 98 125 95 125 b 58 81 70 119 58 105 l 58 0 l 164 0 l 335 0 l 440 0 l 440 81 b 406 125 440 105 429 119 m 495 811 l 336 1004 l 174 1004 l 15 811 l 134 811 b 153 814 141 810 147 812 b 168 823 159 817 164 820 l 243 889 b 250 895 245 891 247 893 b 258 904 253 898 255 901 b 264 895 260 901 262 898 b 272 889 267 893 269 891 l 345 823 b 380 811 354 815 365 811 l 495 811 "},"−":{"x_min":38.890625,"x_max":654.171875,"ha":693,"o":"m 38 530 l 38 403 l 654 403 l 654 530 l 38 530 "},"≠":{"x_min":31.9375,"x_max":647.21875,"ha":679,"o":"m 31 653 l 31 526 l 316 526 l 258 409 l 31 409 l 31 281 l 194 281 l 113 117 l 235 117 l 316 281 l 647 281 l 647 409 l 380 409 l 439 526 l 647 526 l 647 653 l 502 653 l 579 806 l 456 806 l 380 653 l 31 653 "},"¥":{"x_min":21.0625,"x_max":806.9375,"ha":828,"o":"m 105 440 l 105 344 l 328 344 l 328 278 l 105 278 l 105 183 l 328 183 l 328 0 l 500 0 l 500 183 l 721 183 l 721 278 l 500 278 l 500 344 l 721 344 l 721 440 l 529 440 l 806 1004 l 663 1004 b 624 990 647 1004 634 999 b 601 962 613 982 606 972 l 450 623 b 428 566 440 603 433 584 b 415 514 422 548 418 530 b 401 566 410 530 406 548 b 378 623 395 583 387 602 l 226 962 b 203 992 221 974 212 984 b 163 1004 192 999 179 1004 l 21 1004 l 297 440 l 105 440 "},"U":{"x_min":21.125,"x_max":1063.859375,"ha":1085,"o":"m 958 1005 l 772 1005 l 660 1005 l 660 922 b 695 878 660 897 672 884 b 706 877 697 878 701 877 b 729 873 710 876 718 875 b 772 866 740 871 754 869 l 772 402 b 756 298 772 364 766 329 b 710 219 745 267 731 241 b 638 169 691 197 667 180 b 542 151 610 156 578 151 b 444 169 506 151 473 156 b 373 219 416 180 392 197 b 328 299 353 241 338 268 b 313 403 317 330 313 364 l 313 866 b 355 873 330 869 344 871 b 378 877 366 875 374 876 b 389 878 383 877 387 878 b 424 922 412 884 424 897 l 424 1003 l 312 1003 l 126 1003 l 21 1003 l 21 922 b 55 878 20 897 32 884 b 64 877 57 878 60 877 b 85 873 68 876 74 875 b 126 866 94 871 108 869 l 126 402 b 154 236 126 343 135 287 b 237 105 173 186 201 142 b 368 19 273 68 317 40 b 542 -11 419 -1 477 -11 b 715 19 606 -11 664 -1 b 847 105 767 40 811 68 b 929 236 883 142 911 186 b 959 402 949 287 959 343 l 959 866 b 999 873 976 869 990 871 b 1020 877 1009 875 1016 876 b 1029 878 1024 877 1027 878 b 1063 922 1052 884 1063 897 l 1063 1003 l 958 1005 "},"Ñ":{"x_min":28.109375,"x_max":1084.859375,"ha":1106,"o":"m 979 1005 l 815 1005 l 690 1005 l 690 922 b 724 878 690 897 701 884 b 815 865 726 878 757 874 l 815 393 b 815 350 815 379 815 365 b 819 302 816 334 817 318 l 293 973 b 279 989 288 980 283 985 b 266 998 275 993 271 996 b 252 1002 262 1000 257 1002 b 231 1003 246 1003 239 1003 l 133 1003 l 28 1003 l 28 922 b 62 878 27 897 39 884 b 71 877 64 878 67 877 b 92 873 75 876 81 875 b 133 865 101 871 115 869 l 133 137 b 92 129 115 134 101 131 b 71 126 81 128 75 127 b 62 125 67 125 64 125 b 28 81 39 119 27 105 l 28 0 l 132 0 l 297 0 l 422 0 l 422 81 b 387 125 422 105 411 119 b 298 137 385 125 356 129 l 298 616 b 296 656 298 628 297 641 b 293 700 296 670 295 685 l 818 31 b 846 6 827 19 836 11 b 883 0 856 2 868 0 l 980 0 l 980 865 b 1020 873 997 869 1011 871 b 1041 877 1031 875 1037 876 b 1050 878 1045 877 1048 878 b 1084 922 1073 884 1084 897 l 1084 1003 l 979 1005 m 652 1179 b 620 1186 642 1179 631 1182 b 580 1203 608 1192 595 1198 b 536 1220 566 1209 552 1215 b 487 1227 520 1225 504 1227 b 432 1216 467 1227 448 1224 b 391 1184 416 1209 403 1198 b 365 1134 379 1170 371 1154 b 356 1071 358 1115 356 1094 l 450 1071 b 461 1106 450 1087 454 1098 b 491 1117 469 1113 479 1117 b 524 1109 501 1118 512 1115 b 563 1092 536 1104 549 1099 b 608 1076 578 1087 592 1081 b 656 1068 624 1071 640 1069 b 712 1080 677 1068 696 1072 b 753 1111 728 1087 742 1098 b 778 1159 764 1125 772 1141 b 788 1223 785 1179 788 1200 l 695 1223 b 682 1190 694 1208 690 1197 b 652 1179 674 1183 665 1180 "},"F":{"x_min":28.109375,"x_max":800.859375,"ha":824,"o":"m 766 1003 l 734 1003 l 132 1003 l 28 1003 l 28 922 b 62 878 27 898 39 884 b 71 877 64 878 67 878 b 92 874 75 876 81 875 b 133 866 101 871 115 869 l 133 137 b 92 129 115 134 101 131 b 71 126 81 128 75 127 b 62 125 67 125 64 125 b 28 81 39 119 27 105 l 28 0 l 132 0 l 321 0 l 425 0 l 425 81 b 391 125 425 105 414 119 b 382 126 389 125 386 125 b 361 129 378 127 371 128 b 321 137 352 131 338 134 l 321 409 l 671 409 l 671 558 l 321 558 l 321 856 l 678 856 b 689 766 683 806 686 776 b 721 740 692 748 702 740 l 778 740 l 795 740 l 800 740 l 800 874 l 800 907 l 800 1003 l 766 1003 "},"*":{"x_min":26.671875,"x_max":475.328125,"ha":503,"o":"m 210 581 l 292 581 l 292 709 b 282 760 292 728 288 745 b 301 743 288 753 294 747 b 324 727 308 737 316 732 l 435 663 l 475 732 l 364 797 b 314 816 346 806 330 813 b 339 823 323 818 331 820 b 364 836 348 827 356 831 l 475 900 l 434 969 l 324 905 b 301 889 316 900 308 895 b 283 872 294 884 288 878 b 289 897 286 879 288 888 b 292 925 291 906 291 915 l 292 1052 l 210 1052 l 210 924 b 211 897 209 914 210 905 b 218 872 212 888 214 879 b 199 889 212 878 206 884 b 177 905 192 895 185 900 l 66 970 l 26 901 l 137 836 b 161 823 145 831 153 827 b 187 816 169 819 178 817 b 161 809 178 815 169 812 b 137 797 153 806 145 802 l 26 733 l 67 663 l 177 727 b 199 742 185 732 192 737 b 217 759 206 747 212 753 b 211 734 214 752 212 743 b 210 707 210 726 210 717 l 210 581 "},"†":{"x_min":24.0625,"x_max":716.640625,"ha":739,"o":"m 24 633 l 24 577 l 303 577 l 303 331 l 281 -224 b 369 -246 305 -239 335 -247 b 417 -241 386 -246 402 -245 b 459 -224 433 -237 446 -232 l 436 331 l 436 577 l 716 577 l 716 633 b 711 661 716 643 714 652 b 697 685 708 669 703 678 b 672 701 690 692 681 697 b 636 708 661 705 649 708 b 539 695 606 707 574 703 b 436 676 505 688 470 682 l 459 1016 b 417 1033 446 1023 433 1029 b 369 1038 402 1037 386 1038 b 281 1016 335 1039 305 1031 l 302 676 b 198 695 267 682 232 688 b 103 708 164 703 133 707 b 67 701 90 708 77 705 b 42 685 58 697 49 692 b 28 661 35 678 31 669 b 24 633 25 652 24 643 "},"°":{"x_min":28,"x_max":509,"ha":538,"o":"m 28 780 b 46 689 28 748 33 717 b 96 613 58 659 75 634 b 172 562 118 591 143 575 b 267 544 202 550 233 544 b 361 562 300 544 332 550 b 438 613 390 575 416 591 b 490 689 460 634 477 659 b 509 780 502 717 509 748 b 490 872 509 812 502 843 b 438 948 477 901 460 926 b 361 998 416 969 390 985 b 267 1017 332 1010 300 1016 b 172 998 233 1017 202 1010 b 96 947 143 985 118 969 b 46 872 75 926 58 901 b 28 780 33 843 28 812 m 147 778 b 156 827 147 796 149 812 b 181 866 161 842 169 855 b 219 892 192 877 204 886 b 267 902 233 899 249 902 b 315 892 283 903 299 899 b 353 866 329 886 342 878 b 378 827 364 855 372 842 b 388 778 384 812 388 796 b 378 730 388 761 384 745 b 353 691 372 715 364 703 b 315 666 342 680 329 672 b 267 656 299 659 283 656 b 219 666 249 656 233 659 b 181 691 204 672 192 680 b 156 730 169 703 161 715 b 147 778 149 745 147 761 "},"å":{"x_min":17.9375,"x_max":697.875,"ha":722,"o":"m 663 125 b 647 127 661 125 656 125 b 611 134 639 129 627 131 l 611 450 b 593 561 611 491 605 528 b 541 649 581 595 564 624 b 459 706 519 673 491 692 b 347 727 426 720 388 726 b 50 614 231 727 132 689 l 82 559 b 102 537 87 550 93 543 b 132 528 110 531 120 528 b 170 538 145 528 158 531 b 208 559 181 544 194 551 b 256 582 222 568 238 575 b 325 592 274 588 298 592 b 413 557 364 592 393 580 b 443 449 434 533 443 497 l 443 408 b 240 386 363 407 295 400 b 108 334 186 372 142 355 b 38 262 76 312 52 288 b 18 182 24 236 18 209 b 32 98 17 150 22 122 b 75 37 43 73 57 53 b 140 0 93 20 115 9 b 224 -11 166 -7 194 -11 b 293 -4 249 -11 272 -9 b 352 13 314 0 334 5 b 406 44 371 22 389 31 b 459 87 424 56 441 70 l 474 36 b 495 6 479 21 486 11 b 533 0 505 2 518 0 l 592 0 l 611 0 l 697 0 l 697 81 b 663 125 697 105 686 119 m 443 183 b 406 149 431 169 419 158 b 368 125 394 140 381 132 b 326 111 355 119 341 114 b 277 107 311 108 295 107 b 208 126 249 107 226 113 b 181 191 190 139 181 161 b 194 234 181 207 186 221 b 237 268 202 247 217 259 b 318 293 258 278 285 286 b 443 303 352 299 393 303 l 443 183 m 186 920 b 198 863 186 899 190 880 b 232 819 206 846 218 831 b 281 790 246 806 263 797 b 339 781 299 783 319 781 b 399 790 360 780 380 783 b 449 819 418 797 435 806 b 483 863 463 831 475 846 b 496 920 492 880 496 898 b 483 978 496 941 492 960 b 449 1023 475 995 463 1011 b 399 1052 435 1035 418 1045 b 339 1063 380 1059 360 1063 b 281 1052 319 1063 299 1059 b 232 1023 263 1045 246 1035 b 198 978 218 1011 206 995 b 186 920 190 960 186 941 m 279 920 b 295 965 279 939 284 954 b 342 983 306 976 322 983 b 386 965 361 983 375 976 b 403 920 397 954 403 939 b 386 876 403 902 397 887 b 342 859 375 864 361 859 b 295 876 322 859 306 864 b 279 920 284 887 279 902 "},"0":{"x_min":28,"x_max":763.421875,"ha":792,"o":"m 763 502 b 735 730 763 589 754 665 b 657 890 716 794 691 847 b 540 983 624 931 585 962 b 393 1015 495 1004 446 1014 b 248 983 341 1015 293 1004 b 132 890 204 962 165 931 b 55 729 99 847 73 794 b 28 501 37 665 28 589 b 55 273 28 413 37 338 b 132 113 73 209 99 155 b 248 19 165 71 204 40 b 393 -11 293 -1 341 -11 b 540 19 446 -11 495 -1 b 657 113 585 40 624 71 b 735 273 691 155 716 209 b 763 502 754 338 763 414 m 586 501 b 570 320 586 429 581 368 b 528 207 559 273 546 235 b 466 148 509 179 489 159 b 393 130 443 136 418 130 b 323 148 369 130 346 136 b 262 207 300 159 280 179 b 220 321 244 235 230 273 b 204 502 209 368 204 429 b 220 682 204 574 209 634 b 262 796 230 729 244 768 b 323 855 280 824 300 844 b 393 873 346 866 369 873 b 466 855 418 873 443 866 b 528 796 489 844 509 824 b 570 682 546 768 559 729 b 586 501 581 634 586 574 "},"”":{"x_min":25.71875,"x_max":457.859375,"ha":487,"o":"m 180 1064 l 77 1023 b 51 992 59 1017 51 1007 b 57 973 51 985 53 979 b 83 916 69 953 77 934 b 91 866 88 898 91 882 b 85 824 91 851 88 837 b 72 788 81 811 77 799 b 53 758 66 777 60 767 b 34 734 46 750 40 741 b 25 712 28 729 25 721 b 28 701 25 709 26 705 b 38 691 29 697 33 694 l 91 658 b 192 775 135 694 168 733 b 228 907 216 817 228 861 b 216 985 228 934 223 959 b 180 1064 208 1011 196 1037 m 410 1063 l 307 1023 b 281 991 290 1017 281 1007 b 287 973 281 985 283 979 b 313 916 300 953 308 934 b 321 866 318 898 321 882 b 316 824 321 851 319 837 b 302 788 312 811 307 799 b 284 758 296 777 291 767 b 264 734 277 750 271 741 b 255 712 259 729 255 721 b 258 701 255 709 257 705 b 268 691 260 697 264 694 l 321 658 b 423 775 366 694 399 733 b 457 907 446 817 457 861 b 446 985 457 934 454 959 b 410 1063 439 1011 427 1037 "},"ö":{"x_min":20,"x_max":724,"ha":747,"o":"m 373 723 b 227 697 319 723 271 713 b 116 624 184 680 146 655 b 44 509 85 592 61 554 b 20 357 28 463 20 413 b 44 205 20 300 28 250 b 116 89 61 159 85 121 b 227 15 146 57 184 32 b 373 -10 271 -1 319 -10 b 517 15 425 -10 474 -1 b 628 89 560 32 597 57 b 699 205 658 121 682 159 b 724 357 715 250 724 300 b 699 509 724 413 715 463 b 628 624 682 554 658 592 b 517 697 597 655 560 680 b 373 723 474 713 425 722 m 373 122 b 239 181 312 122 268 141 b 197 356 210 221 197 280 b 239 531 197 432 210 490 b 373 592 268 571 312 592 b 504 531 431 592 475 571 b 547 356 532 491 547 432 b 504 181 547 279 532 221 b 373 122 475 141 431 122 m 339 896 b 332 934 339 909 337 922 b 310 965 326 945 319 956 b 279 986 301 973 291 980 b 242 993 267 991 255 993 b 206 986 230 993 217 991 b 176 965 195 980 185 973 b 156 934 167 956 160 945 b 148 896 150 922 148 909 b 156 859 147 883 150 870 b 176 830 160 848 167 838 b 206 810 185 822 195 815 b 242 803 217 805 230 803 b 279 810 255 803 267 805 b 310 830 291 815 301 822 b 332 859 319 838 326 848 b 339 896 337 870 339 883 m 599 896 b 591 934 599 909 596 922 b 570 965 585 945 578 956 b 539 986 561 973 551 980 b 502 993 527 991 515 993 b 465 986 489 993 477 991 b 435 965 454 980 443 973 b 415 934 427 956 420 945 b 407 896 409 922 407 909 b 415 859 407 883 409 870 b 435 829 420 848 427 838 b 465 810 443 821 454 815 b 502 802 477 805 489 802 b 539 810 515 802 527 805 b 570 829 551 815 561 821 b 591 859 578 838 585 848 b 599 896 596 870 598 883 "},"Õ":{"x_min":19,"x_max":1037.328125,"ha":1059,"o":"m 1037 502 b 1000 706 1038 575 1025 643 b 896 868 976 768 941 822 b 736 976 852 914 798 949 b 528 1015 673 1001 604 1015 b 320 976 452 1015 383 1001 b 159 869 258 950 203 915 b 55 706 114 823 80 768 b 19 502 30 643 19 575 b 55 297 19 428 30 359 b 159 134 80 234 114 180 b 320 27 203 89 258 52 b 528 -11 383 1 452 -11 b 736 27 604 -11 673 1 b 896 134 798 52 852 89 b 1000 297 941 180 976 234 b 1037 502 1025 359 1037 428 m 845 502 b 823 353 845 446 838 397 b 760 242 809 309 788 273 b 661 173 733 212 700 189 b 528 149 622 156 577 149 b 395 173 479 149 435 156 b 295 242 356 189 323 212 b 231 353 267 273 246 309 b 209 502 217 397 209 446 b 231 649 209 556 217 606 b 295 761 246 693 267 731 b 395 831 323 792 356 815 b 528 856 435 847 479 856 b 661 831 577 856 622 847 b 760 761 700 815 733 792 b 823 649 788 731 809 693 b 845 502 838 606 845 556 m 615 1180 b 582 1187 605 1180 595 1182 b 543 1204 570 1192 557 1198 b 498 1221 529 1210 514 1215 b 449 1229 483 1226 467 1229 b 395 1217 429 1229 411 1224 b 353 1185 378 1209 365 1199 b 326 1135 342 1171 333 1154 b 317 1072 321 1115 317 1094 l 412 1072 b 424 1106 413 1087 417 1098 b 454 1118 431 1113 442 1118 b 487 1110 464 1118 474 1115 b 527 1093 499 1104 513 1099 b 571 1076 540 1087 556 1081 b 620 1069 586 1071 602 1069 b 675 1080 640 1069 659 1072 b 716 1112 691 1087 705 1098 b 742 1160 727 1125 736 1141 b 750 1223 748 1179 750 1200 l 657 1223 b 645 1190 657 1208 653 1197 b 615 1180 638 1183 627 1180 "},"ć":{"x_min":20.953125,"x_max":620.859375,"ha":638,"o":"m 571 169 b 540 185 564 179 554 185 b 511 175 529 185 520 181 b 481 152 503 168 493 161 b 438 130 470 144 455 137 b 372 121 422 123 400 121 b 298 136 345 121 320 125 b 243 182 277 146 258 161 b 208 256 227 202 216 227 b 195 358 200 285 195 319 b 207 455 195 394 200 426 b 241 529 214 484 225 509 b 297 576 256 550 275 565 b 376 593 320 587 346 593 b 467 579 400 593 431 588 b 478 478 472 523 476 490 b 510 453 482 461 493 453 l 568 453 l 584 453 l 590 453 l 591 671 b 366 722 498 706 424 722 b 217 695 310 722 261 713 b 109 618 174 677 138 651 b 43 502 80 586 58 547 b 21 358 27 458 20 410 b 46 201 20 299 29 247 b 114 86 62 155 85 117 b 216 14 143 54 177 30 b 340 -10 254 -2 296 -10 b 416 -4 365 -10 391 -8 b 490 14 441 0 466 5 b 559 50 513 23 537 35 b 620 107 581 65 602 84 l 571 169 m 604 1015 l 438 1015 b 396 1005 420 1015 406 1011 b 372 978 387 999 379 990 l 273 809 l 376 809 b 408 814 389 809 400 810 b 433 833 416 817 425 824 l 604 1015 "},"þ":{"x_min":38,"x_max":693,"ha":715,"o":"m 38 -233 l 210 -233 l 210 71 b 244 37 221 58 232 47 b 284 11 256 27 269 18 b 331 -4 297 4 313 0 b 387 -10 347 -8 366 -10 b 513 17 433 -10 475 0 b 609 96 550 36 583 62 b 671 214 636 129 656 168 b 693 362 685 259 692 308 b 673 516 693 420 686 471 b 619 629 661 560 643 599 b 536 698 595 659 568 682 b 430 723 504 714 469 723 b 305 695 382 723 340 714 b 210 624 269 677 237 654 l 210 1032 l 38 1032 l 38 -233 m 371 590 b 431 577 393 590 413 585 b 477 538 449 569 464 556 b 505 467 489 520 498 496 b 516 362 512 438 516 403 b 504 254 516 320 511 285 b 470 179 495 224 484 199 b 417 135 455 159 437 145 b 347 121 396 125 372 121 b 273 134 320 121 295 125 b 210 185 250 144 229 161 l 210 504 b 279 567 231 531 255 551 b 371 590 304 582 335 590 "},"]":{"x_min":22,"x_max":307,"ha":344,"o":"m 22 -214 l 307 -214 l 307 1074 l 22 1074 l 22 1006 b 34 975 22 994 26 983 b 67 963 42 967 53 963 l 163 963 l 163 -103 l 67 -103 b 34 -116 53 -103 42 -107 b 22 -146 26 -124 22 -134 l 22 -214 "},"8":{"x_min":24,"x_max":719.640625,"ha":744,"o":"m 371 -11 b 513 9 423 -11 470 -4 b 623 68 556 23 592 43 b 694 161 653 93 678 125 b 719 281 711 197 719 237 b 675 431 719 340 705 391 b 540 523 647 472 601 503 b 650 610 589 543 625 572 b 687 745 674 647 686 693 b 663 852 687 783 678 818 b 598 937 648 884 626 913 b 498 994 571 961 537 980 b 372 1014 460 1008 417 1014 b 244 994 325 1014 283 1008 b 145 937 205 980 172 961 b 79 851 117 913 95 884 b 57 745 64 818 57 783 b 93 609 57 692 68 647 b 203 522 117 572 154 543 b 67 431 141 503 96 472 b 24 281 38 391 24 340 b 48 160 24 236 32 196 b 120 68 65 124 89 93 b 229 9 150 43 186 23 b 371 -11 272 -4 320 -11 m 372 122 b 297 134 343 122 318 126 b 243 168 276 143 258 154 b 211 220 229 182 218 200 b 200 284 203 239 200 261 b 245 409 200 339 215 381 b 372 452 276 437 317 452 b 498 409 425 452 467 437 b 544 284 528 381 544 339 b 532 220 544 261 539 239 b 499 168 525 200 514 182 b 446 134 485 154 467 143 b 372 122 424 126 399 122 m 372 586 b 301 599 344 586 320 591 b 255 634 282 608 267 620 b 230 684 244 649 235 666 b 224 742 226 703 224 722 b 232 796 224 761 226 779 b 259 842 237 813 246 829 b 305 873 271 855 287 865 b 372 885 324 881 346 885 b 438 873 397 886 419 881 b 483 842 456 865 471 855 b 510 796 495 829 504 813 b 520 742 516 779 520 761 b 512 684 520 722 517 703 b 488 634 507 666 499 649 b 442 599 476 620 460 608 b 372 586 422 591 399 587 "},"R":{"x_min":28.109375,"x_max":926.421875,"ha":951,"o":"m 891 125 b 880 126 889 125 885 125 b 856 129 875 127 867 128 b 813 137 845 131 830 134 l 655 370 b 594 428 638 395 617 414 b 688 472 629 439 660 453 b 757 537 715 490 738 512 b 800 619 776 561 790 588 b 816 715 811 649 816 681 b 793 831 816 757 808 796 b 725 923 779 867 756 897 b 605 982 693 948 654 968 b 429 1004 556 996 497 1004 l 133 1004 l 28 1004 l 28 922 b 62 878 27 898 39 884 b 71 877 64 878 67 878 b 92 873 75 876 81 875 b 133 866 101 871 115 869 l 133 137 b 92 129 115 134 101 131 b 71 126 81 128 75 127 b 62 125 67 125 64 125 b 28 81 39 119 27 105 l 28 0 l 132 0 l 319 0 l 424 0 l 424 81 b 389 125 424 105 413 119 b 381 126 387 125 385 125 b 360 129 377 127 370 128 b 320 137 351 131 337 134 l 320 392 l 390 392 b 431 384 408 392 422 389 b 457 358 441 378 449 370 l 668 37 b 697 9 676 24 686 15 b 738 0 708 2 722 0 l 820 0 l 906 0 l 926 0 l 926 81 b 891 125 926 105 914 119 m 518 539 b 426 526 492 530 461 526 l 320 526 l 320 860 l 429 860 b 582 818 497 859 549 846 b 633 701 616 791 633 752 b 620 631 633 675 628 651 b 582 575 612 609 599 590 b 518 539 565 560 544 547 "},"Ż":{"x_min":23.359375,"x_max":799.1875,"ha":823,"o":"m 781 876 b 799 934 793 894 799 913 l 799 1003 l 55 1003 l 56 730 l 129 730 b 162 756 147 730 158 738 b 174 854 163 759 166 793 l 557 854 l 40 124 b 27 100 35 116 31 108 b 23 73 24 91 23 82 l 23 0 l 786 0 l 786 148 l 786 270 l 713 270 b 680 244 695 270 684 261 b 668 148 679 240 676 209 l 265 148 l 781 876 m 536 1177 b 526 1217 536 1191 532 1204 b 504 1250 521 1229 513 1241 b 469 1273 494 1260 482 1267 b 428 1282 456 1279 442 1282 b 389 1273 415 1282 402 1279 b 356 1250 377 1268 366 1260 b 334 1217 346 1241 339 1229 b 326 1177 328 1204 326 1191 b 334 1137 326 1163 328 1150 b 356 1104 339 1125 346 1114 b 389 1081 366 1095 377 1087 b 428 1073 401 1076 415 1073 b 469 1081 442 1073 456 1076 b 504 1104 482 1087 494 1095 b 526 1137 513 1114 521 1125 b 536 1177 532 1150 535 1162 "},"o":{"x_min":21,"x_max":726,"ha":748,"o":"m 374 723 b 228 697 321 723 272 713 b 117 624 185 680 148 655 b 46 509 86 592 62 554 b 21 357 29 463 21 413 b 46 205 21 300 29 250 b 117 89 62 159 86 121 b 228 15 148 57 185 32 b 374 -10 272 -1 321 -10 b 519 15 427 -10 475 -1 b 630 89 562 32 599 57 b 701 205 660 121 684 159 b 726 357 717 250 726 300 b 701 509 726 413 717 463 b 630 624 684 554 660 592 b 519 697 599 655 562 680 b 374 723 475 713 427 722 m 374 122 b 241 181 314 122 269 141 b 198 356 211 221 198 280 b 241 531 198 432 211 490 b 374 592 269 571 314 592 b 505 531 433 592 477 571 b 549 356 534 491 549 432 b 505 181 549 279 534 221 b 374 122 477 141 433 122 "},"5":{"x_min":21.171875,"x_max":689,"ha":715,"o":"m 654 931 l 654 1005 l 158 1005 l 75 517 l 182 486 b 328 513 231 503 280 512 b 469 466 390 513 437 496 b 516 338 501 435 516 392 b 504 255 517 308 512 280 b 468 190 496 230 484 208 b 408 148 452 172 432 157 b 325 133 384 137 356 133 b 249 143 295 133 270 136 b 194 168 228 150 210 159 b 153 192 178 176 164 184 b 118 203 141 198 129 203 b 73 179 99 203 85 194 l 21 107 b 77 62 37 91 56 75 b 146 24 98 48 121 35 b 226 -1 171 13 197 5 b 315 -11 253 -8 283 -11 b 464 14 369 -11 418 -2 b 582 86 509 31 549 55 b 660 200 616 118 641 155 b 689 345 679 243 689 292 b 668 466 689 388 682 428 b 606 564 654 503 633 536 b 505 629 578 591 545 613 b 366 653 464 644 419 653 b 242 639 328 653 287 648 l 278 849 l 554 849 b 631 871 590 849 616 856 b 654 931 646 887 654 906 "},"õ":{"x_min":21,"x_max":725,"ha":747,"o":"m 374 723 b 228 697 320 723 272 713 b 117 624 185 680 147 655 b 45 509 86 592 62 554 b 21 357 29 463 21 413 b 45 205 21 300 29 250 b 117 89 62 159 86 121 b 228 15 147 57 185 32 b 374 -10 272 -1 320 -10 b 518 15 426 -10 475 -1 b 629 89 561 32 598 57 b 700 205 659 121 683 159 b 725 357 716 250 725 300 b 700 509 725 413 716 463 b 629 624 683 554 659 592 b 518 697 598 655 561 680 b 374 723 475 713 426 722 m 374 122 b 241 181 313 122 269 141 b 198 356 211 221 198 280 b 241 531 198 432 211 490 b 374 592 269 571 313 592 b 505 531 433 592 476 571 b 548 356 533 491 548 432 b 505 181 548 279 533 221 b 374 122 476 141 433 122 m 449 944 b 419 953 439 943 429 946 b 384 972 408 958 397 964 b 343 991 372 978 358 985 b 296 1001 328 997 313 1000 b 240 988 276 1001 257 996 b 194 953 222 980 207 968 b 164 898 181 937 171 919 b 154 828 157 877 154 854 l 260 828 b 271 869 260 847 263 861 b 303 882 278 877 289 881 b 333 872 312 882 321 878 b 368 853 344 866 356 860 b 408 834 381 846 394 839 b 455 825 422 827 438 825 b 512 836 476 824 495 828 b 557 871 529 845 545 856 b 586 925 569 886 579 905 b 598 996 593 946 597 970 l 494 996 b 482 955 494 976 489 962 b 449 944 473 947 463 944 "},",":{"x_min":35,"x_max":239.21875,"ha":275,"o":"m 35 105 b 41 64 35 90 37 77 b 62 32 46 52 53 41 b 92 9 70 22 80 15 b 132 2 105 4 118 2 b 119 -37 129 -11 125 -24 b 98 -71 112 -49 105 -60 b 76 -99 91 -81 83 -90 b 57 -119 69 -107 62 -113 b 48 -131 53 -123 50 -127 b 44 -144 45 -136 44 -140 b 56 -169 44 -154 48 -162 l 86 -197 b 151 -133 111 -177 132 -156 b 199 -62 171 -110 187 -86 b 229 11 212 -37 222 -12 b 239 81 236 36 239 59 b 232 126 239 97 237 112 b 213 164 228 140 222 153 b 180 189 205 175 194 183 b 135 198 168 196 153 198 b 94 191 120 198 106 196 b 62 171 81 187 71 180 b 41 141 53 163 46 153 b 35 105 37 130 35 118 "},"d":{"x_min":21,"x_max":773.0625,"ha":796,"o":"m 773 84 b 738 128 773 108 761 123 b 730 129 736 128 733 128 b 711 132 726 130 720 130 b 675 139 702 134 691 136 l 675 1032 l 504 1032 l 399 1032 l 399 950 b 434 906 399 925 411 911 b 443 905 436 906 439 905 b 463 901 446 904 453 902 b 504 893 473 899 486 897 l 504 656 b 429 707 482 677 457 694 b 326 726 401 719 366 726 b 200 697 279 726 237 716 b 103 619 162 678 130 653 b 41 501 77 586 56 546 b 21 353 27 455 21 406 b 39 198 21 295 27 243 b 93 84 52 153 70 114 b 177 14 117 53 145 30 b 283 -10 209 -2 244 -10 b 414 20 333 -10 377 0 b 513 100 452 40 484 66 l 527 34 b 542 10 530 23 534 15 b 570 3 550 5 560 3 l 675 3 l 773 3 l 773 84 m 505 211 b 434 147 482 183 459 162 b 343 125 409 131 378 125 b 282 137 320 125 300 129 b 236 177 263 145 248 159 b 207 247 224 194 214 218 b 198 353 200 276 198 311 b 209 460 198 394 201 429 b 243 536 217 490 228 515 b 296 580 257 555 275 570 b 366 595 317 590 341 595 b 441 580 393 595 418 590 b 505 530 464 570 485 554 l 505 211 "},"\"":{"x_min":33,"x_max":437,"ha":470,"o":"m 182 1005 l 33 1005 l 33 804 l 48 696 b 66 649 51 675 57 660 b 106 633 76 637 89 633 b 148 649 125 633 139 637 b 166 696 156 660 162 675 l 182 804 l 182 1005 m 437 1005 l 288 1005 l 288 804 l 303 696 b 321 649 306 675 312 660 b 361 633 331 637 344 633 b 403 649 380 633 394 637 b 421 696 411 660 417 675 l 437 804 l 437 1005 "},"˙":{"x_min":33,"x_max":251.75,"ha":285,"o":"m 251 923 b 242 965 251 938 248 952 b 219 1000 237 978 228 990 b 183 1023 209 1010 197 1018 b 139 1032 169 1029 155 1032 b 98 1023 125 1033 111 1029 b 64 1000 85 1018 74 1010 b 41 965 55 990 46 978 b 33 922 35 952 33 937 b 41 880 33 908 35 894 b 64 846 46 867 55 855 b 98 823 74 837 85 828 b 140 814 111 817 125 815 b 183 823 155 814 169 817 b 219 846 197 828 209 836 b 243 880 228 855 237 867 b 251 923 248 894 251 908 "},"ê":{"x_min":20.46875,"x_max":671,"ha":693,"o":"m 362 724 b 219 696 309 724 261 714 b 111 620 176 677 140 652 b 44 508 82 588 59 551 b 20 371 28 465 20 420 b 47 206 20 309 29 253 b 121 87 65 159 89 119 b 232 14 153 55 189 30 b 370 -10 275 -2 321 -10 b 448 -4 395 -10 421 -8 b 526 14 474 0 500 5 b 600 50 552 23 576 35 b 664 106 623 65 645 84 l 614 169 b 601 181 610 174 606 178 b 583 185 596 183 590 185 b 550 175 572 185 561 181 b 510 154 539 168 525 161 b 457 132 495 145 478 138 b 386 123 437 125 414 123 b 250 174 329 123 284 139 b 191 335 215 208 196 261 l 631 335 b 650 337 639 335 645 335 b 662 348 655 339 659 343 b 668 368 665 352 667 359 b 671 400 670 376 671 387 b 648 537 671 452 663 497 b 584 639 632 577 611 611 b 486 702 556 666 523 687 b 362 724 448 716 407 723 m 366 601 b 432 587 391 601 413 596 b 480 552 451 579 467 567 b 507 500 492 537 501 520 b 517 438 513 481 517 460 l 194 438 b 248 558 202 489 220 529 b 366 601 276 586 316 601 m 606 811 l 447 1004 l 286 1004 l 127 811 l 246 811 b 265 814 253 810 259 812 b 280 823 271 817 276 820 l 355 889 b 362 896 357 891 359 893 b 369 904 364 898 367 901 b 376 896 371 901 373 898 b 384 889 379 893 381 891 l 457 823 b 492 811 465 815 477 811 l 606 811 "},"„":{"x_min":31.71875,"x_max":463.859375,"ha":499,"o":"m 186 202 l 83 161 b 57 130 65 155 57 145 b 63 111 57 123 59 117 b 89 54 75 91 83 72 b 97 4 94 36 97 20 b 91 -37 97 -10 94 -24 b 78 -73 87 -50 83 -62 b 59 -103 72 -84 66 -94 b 40 -127 52 -111 46 -120 b 31 -149 34 -132 31 -140 b 34 -160 31 -152 32 -156 b 44 -170 35 -164 39 -168 l 97 -203 b 198 -86 141 -167 174 -128 b 234 46 222 -44 234 0 b 222 123 234 72 229 97 b 186 202 214 149 202 175 m 416 201 l 313 161 b 287 129 296 155 287 145 b 293 111 287 123 289 117 b 319 54 306 91 314 72 b 327 4 324 36 327 20 b 322 -37 327 -10 325 -24 b 308 -73 318 -50 313 -62 b 290 -103 302 -84 297 -94 b 270 -127 283 -111 277 -120 b 261 -149 265 -132 261 -140 b 264 -160 261 -152 263 -156 b 274 -170 266 -164 270 -168 l 327 -203 b 429 -86 372 -167 405 -128 b 463 45 452 -44 463 0 b 452 123 463 72 460 97 b 416 201 445 149 433 175 "},"Â":{"x_min":23.609375,"x_max":1101.390625,"ha":1127,"o":"m 1074 106 b 997 138 1067 109 1041 119 l 657 1003 l 466 1003 l 127 138 b 50 106 83 120 58 109 b 23 70 32 98 23 86 l 23 0 l 72 0 l 181 0 l 204 0 l 217 0 l 362 0 l 362 70 b 334 106 362 86 353 98 b 306 118 331 107 322 111 l 310 126 l 362 268 l 762 268 l 812 132 l 818 118 b 790 106 802 111 793 107 b 762 70 771 98 762 86 l 762 0 l 907 0 l 920 0 l 943 0 l 1052 0 l 1101 0 l 1101 70 b 1074 106 1101 86 1092 98 m 524 711 b 543 765 530 727 536 744 b 561 830 549 785 555 806 b 581 765 568 806 575 785 b 600 712 588 745 594 727 l 714 400 l 410 400 l 524 711 m 815 1075 l 647 1227 l 476 1227 l 308 1075 l 438 1075 b 461 1077 445 1075 452 1076 b 481 1086 469 1080 476 1082 l 551 1132 b 557 1137 554 1134 556 1135 b 561 1140 559 1138 561 1139 b 567 1136 563 1139 565 1137 b 572 1132 568 1135 570 1134 l 642 1086 b 662 1077 647 1082 654 1080 b 685 1075 670 1076 678 1075 l 815 1075 "},"Í":{"x_min":28.109375,"x_max":497.390625,"ha":513,"o":"m 391 878 b 425 922 414 884 425 897 l 425 1003 l 320 1003 l 133 1003 l 28 1003 l 28 922 b 62 878 27 897 39 884 b 71 877 64 878 67 877 b 92 873 75 876 81 875 b 133 865 101 871 115 869 l 133 137 b 92 129 115 134 101 131 b 71 126 81 128 75 127 b 62 125 67 125 64 125 b 28 81 39 119 27 105 l 28 0 l 133 0 l 320 0 l 425 0 l 425 81 b 391 125 425 105 414 119 b 382 126 389 125 386 125 b 361 129 378 127 372 128 b 321 137 352 131 338 134 l 321 865 b 361 873 338 869 352 871 b 382 877 372 875 378 876 b 391 878 386 877 389 878 m 497 1244 l 306 1244 b 282 1242 297 1244 288 1243 b 265 1238 276 1241 270 1240 b 250 1230 260 1236 254 1233 b 234 1215 245 1225 240 1221 l 98 1075 l 233 1075 b 249 1076 239 1075 245 1076 b 263 1078 254 1076 259 1077 b 277 1084 268 1080 272 1082 b 291 1093 281 1087 286 1089 l 497 1244 "},"´":{"x_min":31,"x_max":362,"ha":392,"o":"m 362 1016 l 195 1016 b 153 1006 176 1016 162 1012 b 129 979 144 1000 136 990 l 31 810 l 133 810 b 164 814 146 810 156 811 b 190 834 173 818 181 824 l 362 1016 "},"Ú":{"x_min":21.125,"x_max":1063.859375,"ha":1085,"o":"m 958 1005 l 772 1005 l 660 1005 l 660 922 b 695 878 660 897 672 884 b 706 877 697 878 701 877 b 729 873 710 876 718 875 b 772 866 740 871 754 869 l 772 402 b 756 298 772 364 766 329 b 710 219 745 267 731 241 b 638 169 691 197 667 180 b 542 151 610 156 578 151 b 444 169 506 151 473 156 b 373 219 416 180 392 197 b 328 299 353 241 338 268 b 313 403 317 330 313 364 l 313 866 b 355 873 330 869 344 871 b 378 877 366 875 374 876 b 389 878 383 877 387 878 b 424 922 412 884 424 897 l 424 1003 l 312 1003 l 126 1003 l 21 1003 l 21 922 b 55 878 20 897 32 884 b 64 877 57 878 60 877 b 85 873 68 876 74 875 b 126 866 94 871 108 869 l 126 402 b 154 236 126 343 135 287 b 237 105 173 186 201 142 b 368 19 273 68 317 40 b 542 -11 419 -1 477 -11 b 715 19 606 -11 664 -1 b 847 105 767 40 811 68 b 929 236 883 142 911 186 b 959 402 949 287 959 343 l 959 866 b 999 873 976 869 990 871 b 1020 877 1009 875 1016 876 b 1029 878 1024 877 1027 878 b 1063 922 1052 884 1063 897 l 1063 1003 l 958 1005 m 809 1243 l 618 1243 b 594 1242 609 1243 601 1243 b 577 1238 588 1241 582 1240 b 562 1229 572 1236 567 1233 b 547 1215 557 1226 552 1221 l 410 1075 l 545 1075 b 562 1076 551 1075 557 1076 b 576 1078 567 1076 572 1077 b 589 1084 581 1080 585 1082 b 603 1093 594 1087 599 1089 l 809 1243 "},"Ý":{"x_min":21.09375,"x_max":985.1875,"ha":1008,"o":"m 962 1003 l 937 1003 l 879 1003 l 797 1003 l 610 1003 l 610 922 b 644 878 609 897 621 884 b 651 877 646 878 648 877 b 664 873 653 876 658 875 b 684 868 669 872 676 870 l 552 626 b 524 570 541 607 532 588 b 504 517 517 552 510 535 b 483 570 497 534 490 552 b 455 626 474 588 465 606 l 321 868 b 341 873 328 870 335 872 b 355 877 347 875 352 876 b 361 878 357 877 360 878 b 396 922 384 884 396 897 l 396 1003 l 208 1003 l 125 1003 l 69 1003 l 44 1003 l 21 1003 l 21 922 b 55 878 20 897 32 884 b 64 877 57 878 60 877 b 85 873 68 876 74 875 b 125 865 94 871 108 869 l 410 389 l 410 137 b 369 129 392 134 378 131 b 348 126 358 128 351 127 b 339 125 344 125 341 125 b 304 81 316 119 304 105 l 304 0 l 410 0 l 596 0 l 701 0 l 701 81 b 667 125 701 105 690 119 b 658 126 665 125 662 125 b 637 129 654 127 647 128 b 597 137 627 131 613 134 l 597 389 l 880 865 b 920 873 897 869 910 871 b 941 877 931 875 937 876 b 950 878 944 877 948 878 b 985 922 973 884 985 897 l 985 1003 l 962 1003 m 772 1243 l 581 1243 b 557 1242 571 1243 563 1243 b 540 1238 550 1241 544 1240 b 524 1229 534 1236 529 1233 b 509 1215 519 1226 514 1221 l 373 1075 l 508 1075 b 524 1076 514 1075 519 1076 b 538 1078 529 1076 534 1077 b 551 1084 542 1080 547 1082 b 566 1093 555 1087 560 1089 l 772 1243 "},"ą":{"x_min":17.328125,"x_max":697.671875,"ha":723,"o":"m 560 -38 b 583 -17 567 -30 575 -23 b 610 0 592 -10 601 -5 l 610 0 l 697 0 l 697 82 b 662 126 697 106 685 120 b 610 135 653 127 651 128 l 610 451 b 593 562 610 491 605 528 b 541 649 581 596 564 625 b 458 706 519 673 491 692 b 347 726 426 720 388 726 b 50 614 231 726 132 689 l 81 559 b 102 537 87 550 93 543 b 132 528 111 531 120 528 b 170 537 145 528 158 531 b 208 559 181 544 194 551 b 256 582 222 568 238 575 b 325 592 274 588 297 592 b 413 557 364 592 393 580 b 443 449 433 533 443 497 l 443 407 b 240 386 363 407 294 400 b 108 334 186 372 142 355 b 38 262 76 312 52 289 b 17 182 24 237 17 210 b 32 98 17 151 22 123 b 75 38 43 74 57 54 b 140 1 93 21 115 10 b 224 -10 166 -6 194 -10 b 293 -3 249 -10 272 -7 b 352 14 314 0 334 6 b 406 45 371 23 389 33 b 459 88 424 58 441 71 l 474 37 b 495 7 479 21 486 11 b 511 2 500 4 505 2 l 510 2 b 435 -62 478 -17 453 -39 b 409 -135 418 -85 409 -110 b 446 -209 409 -166 422 -190 b 551 -238 471 -228 506 -238 b 624 -228 576 -238 601 -235 b 681 -202 646 -221 665 -213 l 654 -139 b 638 -128 652 -132 646 -128 b 631 -129 636 -128 634 -129 b 622 -133 628 -131 626 -131 b 608 -136 619 -134 614 -135 b 587 -138 603 -138 596 -138 b 550 -126 571 -138 559 -134 b 537 -93 542 -117 537 -106 b 543 -64 537 -83 539 -73 b 560 -38 547 -55 553 -47 m 443 183 b 406 150 431 170 419 160 b 368 126 394 141 381 132 b 326 112 355 120 341 115 b 277 108 311 109 295 108 b 208 127 249 108 226 114 b 181 191 190 140 181 162 b 194 235 181 207 186 221 b 238 269 202 248 217 259 b 318 293 258 278 285 287 b 443 303 351 299 393 303 l 443 183 "},"Ö":{"x_min":19,"x_max":1037.328125,"ha":1059,"o":"m 1037 502 b 1000 706 1038 575 1025 643 b 897 868 976 768 941 822 b 736 976 852 914 799 949 b 528 1015 674 1001 605 1015 b 320 976 453 1015 383 1001 b 159 869 258 950 204 915 b 55 706 115 823 80 768 b 19 502 30 643 19 575 b 55 297 19 428 30 359 b 159 134 80 234 115 180 b 320 27 204 89 258 52 b 528 -11 383 1 453 -11 b 736 27 605 -11 674 1 b 897 134 799 52 852 89 b 1000 297 941 180 976 234 b 1037 502 1025 359 1037 428 m 845 502 b 824 353 845 446 838 397 b 760 242 809 309 788 273 b 661 173 733 212 700 189 b 528 149 622 156 578 149 b 396 173 480 149 435 156 b 295 242 357 189 323 212 b 231 353 268 273 247 309 b 209 502 217 397 209 446 b 231 649 209 556 217 606 b 295 761 247 693 268 731 b 396 831 323 792 357 815 b 528 856 435 847 480 856 b 661 831 578 856 622 847 b 760 761 700 815 733 792 b 824 649 788 731 809 693 b 845 502 838 606 845 556 m 473 1157 b 465 1192 473 1169 471 1181 b 444 1222 460 1203 453 1214 b 414 1243 436 1230 425 1237 b 377 1251 402 1248 390 1251 b 343 1243 365 1251 354 1248 b 313 1222 332 1237 322 1230 b 294 1192 305 1214 299 1203 b 286 1157 289 1181 286 1169 b 294 1121 286 1144 289 1133 b 313 1092 299 1110 305 1101 b 343 1073 322 1084 332 1077 b 377 1066 354 1068 365 1066 b 414 1073 390 1065 402 1068 b 445 1092 425 1077 436 1083 b 466 1121 453 1101 460 1110 b 473 1157 471 1133 473 1144 m 774 1157 b 766 1192 774 1169 771 1181 b 746 1222 761 1203 755 1214 b 717 1242 738 1230 728 1237 b 680 1250 705 1248 693 1250 b 644 1242 667 1251 656 1248 b 615 1222 633 1237 623 1230 b 594 1192 606 1214 599 1203 b 588 1156 590 1181 588 1169 b 594 1121 588 1144 590 1132 b 615 1092 599 1110 606 1100 b 644 1072 623 1083 633 1077 b 681 1065 656 1068 667 1065 b 717 1072 693 1065 705 1068 b 746 1092 728 1077 738 1083 b 766 1121 755 1100 761 1110 b 774 1157 771 1132 774 1144 "},"z":{"x_min":25,"x_max":593.75,"ha":624,"o":"m 588 232 l 571 232 l 513 232 b 481 206 496 232 485 223 b 472 131 480 200 478 182 l 224 131 l 562 577 b 578 606 568 585 574 595 b 584 641 582 617 584 629 l 584 711 l 44 711 l 44 704 l 44 704 l 44 485 l 50 485 l 67 485 l 124 485 b 156 510 142 485 153 493 b 165 580 158 516 160 533 l 388 580 l 47 129 b 30 99 39 120 34 110 b 25 71 26 88 25 79 l 25 0 l 571 0 l 575 0 l 593 0 l 593 232 l 588 232 "},"™":{"x_min":29.8125,"x_max":927.46875,"ha":965,"o":"m 656 808 l 565 985 b 550 1001 561 994 556 1000 b 527 1004 545 1003 537 1004 l 425 1004 l 425 585 l 529 585 l 529 794 l 521 860 l 626 653 b 667 628 634 636 648 628 l 684 628 b 724 653 702 628 716 636 l 830 863 l 823 794 l 823 585 l 927 585 l 927 1004 l 825 1004 b 802 1001 815 1004 807 1002 b 787 985 796 999 791 994 l 694 808 b 683 784 691 800 687 792 b 674 759 680 776 678 767 b 666 783 672 767 669 775 b 656 808 664 792 660 799 m 375 1004 l 29 1004 l 29 907 l 143 907 l 143 585 l 262 585 l 262 907 l 375 907 l 375 1004 "},"ã":{"x_min":17.9375,"x_max":697.875,"ha":722,"o":"m 663 126 b 647 128 661 126 656 126 b 611 135 639 130 627 132 l 611 451 b 593 561 611 491 605 528 b 541 649 581 595 564 624 b 459 706 519 673 491 692 b 347 727 426 720 388 726 b 50 614 231 727 132 689 l 82 559 b 102 537 87 550 93 543 b 132 528 110 531 120 528 b 170 538 145 528 158 531 b 208 559 181 544 194 551 b 256 582 222 568 238 575 b 325 592 274 588 298 592 b 413 557 364 592 393 580 b 443 449 434 533 443 497 l 443 408 b 240 386 363 407 295 400 b 108 334 186 372 142 355 b 38 262 76 312 52 289 b 18 182 24 237 18 210 b 32 98 17 151 22 123 b 75 38 43 74 57 54 b 140 1 93 21 115 10 b 224 -10 166 -6 194 -10 b 293 -3 249 -10 272 -7 b 352 14 314 0 334 6 b 406 45 371 23 389 33 b 459 88 424 58 441 71 l 474 37 b 495 7 479 21 486 11 b 533 0 505 2 518 0 l 592 0 l 611 0 l 697 0 l 697 82 b 663 126 697 106 686 120 m 443 183 b 406 150 431 170 419 159 b 368 126 394 141 381 132 b 326 112 355 120 341 115 b 277 108 311 109 295 108 b 208 127 249 108 226 114 b 181 191 190 140 181 162 b 194 235 181 207 186 221 b 237 269 202 248 217 259 b 318 293 258 278 285 287 b 443 303 352 299 393 303 l 443 183 m 414 944 b 384 953 405 943 395 946 b 349 972 374 958 362 964 b 309 991 337 978 324 985 b 262 1001 295 997 279 1000 b 206 988 242 1001 223 996 b 160 953 188 980 173 968 b 130 898 147 937 137 919 b 119 828 123 877 119 854 l 225 828 b 237 869 225 847 229 861 b 268 882 245 877 255 881 b 299 872 278 882 288 878 b 334 853 310 866 321 860 b 374 834 346 846 360 839 b 420 825 388 827 404 825 b 478 836 441 824 461 828 b 522 871 495 845 510 856 b 552 925 535 886 545 905 b 563 996 559 946 563 970 l 458 996 b 447 955 458 976 455 962 b 414 944 439 947 428 944 "},"æ":{"x_min":18,"x_max":1059.296875,"ha":1083,"o":"m 776 723 b 637 693 723 723 676 713 b 538 611 598 673 565 645 b 460 695 520 646 494 674 b 329 726 426 715 382 726 b 179 697 274 726 224 716 b 51 613 135 678 92 650 l 82 558 b 102 535 87 549 94 541 b 132 526 111 529 120 526 b 170 537 146 526 158 530 b 208 560 181 544 194 551 b 256 583 222 568 238 576 b 326 595 274 590 298 594 b 413 558 364 595 393 582 b 444 449 433 533 444 496 l 444 425 b 240 400 363 423 295 414 b 108 345 186 385 142 367 b 38 271 76 323 52 298 b 18 190 24 244 18 217 b 33 103 18 157 22 128 b 78 40 43 78 58 56 b 148 2 97 23 120 10 b 242 -11 176 -6 207 -11 b 325 -3 270 -11 297 -8 b 404 22 353 2 379 10 b 471 65 428 33 451 47 b 523 129 492 83 508 104 b 630 23 551 80 587 45 b 772 -11 674 0 721 -11 b 846 -5 796 -11 821 -9 b 921 13 871 -1 896 4 b 993 49 946 22 970 34 b 1055 106 1015 65 1036 83 l 1010 164 b 995 176 1005 169 1001 173 b 974 180 989 179 982 180 b 946 171 964 180 955 176 b 914 151 938 165 927 158 b 865 131 901 143 885 136 b 788 122 846 124 820 122 b 664 170 737 122 696 138 b 606 321 632 202 612 252 l 1021 321 b 1040 323 1029 321 1035 321 b 1051 334 1045 325 1048 329 b 1057 354 1054 338 1056 345 b 1059 386 1059 362 1059 373 b 1037 527 1059 438 1052 485 b 978 633 1023 568 1003 604 b 888 700 953 662 923 684 b 776 723 853 715 816 723 m 443 321 l 443 289 b 431 206 443 257 439 229 b 397 149 422 182 411 163 b 346 117 383 134 365 124 b 282 107 326 110 305 107 b 208 129 251 107 226 113 b 181 199 190 143 181 167 b 194 243 181 214 186 229 b 237 279 202 256 217 268 b 318 306 258 290 285 299 b 443 321 351 313 393 318 m 768 600 b 830 585 792 600 812 595 b 873 546 848 576 862 563 b 898 490 885 529 893 510 b 907 424 904 468 907 446 l 606 424 b 655 554 612 479 629 523 b 768 600 682 584 719 600 "},"É":{"x_min":28.109375,"x_max":766,"ha":797,"o":"m 132 1005 l 28 1005 l 28 922 b 62 878 27 897 39 884 b 71 877 64 878 67 877 b 92 873 75 876 81 874 b 133 865 101 871 115 869 l 133 137 b 92 129 115 133 101 131 b 71 126 81 128 75 127 b 62 125 67 125 64 125 b 28 81 39 119 27 105 l 28 0 l 132 0 l 766 0 l 766 97 l 766 149 l 766 264 l 759 264 l 743 264 l 686 264 b 653 237 668 264 657 255 b 643 149 652 227 648 197 l 321 149 l 321 433 l 660 433 l 660 577 l 321 577 l 321 854 l 643 854 b 653 765 648 806 651 776 b 686 740 657 748 668 740 l 743 740 l 759 740 l 766 740 l 766 854 l 766 906 l 766 1003 l 132 1005 m 726 1243 l 535 1243 b 511 1242 526 1243 518 1243 b 494 1238 505 1241 499 1240 b 479 1229 489 1236 484 1233 b 463 1215 474 1226 469 1221 l 327 1075 l 462 1075 b 479 1076 468 1075 474 1076 b 493 1078 484 1076 488 1077 b 506 1084 497 1080 502 1082 b 520 1093 511 1087 516 1089 l 726 1243 "},"~":{"x_min":35,"x_max":704,"ha":740,"o":"m 483 450 b 435 459 468 449 452 452 b 378 480 417 466 398 472 b 314 502 358 488 336 495 b 244 512 292 508 268 511 b 155 495 211 512 181 506 b 89 447 129 484 107 468 b 48 373 71 426 58 402 b 35 276 39 344 35 312 l 173 276 b 194 346 172 306 179 330 b 254 372 208 363 228 372 b 302 362 269 372 285 368 b 359 340 320 355 339 348 b 423 319 379 332 401 326 b 493 310 445 312 469 310 b 583 326 527 310 556 315 b 648 373 608 337 630 353 b 689 448 666 394 679 418 b 704 545 699 477 703 509 l 566 545 b 544 475 566 514 558 491 b 483 450 529 458 509 450 "},"³":{"x_min":24,"x_max":398,"ha":424,"o":"m 221 1145 b 155 1135 198 1145 176 1141 b 99 1106 134 1129 116 1119 b 59 1057 83 1093 70 1076 b 37 988 48 1038 41 1015 l 100 978 b 119 976 107 977 113 976 b 141 982 128 976 135 978 b 155 1002 146 986 151 993 b 177 1032 160 1015 167 1024 b 216 1043 187 1039 199 1043 b 256 1028 234 1044 247 1038 b 270 988 265 1019 270 1005 b 265 961 270 979 268 970 b 250 942 262 954 257 948 b 220 930 243 937 233 932 b 172 925 208 927 192 926 l 172 844 b 221 841 192 844 208 844 b 252 830 234 839 244 836 b 269 810 260 826 265 819 b 274 779 271 802 273 791 b 257 737 274 763 268 749 b 209 720 246 726 230 720 b 183 724 199 720 190 721 b 164 735 176 727 169 731 b 150 750 158 739 153 744 b 140 766 146 755 143 761 b 105 785 133 779 121 785 b 77 780 96 786 87 784 l 24 758 b 54 693 32 732 42 711 b 94 650 65 675 79 661 b 148 626 110 639 128 631 b 215 619 167 621 190 619 b 281 628 237 619 259 622 b 340 659 303 635 322 645 b 382 710 356 673 370 689 b 398 784 392 731 397 755 b 376 851 398 812 390 834 b 313 889 361 867 340 880 b 370 936 339 900 358 916 b 388 1010 382 956 388 981 b 377 1060 388 1027 384 1044 b 345 1102 370 1076 359 1090 b 292 1133 330 1115 313 1125 b 221 1145 272 1140 248 1145 "},"¡":{"x_min":28,"x_max":237.53125,"ha":265,"o":"m 54 -233 l 216 -233 l 216 137 b 209 261 216 179 213 220 b 193 389 205 301 200 344 l 76 389 b 60 261 69 344 64 301 b 54 137 56 220 54 179 l 54 -233 m 28 619 b 35 578 28 604 30 590 b 57 545 41 565 48 554 b 91 523 66 535 77 528 b 132 515 103 517 117 515 b 173 523 147 515 161 517 b 206 545 186 528 197 535 b 229 578 216 554 223 565 b 237 619 234 590 237 604 b 229 660 237 634 234 648 b 206 693 223 673 216 684 b 173 715 197 703 186 710 b 131 723 161 721 147 723 b 90 715 117 723 103 721 b 57 693 77 710 66 703 b 35 660 48 684 41 673 b 28 619 30 648 28 634 "},"[":{"x_min":38,"x_max":323,"ha":344,"o":"m 38 -214 l 323 -214 l 323 -146 b 309 -116 323 -134 318 -124 b 277 -103 301 -107 290 -103 l 181 -103 l 181 962 l 277 962 b 309 975 290 962 301 967 b 323 1006 318 983 322 994 l 323 1073 l 38 1073 l 38 -214 "},"%":{"x_min":24,"x_max":1055,"ha":1078,"o":"m 489 760 b 471 866 489 799 482 834 b 422 945 459 897 443 924 b 348 996 401 967 376 984 b 255 1013 319 1008 288 1013 b 163 996 222 1013 190 1008 b 89 945 134 984 110 967 b 41 866 68 924 52 897 b 24 760 29 834 24 799 b 41 658 24 722 29 688 b 89 579 52 627 68 601 b 163 530 110 558 134 541 b 255 513 190 518 222 513 b 343 530 286 513 315 518 b 418 579 371 541 396 558 b 469 658 439 601 456 627 b 489 760 482 688 488 722 m 356 760 b 348 695 356 734 353 712 b 326 653 342 678 335 664 b 294 630 317 642 307 635 b 255 624 281 626 269 624 b 216 630 241 624 228 626 b 184 653 203 635 193 642 b 163 695 175 664 168 678 b 157 760 159 712 157 734 b 163 828 157 787 159 809 b 184 871 168 846 175 860 b 216 895 193 882 203 890 b 255 903 228 900 241 903 b 294 895 269 903 281 900 b 326 871 307 890 317 882 b 348 828 335 860 342 846 b 356 760 353 810 355 787 m 822 976 l 75 0 l 203 0 b 234 6 215 0 226 2 b 255 25 242 11 250 18 l 1002 1004 l 877 1004 b 842 995 862 1004 851 1001 b 822 976 834 990 827 983 m 1055 236 b 1037 341 1055 274 1048 309 b 988 421 1025 372 1009 398 b 914 470 968 442 943 459 b 822 489 886 482 855 489 b 729 470 788 489 757 482 b 656 421 701 459 677 442 b 607 341 635 398 619 372 b 590 236 596 309 591 274 b 607 133 590 197 596 164 b 656 55 619 103 635 76 b 729 5 677 33 701 17 b 821 -12 757 -6 788 -12 b 909 5 851 -12 881 -6 b 984 55 938 17 963 33 b 1035 133 1005 76 1023 103 b 1055 236 1048 164 1055 197 m 922 236 b 914 171 922 209 920 188 b 893 128 909 153 902 139 b 861 105 883 117 873 110 b 821 99 848 101 835 99 b 782 105 808 99 794 101 b 751 128 770 110 760 117 b 730 171 743 139 736 153 b 723 236 726 188 724 209 b 730 303 723 262 726 285 b 751 346 736 321 743 335 b 782 370 760 357 770 365 b 821 378 794 375 807 378 b 861 370 835 378 848 375 b 893 346 873 365 883 357 b 914 303 902 335 909 321 b 922 236 920 285 922 262 "},"P":{"x_min":28.109375,"x_max":833.1875,"ha":854,"o":"m 810 812 b 739 913 795 852 771 886 b 617 979 707 942 667 964 b 443 1003 569 995 510 1003 l 133 1003 l 28 1003 l 28 922 b 62 878 27 898 39 884 b 71 877 64 878 67 878 b 92 873 75 876 81 875 b 133 866 101 871 115 869 l 133 137 b 92 129 115 134 101 131 b 71 126 81 128 75 127 b 62 125 67 125 64 125 b 28 81 39 119 27 105 l 28 0 l 133 0 l 319 0 l 424 0 l 424 81 b 390 125 424 105 413 119 b 381 126 388 125 385 125 b 360 129 377 127 370 128 b 320 137 351 131 337 134 l 320 353 l 443 353 b 614 377 508 353 565 360 b 735 445 663 393 704 415 b 808 549 768 474 792 509 b 833 683 825 590 833 634 b 810 812 833 730 825 773 m 633 606 b 596 548 625 583 613 564 b 533 511 579 532 558 519 b 443 499 508 503 478 499 l 320 499 l 320 860 l 443 860 b 533 847 478 860 508 855 b 596 812 558 839 579 827 b 633 757 613 797 625 778 b 646 684 642 734 646 710 b 633 606 646 655 642 629 "},"∏":{"x_min":25.328125,"x_max":906.96875,"ha":931,"o":"m 906 1004 l 25 1004 l 25 860 l 142 860 l 142 -233 l 318 -233 l 318 860 l 614 860 l 614 -233 l 791 -233 l 791 860 l 906 860 l 906 1004 "},"_":{"x_min":47.21875,"x_max":594.4375,"ha":643,"o":"m 594 -93 l 47 -93 l 47 -204 l 594 -204 l 594 -93 "},"ñ":{"x_min":26.109375,"x_max":855.859375,"ha":882,"o":"m 821 125 b 812 126 819 125 816 125 b 791 129 808 127 801 128 b 751 137 782 131 768 134 l 751 452 b 735 562 751 493 745 529 b 689 647 724 595 709 624 b 614 703 669 671 644 690 b 511 722 584 716 549 722 b 444 716 486 722 464 720 b 387 696 424 711 405 704 b 336 664 370 687 352 677 b 291 624 320 653 306 640 l 279 680 b 236 711 273 701 258 711 l 131 711 l 26 711 l 26 631 b 60 587 25 606 37 592 b 69 586 62 587 65 586 b 90 582 73 585 79 583 b 131 574 99 580 113 578 l 131 137 b 90 129 113 134 99 131 b 69 126 79 128 73 127 b 60 125 65 125 62 125 b 26 81 37 119 25 105 l 26 0 l 130 0 l 302 0 l 407 0 l 407 81 b 372 125 407 105 396 119 b 364 126 370 125 367 125 b 343 129 360 127 353 128 b 303 137 333 131 320 134 l 303 515 b 376 570 325 538 350 556 b 459 590 401 583 429 590 b 548 554 499 590 528 578 b 579 453 568 531 579 497 l 579 0 l 750 0 l 855 0 l 855 81 b 821 125 855 105 844 119 m 514 944 b 484 953 505 943 495 946 b 450 972 474 958 462 964 b 409 991 437 978 423 985 b 362 1001 394 997 379 1000 b 305 988 342 1001 323 996 b 260 953 288 980 274 968 b 230 898 247 937 238 919 b 220 828 223 877 220 854 l 326 828 b 337 869 326 847 329 861 b 369 882 344 877 355 881 b 398 872 378 882 388 878 b 434 853 409 866 421 860 b 474 834 446 846 459 839 b 520 825 488 827 504 825 b 577 836 541 824 560 828 b 622 871 595 845 610 856 b 651 925 635 886 644 905 b 663 996 659 946 663 970 l 559 996 b 547 955 559 976 554 962 b 514 944 539 947 528 944 "},"‚":{"x_min":31.71875,"x_max":234,"ha":268,"o":"m 186 202 l 83 161 b 57 130 65 155 57 145 b 63 111 57 123 59 117 b 89 54 75 91 83 72 b 97 4 94 36 97 20 b 91 -37 97 -10 94 -24 b 78 -73 87 -50 83 -61 b 59 -102 72 -84 66 -93 b 40 -127 52 -111 46 -120 b 31 -149 34 -132 31 -140 b 34 -160 31 -152 32 -156 b 44 -170 35 -164 39 -168 l 97 -203 b 198 -86 141 -167 174 -128 b 234 45 222 -44 234 0 b 222 123 234 72 229 97 b 186 202 214 149 202 175 "},"Æ":{"x_min":24.96875,"x_max":1309,"ha":1339,"o":"m 1196 766 b 1228 740 1199 748 1211 740 l 1286 740 l 1302 740 l 1309 740 l 1309 907 l 1306 907 l 1306 1003 l 565 1003 l 562 1003 l 446 1003 l 446 922 b 481 878 446 898 457 884 b 488 877 482 878 485 878 b 497 876 492 876 495 876 l 120 134 b 52 106 81 118 59 109 b 24 70 34 98 24 86 l 24 0 l 52 0 l 182 0 l 193 0 l 205 0 l 363 0 l 363 70 b 336 106 363 86 354 98 b 301 120 332 107 320 112 l 362 247 l 723 247 l 737 133 b 700 127 721 131 709 129 b 686 125 692 125 687 125 b 651 81 663 119 651 105 l 651 0 l 754 0 l 756 0 l 1306 0 l 1306 97 l 1309 97 l 1309 264 l 1302 264 l 1286 264 l 1228 264 b 1196 237 1211 264 1199 255 b 1186 149 1194 227 1190 197 l 912 149 l 877 433 l 1203 433 l 1203 577 l 860 577 l 825 856 l 1186 856 b 1196 766 1190 806 1194 776 m 426 379 l 600 741 b 624 798 608 758 615 778 b 647 865 632 819 640 842 l 707 379 l 426 379 "},"ª":{"x_min":28,"x_max":403.4375,"ha":440,"o":"m 403 583 l 403 850 b 391 917 403 874 399 896 b 358 970 383 937 372 954 b 304 1005 343 985 325 996 b 234 1018 283 1013 261 1018 b 133 1001 198 1018 165 1012 b 48 949 103 990 74 973 l 69 910 b 83 893 73 903 78 898 b 106 886 89 889 97 886 b 131 891 116 886 124 888 b 153 902 138 894 145 898 b 181 913 161 906 170 910 b 219 918 190 917 203 918 b 267 903 240 918 256 913 b 284 849 278 892 283 874 l 284 832 b 159 817 233 831 192 826 b 80 785 126 809 100 798 b 39 742 61 772 47 757 b 28 694 31 726 28 710 b 37 644 28 675 30 659 b 63 607 43 630 52 617 b 104 584 74 598 88 590 b 157 577 119 580 137 577 b 198 580 172 577 185 578 b 233 591 210 583 222 587 b 264 608 243 596 254 601 b 296 632 274 615 284 623 l 304 607 b 319 587 308 597 313 590 b 345 582 326 584 334 582 l 403 583 m 195 661 b 158 670 179 661 167 664 b 145 700 150 675 145 686 b 151 721 145 708 147 715 b 174 738 155 728 163 733 b 215 750 184 743 198 747 b 283 756 233 753 256 755 l 283 700 b 242 671 269 687 256 677 b 195 661 229 664 213 661 "},"Œ":{"x_min":19,"x_max":1412.75,"ha":1446,"o":"m 801 1005 l 801 876 b 659 979 761 920 714 954 b 476 1016 605 1003 544 1016 b 289 977 408 1016 346 1002 b 144 869 233 951 184 915 b 51 706 104 823 73 769 b 19 501 29 643 19 575 b 51 297 19 428 29 359 b 144 134 73 234 104 180 b 289 28 184 89 233 53 b 476 -10 346 2 408 -10 b 659 26 544 -10 605 1 b 801 128 714 51 761 85 l 801 0 l 1412 0 l 1412 97 l 1412 149 l 1412 264 l 1407 264 l 1390 264 l 1332 264 b 1300 238 1315 264 1304 255 b 1290 149 1299 231 1296 210 l 967 149 l 967 433 l 1307 433 l 1307 577 l 967 577 l 967 855 l 1290 855 b 1300 766 1296 794 1299 773 b 1332 740 1304 749 1315 740 l 1390 740 l 1407 740 l 1412 740 l 1412 855 l 1412 907 l 1412 1003 l 801 1005 m 760 352 b 704 240 748 308 729 270 b 614 168 680 209 650 185 b 496 144 580 152 540 144 b 375 168 451 144 412 152 b 285 240 340 185 310 209 b 229 352 261 270 242 308 b 209 501 216 397 209 446 b 229 650 209 556 216 606 b 285 764 242 695 261 733 b 375 836 310 795 340 820 b 496 862 412 853 451 862 b 614 836 540 862 580 853 b 704 764 650 820 680 795 b 760 650 729 733 748 695 b 780 501 773 606 780 556 b 760 352 780 446 773 397 "},"Ą":{"x_min":23.34375,"x_max":1101.96875,"ha":1127,"o":"m 965 -39 b 988 -17 972 -31 980 -24 b 1015 0 997 -11 1006 -5 l 1052 0 l 1101 0 l 1101 70 b 1074 106 1101 90 1095 97 b 998 138 1065 109 1032 123 l 658 1003 l 467 1003 l 127 138 b 51 106 93 123 60 109 b 23 70 30 97 23 90 l 23 0 l 72 0 l 181 0 l 204 0 l 217 0 l 362 0 l 362 70 b 335 106 362 90 355 97 b 307 118 330 107 321 112 l 310 126 l 362 268 l 762 268 l 812 132 l 818 118 b 790 106 804 112 794 107 b 762 70 769 97 762 90 l 762 0 l 908 0 l 912 0 b 840 -64 881 -19 856 -40 b 814 -137 823 -87 814 -112 b 851 -211 814 -168 826 -192 b 956 -240 876 -230 910 -240 b 1029 -230 981 -240 1006 -237 b 1086 -204 1051 -223 1070 -215 l 1059 -141 b 1043 -130 1057 -134 1051 -130 b 1036 -131 1041 -130 1039 -130 b 1027 -135 1033 -133 1031 -133 b 1013 -138 1024 -136 1019 -137 b 992 -140 1008 -140 1001 -140 b 955 -128 976 -140 964 -136 b 942 -94 947 -119 942 -108 b 948 -65 942 -84 944 -75 b 965 -39 952 -56 958 -48 m 524 711 b 543 765 530 727 537 744 b 562 830 549 785 555 807 b 582 765 569 807 575 785 b 600 712 589 745 594 727 l 715 400 l 410 400 l 524 711 "},"T":{"x_min":22,"x_max":857,"ha":880,"o":"m 834 1005 l 834 1005 l 44 1005 l 42 1005 l 22 1005 l 22 766 l 27 766 l 44 766 l 101 766 b 133 792 119 766 130 775 b 140 851 135 800 138 819 l 345 851 l 345 137 b 304 129 328 134 314 131 b 283 126 295 128 288 127 b 275 125 280 125 277 125 b 240 81 251 120 240 105 l 240 0 l 345 0 l 532 0 l 638 0 l 638 81 b 602 125 638 105 626 120 b 594 126 601 125 597 125 b 573 129 590 127 583 128 b 532 137 563 131 549 134 l 532 851 l 737 851 b 744 792 740 819 743 800 b 777 766 747 775 759 766 l 834 766 l 850 766 l 857 766 l 857 1003 l 834 1005 "},"š":{"x_min":15.25,"x_max":547,"ha":566,"o":"m 499 573 l 538 635 b 438 699 512 661 478 683 b 304 724 397 715 353 724 b 188 705 260 724 221 717 b 104 658 154 694 126 678 b 52 589 81 639 64 616 b 35 506 41 563 35 535 b 50 425 35 474 40 448 b 90 369 60 403 73 384 b 146 331 106 354 125 341 b 211 305 167 321 188 312 b 275 284 233 298 254 291 b 331 264 296 278 315 271 b 371 236 348 255 361 246 b 386 195 381 225 386 211 b 379 162 386 184 384 172 b 359 135 375 152 368 143 b 323 115 349 127 337 120 b 270 109 308 111 291 109 b 206 118 244 109 223 111 b 162 137 189 123 175 130 b 129 156 150 144 139 150 b 99 166 119 162 109 166 b 72 159 88 166 79 163 b 54 141 66 155 59 149 l 15 76 b 63 41 29 63 45 52 b 123 13 81 30 101 21 b 190 -4 144 5 166 0 b 262 -11 214 -8 237 -11 b 384 6 308 -11 348 -5 b 473 55 419 18 449 34 b 528 130 497 76 515 101 b 547 225 540 159 547 191 b 531 299 547 254 541 278 b 492 351 522 319 508 336 b 436 387 475 366 457 377 b 373 413 415 397 394 405 b 309 433 350 420 330 427 b 253 455 288 439 269 446 b 213 482 236 462 223 471 b 198 521 203 492 199 505 b 227 577 198 544 208 562 b 307 599 246 591 273 599 b 363 592 329 599 348 596 b 406 576 379 587 393 581 b 439 560 418 570 429 564 b 465 553 449 555 457 553 b 485 558 474 553 480 555 b 499 573 490 560 495 566 m 385 811 l 544 1004 l 429 1004 b 411 1000 423 1004 417 1002 b 395 992 404 997 399 994 l 323 925 b 315 918 320 922 318 920 b 307 909 312 915 309 912 b 293 925 302 916 297 921 l 219 992 b 204 1000 215 994 210 997 b 184 1004 198 1002 191 1004 l 65 1004 l 224 811 l 385 811 "},"Þ":{"x_min":38,"x_max":754,"ha":776,"o":"m 225 181 l 364 181 b 535 205 430 181 486 188 b 656 273 584 221 624 244 b 729 377 688 302 713 337 b 754 512 745 418 754 463 b 731 641 754 558 746 601 b 660 742 715 679 692 714 b 539 808 628 770 587 792 b 365 832 489 823 431 831 l 225 832 l 225 1004 l 38 1004 l 38 0 l 225 0 l 225 181 m 225 327 l 225 688 l 364 688 b 454 675 398 688 428 683 b 517 640 479 667 500 656 b 554 585 533 625 546 606 b 567 512 562 562 567 538 b 554 434 567 483 562 457 b 517 376 546 411 533 392 b 454 339 500 360 479 347 b 364 327 428 331 398 327 l 225 327 "},"j":{"x_min":13.71875,"x_max":354,"ha":375,"o":"m 344 963 b 320 997 338 976 330 988 b 285 1021 310 1007 299 1015 b 242 1029 272 1026 257 1029 b 200 1021 227 1029 213 1026 b 166 997 187 1015 175 1007 b 142 963 156 988 148 976 b 133 919 137 949 133 935 b 142 878 133 905 137 891 b 166 844 148 865 156 853 b 200 821 176 834 187 826 b 242 812 213 815 227 812 b 285 821 258 812 272 815 b 320 844 299 826 310 834 b 344 878 330 853 338 865 b 354 919 350 891 354 905 b 344 963 353 935 350 949 m 156 711 l 51 711 l 51 630 b 85 586 51 606 63 592 b 94 585 88 586 91 586 b 115 581 98 584 105 583 b 156 574 125 579 139 577 l 156 -24 b 151 -70 156 -43 154 -58 b 136 -101 149 -83 143 -93 b 108 -118 129 -109 119 -114 b 65 -123 96 -121 81 -123 b 30 -127 47 -123 35 -124 b 18 -144 24 -129 20 -135 l 13 -236 b 56 -247 27 -241 42 -245 b 100 -250 69 -249 84 -250 b 206 -232 142 -250 177 -244 b 276 -184 235 -220 258 -204 b 315 -111 294 -163 307 -139 b 327 -24 324 -84 327 -55 l 327 713 l 156 711 "},"1":{"x_min":21.3125,"x_max":648.390625,"ha":672,"o":"m 620 114 b 467 128 612 116 560 120 l 467 1006 l 326 1006 l 21 745 l 74 670 b 92 657 78 665 84 661 b 117 651 99 652 108 651 b 135 654 123 651 129 652 b 153 664 142 655 148 659 l 298 785 b 296 714 297 760 297 736 l 296 129 b 121 114 189 121 130 116 b 93 79 102 110 93 98 l 93 0 l 365 0 l 376 0 l 648 0 l 648 79 b 620 114 648 98 639 110 "},"›":{"x_min":31,"x_max":291,"ha":319,"o":"m 113 87 l 291 362 l 291 384 l 113 659 l 57 633 b 31 595 39 625 31 612 b 40 565 31 586 33 575 l 135 402 b 157 373 141 390 149 380 b 135 344 150 366 142 356 l 39 180 b 31 151 33 170 31 160 b 37 129 31 143 33 136 b 57 113 41 122 47 118 l 113 87 "},"<":{"x_min":28.46875,"x_max":578.46875,"ha":611,"o":"m 28 502 l 28 433 l 578 145 l 578 268 b 571 293 578 277 575 285 b 548 313 566 300 559 307 l 296 443 b 262 456 285 448 274 452 b 225 468 250 461 238 464 b 262 478 238 470 250 474 b 296 493 274 482 285 487 l 548 622 b 571 641 559 627 566 634 b 578 667 575 649 578 657 l 578 789 l 28 502 "},"t":{"x_min":17.75,"x_max":503.640625,"ha":520,"o":"m 316 -11 b 417 4 351 -11 384 -6 b 503 52 449 15 478 31 l 452 135 b 441 146 448 140 444 143 b 429 150 438 149 434 150 b 416 146 425 150 421 149 b 402 138 412 143 407 141 b 383 130 396 136 390 133 b 357 127 376 127 367 127 b 312 145 338 127 323 133 b 296 197 301 158 296 175 l 296 584 l 483 584 l 483 706 l 296 706 l 296 930 l 206 930 b 181 922 196 930 188 927 b 168 901 174 917 170 910 l 132 706 l 17 687 l 17 620 b 27 593 17 607 20 598 b 51 584 34 586 42 584 l 124 584 l 124 186 b 174 41 124 124 140 75 b 316 -11 207 6 254 -11 "},"¬":{"x_min":36.859375,"x_max":652,"ha":692,"o":"m 36 530 l 36 403 l 507 403 l 507 206 l 652 206 l 652 530 l 36 530 "},"ù":{"x_min":18.125,"x_max":847.859375,"ha":874,"o":"m 813 125 b 743 137 802 126 802 127 l 743 711 l 571 711 l 571 711 l 467 711 l 467 630 b 501 586 467 606 478 592 b 571 574 511 585 512 584 l 571 197 b 497 142 548 173 523 155 b 415 123 472 129 444 123 b 324 158 375 123 344 134 b 295 259 304 182 295 216 l 295 711 l 123 711 l 123 711 l 18 711 l 18 630 b 52 586 17 606 29 592 b 123 574 63 585 63 584 l 123 259 b 138 150 123 219 127 183 b 184 64 149 116 164 88 b 259 8 204 40 230 21 b 363 -11 289 -4 324 -11 b 428 -4 386 -11 408 -8 b 486 16 449 0 468 7 b 536 47 504 24 520 34 b 582 88 552 59 567 73 l 593 31 b 637 0 600 10 615 0 l 743 0 l 847 0 l 847 81 b 813 125 847 105 836 119 m 377 1014 l 217 1014 l 388 833 b 412 814 396 824 404 818 b 444 809 420 811 431 809 l 541 809 l 442 977 b 418 1005 436 990 427 999 b 377 1014 409 1011 395 1014 "},"ï":{"x_min":18,"x_max":471,"ha":488,"o":"m 395 125 b 386 126 393 125 390 125 b 366 129 382 127 375 128 b 325 137 355 131 341 134 l 325 713 l 153 713 l 47 713 l 47 630 b 82 587 47 606 59 592 b 91 585 84 587 86 586 b 111 582 94 585 101 583 b 153 574 121 580 135 578 l 153 137 b 111 129 135 134 121 131 b 91 126 101 128 94 127 b 82 125 86 125 84 125 b 47 81 59 119 47 105 l 47 0 l 153 0 l 325 0 l 430 0 l 430 81 b 395 125 430 105 418 119 m 210 897 b 202 935 210 910 207 923 b 180 966 196 947 189 957 b 149 987 171 974 161 981 b 112 994 137 992 125 994 b 76 987 100 994 87 992 b 46 966 65 981 54 974 b 25 935 37 957 30 947 b 18 897 20 923 18 910 b 25 860 18 884 20 872 b 46 831 30 849 37 840 b 76 811 54 822 65 816 b 112 803 87 806 100 803 b 149 811 125 803 137 806 b 180 831 161 816 171 822 b 202 860 189 839 196 849 b 210 897 207 872 210 884 m 471 897 b 463 935 471 910 468 923 b 442 965 457 947 450 957 b 410 986 433 974 422 981 b 373 994 399 992 386 994 b 337 986 360 994 348 992 b 306 965 325 981 315 974 b 286 935 298 957 291 947 b 279 897 281 923 279 910 b 286 860 279 884 281 872 b 306 831 291 849 298 840 b 336 811 315 822 325 816 b 373 803 348 806 360 803 b 410 811 386 803 399 806 b 441 831 422 816 433 822 b 462 860 450 839 457 849 b 471 897 468 872 470 884 "},"Ò":{"x_min":19,"x_max":1037.328125,"ha":1059,"o":"m 1037 502 b 1000 706 1038 575 1025 643 b 896 868 976 768 941 822 b 736 976 852 914 798 949 b 528 1015 673 1001 604 1015 b 320 976 452 1015 383 1001 b 159 869 258 950 203 915 b 55 706 114 823 80 768 b 19 502 30 643 19 575 b 55 297 19 428 30 359 b 159 134 80 234 114 180 b 320 27 203 89 258 52 b 528 -11 383 1 452 -11 b 736 27 604 -11 673 1 b 896 134 798 52 852 89 b 1000 297 941 180 976 234 b 1037 502 1025 359 1037 428 m 845 502 b 823 353 845 446 838 397 b 760 242 809 309 788 273 b 661 173 733 212 700 189 b 528 149 622 156 577 149 b 395 173 479 149 435 156 b 295 242 356 189 323 212 b 231 353 267 273 246 309 b 209 502 217 397 209 446 b 231 649 209 556 217 606 b 295 761 246 693 267 731 b 395 831 323 792 356 815 b 528 856 435 847 479 856 b 661 831 577 856 622 847 b 760 761 700 815 733 792 b 823 649 788 731 809 693 b 845 502 838 606 845 556 m 430 1244 l 240 1244 l 446 1092 b 460 1083 452 1088 456 1085 b 472 1078 464 1080 468 1079 b 486 1076 477 1076 481 1076 b 504 1076 491 1076 497 1076 l 639 1076 l 502 1216 b 487 1230 497 1221 491 1225 b 472 1238 482 1233 477 1236 b 454 1242 466 1240 461 1241 b 430 1244 447 1243 440 1244 "},"&":{"x_min":24,"x_max":974.640625,"ha":994,"o":"m 440 1016 b 321 995 396 1016 355 1009 b 231 940 285 981 255 963 b 175 858 207 916 188 889 b 157 759 163 826 157 794 b 173 660 157 725 162 693 b 227 558 184 626 202 593 b 145 508 198 544 170 528 b 81 443 120 489 99 466 b 39 364 63 419 49 392 b 24 276 28 337 24 307 b 50 156 24 232 32 191 b 121 66 68 121 92 91 b 220 8 150 41 183 21 b 335 -11 257 -4 296 -11 b 511 19 398 -11 457 -1 b 660 104 565 39 615 68 l 729 33 b 746 17 735 26 740 21 b 764 7 751 13 757 9 b 782 2 769 4 776 3 b 806 1 789 1 797 1 l 974 1 l 764 218 b 837 371 796 264 820 316 b 864 546 854 427 863 485 l 756 546 b 731 537 745 546 737 543 b 721 511 725 530 721 521 b 703 412 718 478 712 444 b 666 320 693 380 681 349 l 399 597 b 360 641 384 612 371 627 b 335 681 350 655 342 668 b 321 720 328 694 323 707 b 317 760 318 732 317 746 b 325 807 317 777 319 792 b 349 847 330 823 338 836 b 388 874 360 858 373 867 b 440 885 403 881 421 884 b 483 877 456 885 471 882 b 516 857 496 872 506 866 b 539 829 525 849 532 840 b 555 795 546 818 551 807 b 570 774 559 785 564 778 b 592 768 576 770 583 768 l 596 768 b 601 769 597 767 598 768 l 710 792 b 686 875 707 820 699 848 b 632 947 673 901 655 926 b 549 997 609 968 581 984 b 440 1016 517 1009 480 1016 m 198 290 b 223 387 198 325 206 357 b 305 469 240 417 267 444 l 569 198 b 476 144 541 175 510 157 b 365 126 443 132 405 126 b 300 137 342 126 320 129 b 247 169 280 144 262 155 b 211 221 232 183 219 201 b 198 290 202 241 198 264 "},"˝":{"x_min":30.5625,"x_max":538.1875,"ha":569,"o":"m 295 1016 l 184 1016 b 141 1006 165 1016 151 1012 b 118 979 131 1000 124 990 l 30 810 l 100 810 b 133 814 113 810 124 811 b 157 834 141 818 150 824 l 295 1016 m 538 1016 l 414 1016 b 390 1013 404 1016 397 1014 b 373 1006 384 1011 378 1009 b 360 994 368 1002 364 998 b 348 979 356 990 352 984 l 225 810 l 306 810 b 338 815 319 810 329 811 b 363 834 345 819 354 825 l 538 1016 "},"I":{"x_min":28.109375,"x_max":425.859375,"ha":453,"o":"m 391 878 b 425 922 414 884 425 897 l 425 1003 l 320 1003 l 133 1003 l 28 1003 l 28 922 b 62 878 27 897 39 884 b 71 877 64 878 67 877 b 92 873 75 876 81 875 b 133 865 101 871 115 869 l 133 137 b 92 129 115 134 101 131 b 71 126 81 128 75 127 b 62 125 67 125 64 125 b 28 81 39 119 27 105 l 28 0 l 133 0 l 320 0 l 425 0 l 425 81 b 391 125 425 105 414 119 b 382 126 389 125 386 125 b 361 129 378 127 372 128 b 321 137 352 131 338 134 l 321 865 b 361 873 338 869 352 871 b 382 877 372 875 378 876 b 391 878 386 877 389 878 "},"G":{"x_min":19,"x_max":906.5,"ha":935,"o":"m 572 503 l 572 397 b 582 372 572 387 575 379 b 611 362 589 365 599 362 l 737 362 l 737 180 b 648 149 709 167 679 156 b 537 138 616 141 580 138 b 405 162 490 138 446 145 b 301 233 365 178 330 202 b 233 347 272 264 250 302 b 209 501 217 392 209 443 b 232 647 209 555 216 603 b 297 759 247 690 269 728 b 400 830 325 789 359 813 b 534 855 440 847 484 855 b 771 820 623 855 703 843 b 784 712 778 760 781 724 b 816 686 787 694 798 686 l 873 686 l 890 686 l 896 686 l 896 942 b 540 1014 766 990 648 1014 l 539 1014 b 531 1014 537 1014 534 1014 b 323 976 454 1013 385 1000 b 159 871 259 951 205 916 b 55 708 114 825 80 771 b 19 501 30 646 19 576 b 56 295 19 426 31 358 b 161 133 81 232 116 178 b 321 27 206 87 259 52 b 523 -11 382 1 450 -11 b 638 -4 564 -11 603 -8 b 739 15 674 0 707 6 b 827 48 770 23 799 34 b 906 97 855 62 881 78 l 906 502 l 572 503 "},"`":{"x_min":31,"x_max":357,"ha":388,"o":"m 191 1016 l 31 1016 l 202 834 b 227 815 211 825 218 818 b 258 809 235 811 245 809 l 357 809 l 257 978 b 233 1006 250 991 242 1000 b 191 1016 224 1012 210 1016 "},"·":{"x_min":35,"x_max":296.109375,"ha":333,"o":"m 35 413 b 44 362 35 395 37 377 b 72 321 51 347 60 333 b 114 293 84 309 98 300 b 164 284 129 286 146 284 b 216 293 182 283 200 286 b 257 321 232 300 246 309 b 285 362 269 333 278 347 b 296 412 292 377 296 394 b 285 464 296 430 292 448 b 257 505 278 480 269 493 b 216 533 246 517 232 526 b 164 543 200 540 182 543 b 113 533 146 544 129 540 b 72 505 98 526 84 517 b 44 464 60 493 51 480 b 35 413 37 448 35 431 "},"¿":{"x_min":26,"x_max":562.390625,"ha":586,"o":"m 562 -141 l 516 -69 b 481 -48 508 -55 497 -48 b 456 -57 473 -48 465 -51 b 424 -76 447 -63 436 -69 b 377 -95 411 -83 395 -90 b 311 -105 359 -102 337 -105 b 261 -97 292 -105 276 -102 b 221 -75 245 -92 232 -85 b 195 -41 210 -66 201 -54 b 186 3 188 -28 186 -13 b 201 63 186 26 190 47 b 239 106 211 80 224 94 b 288 140 254 119 270 130 b 338 172 306 149 322 160 b 376 210 353 183 365 195 b 391 263 386 224 391 242 l 391 269 b 390 276 391 272 390 274 l 379 390 l 261 390 l 245 289 b 224 250 242 274 235 261 b 181 218 212 239 198 228 b 130 184 165 207 148 196 b 79 140 112 172 94 157 b 41 77 64 122 51 101 b 26 -11 30 52 26 22 b 45 -109 26 -48 32 -80 b 100 -181 57 -137 76 -161 b 185 -227 124 -201 151 -216 b 295 -243 218 -238 255 -243 b 378 -235 324 -243 352 -240 b 449 -213 403 -229 426 -222 b 509 -180 470 -203 490 -193 b 562 -141 528 -168 545 -154 m 217 619 b 225 577 217 603 220 590 b 247 544 231 565 238 553 b 281 522 257 535 268 528 b 323 515 294 517 308 515 b 364 522 337 515 351 517 b 397 544 376 528 388 535 b 420 577 406 553 414 565 b 428 619 425 590 428 603 b 420 660 428 633 425 646 b 397 693 414 672 406 683 b 364 715 388 702 376 710 b 323 724 351 721 337 724 b 281 715 308 724 294 721 b 247 693 268 710 257 702 b 225 660 238 683 231 672 b 217 619 220 646 217 633 "},"ý":{"x_min":18.03125,"x_max":827.78125,"ha":849,"o":"m 786 711 l 786 711 l 648 711 b 647 711 648 712 648 711 l 480 711 l 480 630 b 515 586 480 606 492 591 b 561 578 524 585 526 584 l 458 310 b 443 272 452 298 448 285 b 431 233 439 260 435 247 b 422 272 429 247 425 260 b 409 310 418 285 413 298 l 297 581 b 329 586 319 585 322 585 b 364 630 353 591 364 606 l 364 711 l 208 711 b 208 711 208 712 208 712 l 58 711 l 58 711 l 18 711 l 18 630 b 52 586 17 606 29 591 b 118 574 63 585 59 585 l 346 51 l 213 -233 l 340 -233 b 377 -223 357 -233 370 -230 b 397 -196 386 -217 392 -208 l 727 574 b 793 586 786 585 782 585 b 827 630 815 591 827 606 l 827 711 l 786 711 m 677 1014 l 511 1014 b 469 1005 492 1014 478 1011 b 445 977 459 999 452 990 l 346 809 l 449 809 b 480 814 461 809 472 811 b 506 833 488 818 497 824 l 677 1014 "},"º":{"x_min":28,"x_max":483,"ha":512,"o":"m 256 1017 b 162 1001 222 1017 190 1011 b 91 957 135 991 110 976 b 44 889 71 939 55 916 b 28 798 33 862 28 831 b 44 705 28 763 33 732 b 91 635 55 677 71 654 b 162 591 110 615 135 601 b 256 576 190 580 222 576 b 348 591 289 576 320 580 b 419 635 375 601 400 615 b 466 705 439 654 455 677 b 483 798 477 732 483 763 b 466 889 483 831 477 862 b 420 957 455 916 439 939 b 348 1001 400 976 376 991 b 256 1017 320 1011 290 1016 m 256 676 b 184 705 223 675 199 685 b 162 796 168 724 162 755 b 184 887 162 837 168 867 b 256 916 199 906 223 916 b 325 887 287 916 310 906 b 349 796 341 868 349 837 b 325 705 349 755 341 724 b 256 676 310 685 287 676 "},"∞":{"x_min":31,"x_max":921.5625,"ha":953,"o":"m 693 161 b 780 179 723 161 752 166 b 853 230 808 191 832 208 b 903 308 874 252 891 278 b 921 410 916 339 921 373 b 903 511 921 446 916 480 b 853 589 891 542 874 567 b 780 641 832 612 808 628 b 693 660 752 653 723 660 b 623 649 668 660 644 656 b 565 621 602 642 583 632 b 517 580 547 609 531 595 b 476 530 502 564 488 547 b 435 580 463 547 450 564 b 386 621 420 595 404 609 b 329 649 369 632 350 642 b 259 660 308 656 284 660 b 172 641 229 660 199 653 b 99 589 144 628 120 612 b 49 511 78 567 61 542 b 31 410 36 480 31 446 b 49 309 31 373 36 340 b 99 230 61 278 78 252 b 172 179 120 208 144 191 b 259 161 199 166 229 161 b 329 171 284 161 308 164 b 387 199 350 178 369 187 b 436 240 404 210 420 224 b 477 290 450 256 463 272 b 517 240 489 272 502 256 b 566 199 531 224 547 210 b 623 171 583 187 602 178 b 693 161 644 164 668 161 m 266 299 b 228 305 252 299 240 301 b 196 324 216 309 205 315 b 174 359 186 333 179 345 b 166 410 168 373 166 390 b 174 460 166 430 168 446 b 196 495 179 474 186 486 b 228 515 205 504 216 511 b 266 522 240 519 252 522 b 305 512 279 522 293 518 b 340 489 318 507 329 499 b 371 453 351 478 361 467 b 400 410 381 440 391 425 b 371 366 391 394 381 380 b 340 330 361 352 351 340 b 305 307 329 321 318 312 b 266 299 293 301 280 299 m 686 299 b 646 307 672 299 659 301 b 612 330 634 312 623 321 b 581 366 601 340 591 352 b 552 410 571 380 561 394 b 581 453 561 425 571 440 b 612 489 591 467 601 478 b 646 512 623 499 634 507 b 686 522 659 518 672 521 b 724 515 700 522 712 519 b 756 495 736 511 747 504 b 778 460 766 486 772 474 b 786 410 784 446 786 430 b 779 359 786 390 784 373 b 756 324 773 345 766 333 b 725 305 747 315 737 309 b 686 299 712 301 700 299 "},"ź":{"x_min":25.421875,"x_max":594.171875,"ha":608,"o":"m 588 232 l 571 232 l 514 232 b 482 206 496 232 485 223 b 473 131 480 200 478 182 l 224 131 l 562 577 b 578 606 569 585 574 595 b 585 641 583 617 585 629 l 585 711 l 44 711 l 44 704 l 44 704 l 44 485 l 51 485 l 67 485 l 124 485 b 157 510 142 485 153 493 b 165 580 158 516 160 533 l 389 580 l 47 129 b 30 99 40 120 34 110 b 25 71 26 88 25 79 l 25 0 l 571 0 l 575 0 l 594 0 l 594 232 l 588 232 m 564 1014 l 397 1014 b 355 1005 378 1014 365 1011 b 331 977 346 999 338 990 l 233 809 l 335 809 b 367 814 348 809 358 811 b 392 833 375 818 383 824 l 564 1014 "},"ń":{"x_min":26.109375,"x_max":856.859375,"ha":882,"o":"m 822 125 b 813 126 820 125 817 125 b 792 129 809 127 802 128 b 752 137 783 131 769 134 l 752 452 b 736 562 752 493 746 529 b 690 647 725 595 710 624 b 615 703 669 671 644 690 b 511 722 585 716 550 722 b 444 716 487 722 465 720 b 387 696 424 711 405 704 b 336 664 370 687 352 677 b 291 624 320 653 306 640 l 280 680 b 236 711 273 701 258 711 l 131 711 l 26 711 l 26 631 b 60 587 25 606 37 592 b 69 586 62 587 65 586 b 90 582 73 585 79 583 b 131 574 99 580 113 578 l 131 137 b 90 129 113 134 99 131 b 69 126 79 128 73 127 b 60 125 65 125 62 125 b 26 81 37 119 25 105 l 26 0 l 131 0 l 302 0 l 407 0 l 407 81 b 372 125 407 105 396 119 b 364 126 370 125 368 125 b 343 129 360 127 353 128 b 303 137 334 131 320 134 l 303 515 b 376 570 325 538 350 556 b 459 590 402 583 429 590 b 549 554 499 590 529 578 b 580 453 569 531 580 497 l 580 0 l 751 0 l 856 0 l 856 81 b 822 125 856 105 845 119 m 685 1015 l 518 1015 b 476 1005 499 1015 485 1011 b 452 978 467 999 459 990 l 354 809 l 456 809 b 487 814 469 809 480 811 b 513 833 496 817 504 824 l 685 1015 "},";":{"x_min":30.140625,"x_max":240.6875,"ha":271,"o":"m 35 105 b 41 64 35 89 37 76 b 62 31 46 51 53 40 b 93 9 70 21 80 14 b 132 1 105 3 118 1 b 119 -37 130 -12 125 -25 b 98 -71 112 -50 105 -61 b 76 -99 91 -82 83 -91 b 57 -119 69 -108 62 -114 b 48 -132 53 -124 50 -128 b 44 -144 45 -137 44 -141 b 57 -170 44 -155 48 -163 l 87 -197 b 152 -133 111 -178 132 -157 b 200 -62 171 -110 187 -87 b 229 10 212 -37 222 -13 b 240 80 236 35 239 58 b 233 125 240 96 237 112 b 214 163 229 139 222 152 b 180 189 205 174 194 182 b 135 198 168 195 153 198 b 94 191 120 198 106 196 b 62 171 81 186 71 179 b 41 141 53 162 46 152 b 35 105 37 130 35 117 m 30 588 b 37 547 30 573 32 559 b 60 514 43 534 50 523 b 94 492 69 505 80 498 b 135 485 106 487 120 485 b 176 492 149 485 163 487 b 210 514 189 498 200 505 b 232 547 219 523 226 535 b 240 589 237 560 240 573 b 232 630 240 603 237 616 b 210 663 226 642 219 653 b 176 685 200 672 189 679 b 135 694 163 691 149 694 b 94 685 120 694 106 691 b 60 663 80 680 69 672 b 37 630 50 653 43 642 b 30 588 32 616 30 603 "},"6":{"x_min":26,"x_max":727.03125,"ha":752,"o":"m 431 627 b 357 618 404 627 379 624 b 294 595 335 613 314 605 b 311 617 300 602 306 610 b 330 639 317 623 323 631 l 628 1004 l 475 1004 b 419 991 454 1004 435 999 b 383 963 404 983 392 974 l 144 641 b 54 487 103 588 73 537 b 26 341 35 437 26 388 b 49 197 26 288 33 240 b 119 86 65 154 88 117 b 227 14 148 55 185 31 b 372 -11 270 -2 318 -11 b 517 14 424 -11 473 -2 b 629 87 561 33 598 56 b 701 194 660 117 684 153 b 727 326 718 235 727 279 b 702 457 727 376 718 419 b 636 551 685 494 663 526 b 541 608 608 576 577 595 b 431 627 505 620 468 627 m 189 315 b 203 387 189 341 194 365 b 240 446 211 410 224 429 b 296 485 255 462 274 475 b 371 499 319 494 344 498 b 446 486 399 499 424 494 b 504 449 469 478 488 465 b 542 391 521 433 533 414 b 555 313 551 368 555 342 b 541 240 555 287 551 262 b 503 181 532 218 520 198 b 444 142 486 164 467 152 b 368 128 421 133 396 128 b 291 142 339 128 313 133 b 235 180 269 151 251 164 b 201 239 220 196 209 216 b 189 315 194 262 189 287 "},"n":{"x_min":27.109375,"x_max":857.859375,"ha":884,"o":"m 823 125 b 814 126 821 125 818 125 b 793 129 810 127 803 128 b 753 137 784 131 770 134 l 753 452 b 737 562 753 493 747 529 b 691 647 726 595 711 624 b 616 703 670 671 645 690 b 512 722 586 716 551 722 b 445 716 488 722 466 720 b 388 696 425 711 406 704 b 337 664 371 687 353 677 b 292 624 321 653 307 640 l 281 680 b 237 711 274 701 259 711 l 132 711 l 27 711 l 27 631 b 61 587 26 606 38 592 b 70 586 63 587 66 586 b 91 582 74 585 80 583 b 132 574 100 580 114 578 l 132 137 b 91 129 114 134 100 131 b 70 126 80 128 74 127 b 61 125 66 125 63 125 b 27 81 38 119 26 105 l 27 0 l 132 0 l 303 0 l 408 0 l 408 81 b 373 125 408 105 397 119 b 365 126 371 125 369 125 b 344 129 361 127 354 128 b 304 137 335 131 321 134 l 304 515 b 377 570 326 538 351 556 b 460 590 403 583 430 590 b 550 554 500 590 530 578 b 581 453 570 531 581 497 l 581 0 l 752 0 l 857 0 l 857 81 b 823 125 857 105 846 119 "},"¤":{"x_min":24.859375,"x_max":678.140625,"ha":702,"o":"m 95 467 b 104 395 95 442 97 418 b 133 332 111 373 120 351 l 28 227 l 113 141 l 219 247 b 281 221 239 235 259 226 b 351 212 303 214 326 212 b 422 221 376 212 399 214 b 486 248 445 227 466 237 l 591 144 l 678 230 l 571 335 b 598 397 583 355 592 375 b 608 466 604 419 608 442 b 597 538 608 491 604 515 b 569 602 590 560 581 582 l 674 707 l 589 792 l 483 686 b 420 713 463 698 443 707 b 351 723 398 719 374 723 b 279 712 326 723 301 719 b 215 684 256 705 234 696 l 111 788 l 24 704 l 131 599 b 104 536 119 579 110 558 b 95 467 97 514 95 491 m 221 467 b 230 518 220 485 223 502 b 258 560 237 534 246 548 b 299 588 270 571 284 581 b 350 599 315 595 332 599 b 402 588 368 599 386 595 b 443 560 418 581 431 571 b 471 518 455 548 464 534 b 482 467 478 502 482 485 b 471 416 482 449 478 432 b 443 375 464 400 455 386 b 402 347 431 363 418 354 b 350 337 386 340 368 337 b 299 347 332 337 315 340 b 258 375 284 354 270 363 b 230 416 246 386 237 400 b 221 467 223 432 221 449 "},"∂":{"x_min":25,"x_max":740,"ha":767,"o":"m 190 926 l 227 861 b 246 839 234 850 240 842 b 265 833 252 835 259 833 b 292 839 272 833 281 835 b 327 855 302 844 314 849 b 370 870 341 860 355 866 b 420 877 386 875 402 877 b 487 862 445 877 467 872 b 539 814 507 851 525 835 b 572 737 553 794 564 768 b 584 627 580 705 584 669 l 584 601 b 583 574 585 592 584 583 b 502 642 562 603 534 626 b 386 667 471 659 432 667 b 243 637 335 667 287 657 b 128 557 198 618 160 592 b 52 436 96 523 70 482 b 25 285 34 389 25 339 b 46 162 25 239 31 198 b 106 69 61 125 81 94 b 199 9 132 43 163 23 b 316 -11 234 -4 273 -11 b 501 34 386 -11 448 3 b 634 164 554 64 598 108 b 713 366 669 220 695 287 b 740 628 730 445 740 532 b 717 789 740 688 732 742 b 657 910 703 837 683 877 b 563 986 630 944 599 969 b 444 1012 527 1004 487 1012 b 369 1007 416 1012 391 1011 b 304 990 346 1003 325 997 b 246 963 284 983 265 974 b 190 926 227 952 208 940 m 336 121 b 237 164 294 121 261 136 b 202 287 213 194 202 234 b 214 386 202 323 206 356 b 252 464 222 416 235 442 b 315 516 268 487 290 503 b 404 534 340 528 370 534 b 466 523 428 535 448 530 b 509 493 482 516 497 506 b 540 450 522 480 532 466 b 559 400 548 434 554 417 b 523 272 550 350 538 307 b 471 186 507 237 491 208 b 407 137 452 164 430 147 b 336 121 384 127 361 121 "},"p":{"x_min":18.109375,"x_max":778,"ha":801,"o":"m 758 516 b 704 630 746 561 728 600 b 621 700 681 661 653 684 b 515 725 589 717 554 725 b 384 694 465 725 421 715 b 285 614 347 674 314 647 l 272 680 b 256 704 269 691 264 699 b 228 711 249 709 239 711 l 123 711 l 18 711 l 18 630 b 52 586 17 605 29 591 b 61 585 54 586 57 585 b 82 581 65 584 71 583 b 123 574 91 579 105 577 l 123 -95 b 82 -103 105 -98 91 -101 b 61 -106 71 -104 65 -105 b 52 -108 57 -107 54 -108 b 18 -151 29 -113 17 -127 l 18 -233 l 123 -233 l 294 -233 l 399 -233 l 399 -151 b 364 -108 399 -127 388 -113 b 356 -106 362 -108 360 -107 b 335 -103 352 -105 345 -104 b 295 -95 326 -101 312 -98 l 295 59 b 370 8 317 37 342 20 b 472 -10 398 -4 432 -10 b 599 17 518 -10 560 0 b 694 96 636 36 668 62 b 756 214 721 129 741 168 b 778 361 771 259 778 308 b 758 516 778 419 771 471 m 589 254 b 555 179 581 223 569 199 b 502 135 540 159 523 144 b 432 120 481 125 457 120 b 358 134 405 120 380 124 b 295 184 335 144 314 160 l 295 504 b 364 567 316 531 340 551 b 456 589 390 582 421 589 b 516 576 479 589 499 585 b 562 537 534 568 549 555 b 590 467 574 519 584 496 b 601 361 597 438 601 402 b 589 254 601 320 596 284 "},"‡":{"x_min":25.828125,"x_max":717.859375,"ha":743,"o":"m 25 633 l 25 577 l 305 577 l 305 216 l 25 216 l 25 159 b 30 131 25 149 27 139 b 44 107 32 122 37 114 b 69 91 51 100 59 95 b 105 85 79 87 91 85 b 200 96 134 85 166 89 b 304 114 234 103 269 109 l 282 -224 b 371 -246 307 -239 337 -246 b 419 -240 388 -246 404 -244 b 460 -224 434 -237 447 -231 l 438 114 b 541 96 472 109 506 103 b 637 85 576 89 608 85 b 673 91 651 85 663 87 b 698 107 683 95 691 100 b 713 131 704 114 709 122 b 717 159 715 139 717 149 l 717 216 l 438 216 l 438 577 l 717 577 l 717 633 b 713 661 717 643 715 652 b 698 685 709 669 704 678 b 673 701 691 692 683 697 b 637 708 663 705 651 708 b 541 696 608 707 576 703 b 438 677 506 688 472 682 l 460 1017 b 419 1033 447 1023 434 1029 b 371 1039 404 1037 388 1039 b 282 1017 337 1039 307 1031 l 304 677 b 200 696 269 682 234 688 b 105 708 166 703 134 707 b 69 701 91 708 79 705 b 44 685 59 697 51 692 b 30 661 37 678 32 669 b 25 633 27 652 25 643 "},"√":{"x_min":22.921875,"x_max":862.5,"ha":881,"o":"m 171 446 l 336 0 l 480 0 l 862 1184 l 749 1184 b 718 1175 737 1184 727 1181 b 702 1152 710 1169 704 1161 l 434 300 b 420 250 428 283 424 266 b 412 204 417 234 414 219 b 402 262 409 223 406 243 b 387 320 398 282 393 301 l 316 536 b 299 559 313 546 307 554 b 267 568 290 566 279 568 l 22 568 l 22 514 b 41 461 22 489 29 471 b 86 445 54 450 69 445 l 171 446 "},"ę":{"x_min":20.703125,"x_max":670.3125,"ha":694,"o":"m 493 -131 b 486 -132 491 -131 489 -131 b 477 -135 483 -133 480 -134 b 463 -138 474 -136 469 -138 b 442 -140 458 -140 451 -140 b 405 -128 426 -140 414 -136 b 392 -95 397 -120 392 -109 b 398 -67 392 -85 394 -76 b 413 -41 402 -58 407 -50 b 435 -20 419 -34 426 -27 b 460 -3 443 -13 452 -8 b 569 32 498 3 534 15 b 664 105 605 49 637 73 l 614 167 b 582 183 607 178 597 183 b 550 174 572 184 561 181 b 510 152 539 167 526 160 b 458 131 495 144 478 137 b 385 122 437 124 413 122 b 249 173 329 122 284 138 b 190 333 215 207 196 260 l 630 333 b 650 337 639 333 645 335 b 662 347 655 339 659 342 b 668 367 665 352 667 359 b 670 399 670 376 670 387 b 647 537 670 451 662 497 b 583 639 632 577 611 611 b 486 702 556 666 523 687 b 363 724 449 716 407 723 b 219 696 309 724 261 714 b 111 620 176 677 140 652 b 44 508 82 588 59 551 b 20 371 28 465 20 420 b 45 212 20 311 29 258 b 114 94 62 165 85 126 b 217 19 143 62 177 37 b 347 -10 257 1 300 -7 b 285 -69 320 -28 300 -48 b 264 -138 272 -92 264 -114 b 301 -211 264 -168 276 -192 b 406 -240 326 -230 360 -240 b 478 -230 431 -240 455 -237 b 535 -204 501 -223 520 -215 l 509 -142 b 493 -131 507 -135 501 -131 m 365 601 b 432 587 391 601 413 596 b 479 552 451 579 467 567 b 507 500 492 537 501 520 b 516 438 513 481 516 460 l 194 438 b 248 558 202 489 220 529 b 365 601 276 586 315 601 "},"S":{"x_min":24,"x_max":680.953125,"ha":702,"o":"m 661 420 b 608 494 648 449 630 474 b 534 544 587 514 562 531 b 449 579 507 557 478 569 b 364 607 420 589 392 598 b 289 636 336 616 312 625 b 237 677 268 648 251 661 b 217 736 224 693 217 712 b 227 787 217 754 221 772 b 257 827 234 802 244 816 b 305 853 270 838 286 847 b 373 862 325 859 347 862 b 535 839 446 862 499 854 b 547 727 541 777 544 739 b 579 701 551 709 561 700 l 637 701 l 653 701 l 659 701 l 659 957 b 371 1014 566 995 469 1014 b 231 990 319 1014 272 1007 b 128 925 191 974 156 952 b 64 833 101 899 79 868 b 42 726 50 798 42 763 b 62 611 42 680 49 642 b 114 532 76 579 93 553 b 189 482 137 511 161 495 b 274 448 217 469 245 458 b 358 423 302 439 330 431 b 433 394 386 415 411 405 b 485 352 455 383 472 368 b 505 287 499 335 505 314 b 461 179 505 240 490 204 b 337 141 432 154 391 141 b 148 159 251 141 188 147 b 135 274 142 223 137 261 b 103 300 132 291 121 300 l 46 300 l 29 300 l 24 300 l 24 66 l 24 41 b 312 -11 126 7 222 -11 b 332 -11 319 -11 326 -11 b 480 14 387 -11 437 -2 b 589 83 523 30 560 54 b 658 186 619 112 642 147 b 680 314 673 226 680 268 b 661 420 680 355 674 391 "},"/":{"x_min":20.140625,"x_max":585.421875,"ha":606,"o":"m 183 -2 l 585 1032 l 512 1032 b 459 1016 491 1032 474 1026 b 425 971 444 1005 433 991 l 20 -65 l 92 -65 b 119 -61 100 -65 109 -64 b 145 -49 128 -58 137 -55 b 168 -29 154 -44 161 -38 b 183 -2 174 -22 179 -13 "},"y":{"x_min":18.03125,"x_max":827.78125,"ha":849,"o":"m 786 711 l 786 711 l 648 711 b 647 711 648 712 648 711 l 480 711 l 480 630 b 515 586 480 606 492 591 b 561 578 524 585 526 584 l 458 310 b 443 272 452 298 448 285 b 431 233 439 260 435 247 b 422 272 429 247 425 260 b 409 310 418 285 413 298 l 297 581 b 329 586 319 585 322 585 b 364 630 353 591 364 606 l 364 711 l 208 711 b 208 711 208 712 208 712 l 58 711 l 58 711 l 18 711 l 18 630 b 52 586 17 606 29 591 b 118 574 63 585 59 585 l 346 51 l 213 -233 l 340 -233 b 377 -223 357 -233 370 -230 b 397 -196 386 -217 392 -208 l 727 574 b 793 586 786 585 782 585 b 827 630 815 591 827 606 l 827 711 l 786 711 "},"≈":{"x_min":33.328125,"x_max":620.828125,"ha":653,"o":"m 474 622 b 411 632 454 621 433 625 b 342 656 388 639 365 647 b 270 679 318 664 295 672 b 197 691 245 686 221 690 b 149 686 180 691 164 689 b 104 673 133 684 118 679 b 64 650 89 667 76 659 b 33 617 52 640 41 629 l 58 512 b 75 527 61 516 67 521 b 104 543 84 533 93 538 b 143 556 115 548 129 552 b 186 562 156 559 171 562 b 250 550 206 562 227 557 b 318 527 272 543 294 535 b 389 502 341 517 365 509 b 463 492 413 495 438 492 b 551 508 493 492 522 496 b 620 559 579 519 602 536 l 600 668 b 582 654 596 664 590 659 b 553 638 574 648 564 643 b 515 626 542 633 529 629 b 474 622 502 623 488 622 m 474 375 b 411 385 454 374 433 378 b 342 409 388 392 365 400 b 270 432 318 417 295 425 b 197 444 245 439 221 443 b 149 439 180 444 164 442 b 104 426 133 437 118 432 b 64 403 89 420 76 412 b 33 370 52 393 41 382 l 58 265 b 75 280 61 270 67 274 b 104 296 84 286 93 291 b 143 309 115 301 129 305 b 186 315 156 312 171 315 b 249 303 206 315 227 310 b 318 280 271 296 294 288 b 389 255 341 270 365 262 b 462 245 413 248 438 245 b 550 261 493 245 522 249 b 620 312 579 272 602 289 l 599 421 b 582 407 596 417 590 412 b 553 391 574 401 564 396 b 515 379 542 386 529 382 b 474 375 502 376 488 375 "},"g":{"x_min":15,"x_max":696.0625,"ha":717,"o":"m 331 725 b 217 709 290 725 252 719 b 128 662 182 697 153 682 b 68 589 102 642 82 618 b 48 494 54 561 48 529 b 78 380 48 450 57 412 b 163 302 99 348 127 322 b 123 275 147 294 134 285 b 94 243 111 266 101 255 b 77 210 86 232 80 221 b 72 177 73 199 72 188 b 87 114 72 151 76 130 b 130 75 98 98 112 84 b 45 21 94 62 65 44 b 15 -62 24 -1 15 -29 b 34 -133 15 -87 21 -110 b 92 -193 46 -155 66 -176 b 192 -235 119 -210 151 -224 b 333 -251 231 -245 279 -251 b 479 -229 387 -251 436 -243 b 586 -173 521 -215 557 -196 b 654 -94 616 -150 639 -123 b 678 -3 669 -64 677 -34 b 657 80 678 30 671 58 b 605 130 644 101 627 118 b 532 158 584 143 560 152 b 448 170 505 163 477 168 b 364 175 419 172 391 174 b 290 179 336 175 312 177 b 238 194 269 182 251 187 b 219 225 225 201 219 211 b 252 270 219 242 230 257 b 331 263 277 266 304 264 b 441 279 370 263 407 268 b 530 325 475 291 505 306 b 588 398 555 345 574 370 b 610 493 602 427 609 459 b 605 536 610 509 608 523 b 595 574 603 550 599 562 l 659 586 b 687 598 672 589 682 593 b 696 623 693 604 696 613 l 696 687 l 491 687 b 417 715 469 700 444 709 b 331 725 390 721 361 725 m 520 -32 b 509 -70 520 -46 516 -58 b 476 -101 502 -82 491 -92 b 418 -121 460 -109 441 -116 b 336 -128 395 -126 368 -128 b 256 -121 304 -128 277 -126 b 202 -103 234 -117 216 -111 b 173 -75 188 -95 179 -86 b 164 -40 166 -64 164 -53 b 181 10 164 -21 169 -4 b 228 47 192 24 208 37 b 294 42 248 44 271 43 b 361 38 317 40 339 39 b 422 32 382 37 402 35 b 473 22 441 30 458 27 b 507 1 487 17 499 10 b 520 -32 515 -6 520 -18 m 331 373 b 275 382 310 373 291 376 b 235 406 259 387 245 395 b 211 443 224 416 217 429 b 204 489 206 457 204 473 b 235 573 204 525 214 552 b 331 604 256 594 288 604 b 425 573 372 605 404 594 b 458 489 446 552 458 525 b 449 442 458 473 455 457 b 425 405 444 428 436 416 b 386 382 415 395 402 387 b 331 373 370 376 352 373 "},"²":{"x_min":28.0625,"x_max":403.421875,"ha":434,"o":"m 399 770 l 390 770 l 356 770 b 337 754 346 770 339 765 b 335 735 336 752 335 745 l 272 735 b 237 732 262 735 250 734 b 199 723 225 730 212 727 l 288 813 b 328 854 302 827 315 841 b 361 896 340 868 351 882 b 383 941 370 911 378 926 b 393 993 389 957 393 974 b 381 1053 392 1015 388 1035 b 348 1100 374 1071 363 1087 b 294 1132 333 1114 315 1124 b 222 1144 274 1140 249 1144 b 93 1106 171 1144 128 1131 b 30 988 59 1081 38 1041 l 98 977 b 107 977 102 977 105 977 b 114 976 110 977 112 976 b 139 982 125 976 134 978 b 155 1001 145 986 150 992 b 179 1034 162 1015 169 1026 b 215 1045 188 1042 200 1045 b 253 1030 232 1045 244 1040 b 266 989 262 1020 266 1006 b 261 956 266 979 265 967 b 245 922 257 945 252 933 b 221 888 239 911 231 899 b 192 856 212 877 203 866 l 47 713 b 32 688 40 706 35 697 b 28 663 29 680 28 672 l 28 624 l 403 624 l 403 633 l 403 697 l 403 770 l 399 770 "},"ë":{"x_min":20.421875,"x_max":671,"ha":693,"o":"m 362 724 b 219 696 309 724 261 714 b 111 620 176 677 140 652 b 44 508 82 588 59 551 b 20 371 28 465 20 420 b 47 206 20 309 29 253 b 121 87 65 159 89 119 b 232 14 153 55 189 30 b 370 -10 275 -2 321 -10 b 448 -4 395 -10 421 -8 b 526 14 474 0 500 5 b 600 50 552 23 576 35 b 664 106 623 65 645 84 l 614 169 b 601 181 610 174 606 178 b 583 185 596 183 590 185 b 550 175 572 185 561 181 b 510 154 539 168 525 161 b 457 132 495 145 478 138 b 386 123 437 125 414 123 b 250 174 329 123 284 139 b 191 335 215 208 196 261 l 631 335 b 650 337 639 335 645 335 b 662 348 655 339 659 343 b 668 368 665 352 667 359 b 671 400 670 376 671 387 b 648 537 671 452 663 497 b 584 639 632 577 611 611 b 486 702 556 666 523 687 b 362 724 448 716 407 723 m 366 601 b 432 587 391 601 413 596 b 480 552 451 579 467 567 b 507 500 492 537 501 520 b 517 438 513 481 517 460 l 194 438 b 248 558 202 489 220 529 b 366 601 276 586 316 601 m 332 897 b 325 935 332 910 330 923 b 303 966 319 946 312 957 b 272 987 294 974 284 981 b 235 994 260 992 248 994 b 199 987 223 994 210 992 b 169 966 188 981 178 974 b 148 935 160 957 153 946 b 141 897 143 923 141 910 b 148 860 141 884 143 871 b 169 831 153 849 160 839 b 199 811 178 823 188 816 b 235 804 210 806 223 804 b 272 811 248 804 260 806 b 303 831 284 816 294 823 b 325 860 312 839 319 849 b 332 897 330 871 332 884 m 592 897 b 584 935 592 910 589 923 b 564 966 579 946 572 957 b 532 987 555 974 544 981 b 496 994 521 992 508 994 b 459 987 482 994 470 992 b 428 966 447 981 437 974 b 408 935 420 957 413 946 b 401 897 403 923 401 910 b 408 860 401 884 403 871 b 428 831 413 849 420 839 b 459 811 437 823 447 816 b 496 804 470 806 482 804 b 532 811 508 804 521 806 b 564 831 544 816 555 823 b 584 860 572 839 579 849 b 592 897 589 871 591 884 "},"–":{"x_min":39.578125,"x_max":602.78125,"ha":642,"o":"m 39 478 l 39 356 l 602 356 l 602 478 l 39 478 "},"ƒ":{"x_min":15.28125,"x_max":659.71875,"ha":683,"o":"m 437 517 l 652 517 l 652 639 l 448 639 l 461 737 b 479 803 464 762 470 785 b 510 847 487 821 497 835 b 552 871 522 858 536 865 b 605 879 568 876 586 879 b 646 889 624 879 638 882 b 659 927 654 896 659 909 l 659 1021 b 400 950 545 1021 459 997 b 295 741 341 903 306 834 l 282 639 l 143 639 l 143 568 b 181 526 143 545 155 531 l 267 513 l 209 43 b 193 -22 206 17 200 -4 b 163 -66 184 -40 175 -54 b 121 -90 150 -77 136 -85 b 70 -98 105 -95 88 -98 b 15 -150 33 -98 15 -116 l 15 -240 b 164 -224 72 -240 121 -235 b 273 -174 207 -213 243 -196 b 344 -87 303 -151 327 -122 b 379 39 361 -52 373 -10 l 437 517 "},"J":{"x_min":22.921875,"x_max":606.9375,"ha":628,"o":"m 501 1005 l 314 1005 l 196 1005 l 196 922 b 231 879 196 898 208 884 b 243 877 233 879 237 878 b 270 874 249 876 258 875 b 314 866 282 872 297 870 l 314 352 b 304 255 314 314 311 281 b 273 190 297 228 287 207 b 222 154 259 174 243 161 b 152 143 202 146 178 143 b 104 147 132 143 116 144 b 72 152 91 150 81 152 b 43 142 60 152 50 148 b 31 118 36 136 33 128 l 22 7 b 97 -6 48 0 74 -4 b 171 -11 122 -9 147 -11 b 315 14 226 -11 274 -2 b 418 88 356 31 390 56 b 480 204 446 120 466 158 b 501 357 494 249 501 300 l 501 866 b 543 874 518 870 532 872 b 563 877 552 875 559 876 b 572 879 567 878 570 879 b 606 922 595 884 606 898 l 606 1005 l 501 1005 "},"Ã":{"x_min":23.46875,"x_max":1101.109375,"ha":1127,"o":"m 1074 106 b 997 138 1067 109 1041 119 l 657 1003 l 466 1003 l 126 138 b 50 106 83 120 58 109 b 23 70 32 98 23 86 l 23 0 l 72 0 l 181 0 l 204 0 l 217 0 l 362 0 l 362 70 b 334 106 362 86 353 98 b 306 118 331 107 322 111 l 310 126 l 362 268 l 762 268 l 812 132 l 817 118 b 790 106 802 111 792 107 b 762 70 771 98 762 86 l 762 0 l 907 0 l 919 0 l 943 0 l 1051 0 l 1101 0 l 1101 70 b 1074 106 1101 86 1092 98 m 524 711 b 542 765 530 727 536 744 b 561 830 549 785 555 806 b 581 765 568 806 574 785 b 599 712 587 745 594 727 l 714 400 l 410 400 l 524 711 m 646 1179 b 614 1186 637 1179 626 1182 b 575 1203 602 1192 589 1198 b 530 1220 561 1209 546 1215 b 481 1227 515 1225 498 1227 b 426 1216 461 1227 443 1224 b 385 1184 410 1209 397 1198 b 358 1134 374 1170 365 1154 b 349 1071 353 1115 349 1094 l 444 1071 b 456 1106 445 1087 449 1098 b 485 1117 463 1113 473 1117 b 519 1109 495 1118 506 1115 b 558 1092 531 1104 544 1099 b 603 1076 572 1087 587 1081 b 651 1068 618 1071 634 1069 b 706 1080 671 1068 690 1072 b 747 1111 723 1087 736 1098 b 773 1159 758 1125 767 1141 b 782 1223 779 1179 782 1200 l 689 1223 b 677 1190 689 1208 685 1197 b 646 1179 669 1183 659 1180 "},"©":{"x_min":26,"x_max":1050.96875,"ha":1077,"o":"m 694 355 b 667 343 684 352 675 348 b 640 328 659 338 650 333 b 603 315 630 323 618 319 b 547 310 589 311 570 310 b 483 322 524 310 502 314 b 432 359 464 330 446 343 b 398 420 418 376 407 396 b 386 504 390 444 387 472 b 398 585 386 533 390 561 b 432 646 406 608 417 629 b 488 685 448 662 466 676 b 562 699 509 694 534 699 b 620 692 585 699 605 696 b 657 676 634 687 646 682 b 682 661 666 671 675 665 b 704 654 688 656 696 654 b 723 660 712 653 718 656 b 733 671 727 663 730 667 l 778 732 b 686 799 753 759 723 782 b 553 825 649 816 605 825 b 427 801 507 825 466 816 b 326 734 388 785 355 763 b 259 633 297 706 275 672 b 235 504 242 594 235 551 b 255 376 234 458 241 415 b 317 274 270 337 291 303 b 413 206 344 245 375 222 b 539 182 450 189 493 182 b 678 207 592 182 639 190 b 776 283 717 225 750 250 l 719 343 b 709 352 716 347 713 350 b 694 355 705 354 700 355 m 26 502 b 44 365 26 454 31 408 b 96 243 56 322 73 281 b 175 140 118 206 144 171 b 280 60 207 108 241 82 b 402 8 317 37 358 20 b 538 -10 445 -4 491 -10 b 674 8 585 -10 630 -4 b 797 60 718 20 759 37 b 900 140 834 82 869 108 b 981 243 932 171 959 206 b 1032 365 1003 281 1020 322 b 1050 502 1045 409 1050 454 b 1032 638 1050 549 1045 594 b 980 760 1020 681 1003 722 b 900 864 958 798 932 833 b 796 944 869 895 834 922 b 674 996 759 967 718 983 b 537 1015 630 1008 584 1014 b 401 996 490 1015 445 1008 b 279 944 358 983 317 967 b 175 864 241 922 207 895 b 95 760 144 833 117 798 b 44 638 73 722 56 681 b 26 502 31 594 26 549 m 119 502 b 133 617 119 542 123 580 b 175 721 143 654 157 689 b 240 808 193 753 215 782 b 324 876 265 835 294 857 b 425 919 355 894 389 909 b 538 935 461 929 498 934 b 651 919 577 935 615 929 b 752 876 687 909 721 894 b 837 808 782 857 811 835 b 903 721 862 782 884 753 b 944 617 921 689 935 654 b 960 502 954 580 960 542 b 926 333 960 441 948 385 b 837 196 905 280 875 235 b 703 105 799 157 754 127 b 538 72 652 83 596 72 b 373 105 479 72 424 83 b 240 196 322 127 278 157 b 151 333 203 235 173 280 b 119 502 130 385 119 441 "},"˘":{"x_min":35,"x_max":454,"ha":488,"o":"m 244 806 b 343 821 283 806 316 810 b 408 864 370 831 391 846 b 443 926 424 881 436 903 b 454 1003 450 951 454 977 l 334 1003 b 329 965 334 989 332 977 b 315 938 327 954 322 945 b 288 920 309 930 300 924 b 244 913 277 915 262 913 b 200 920 226 913 211 915 b 172 938 188 924 179 930 b 158 965 165 945 161 954 b 155 1003 155 977 155 989 l 35 1003 b 45 926 35 977 38 951 b 80 863 52 903 63 881 b 144 821 96 845 118 831 b 244 806 170 810 204 806 "},"≥":{"x_min":34.03125,"x_max":584.03125,"ha":611,"o":"m 584 583 l 34 846 l 34 729 b 41 703 34 719 36 711 b 71 681 46 694 56 687 l 315 571 b 352 558 327 566 339 562 b 394 548 365 555 379 551 b 352 538 379 545 365 542 b 315 525 339 534 327 530 l 72 413 b 41 391 56 406 47 398 b 34 365 36 383 34 374 l 34 248 l 584 514 l 584 583 m 584 56 l 584 183 l 34 183 l 34 56 l 584 56 "},"D":{"x_min":28.109375,"x_max":1009.203125,"ha":1031,"o":"m 972 705 b 868 863 948 766 913 818 b 708 966 824 907 771 941 b 500 1003 646 991 577 1003 l 133 1003 l 28 1003 l 28 922 b 62 878 27 898 39 884 b 71 877 64 878 67 878 b 92 874 75 876 81 875 b 133 866 101 871 115 869 l 133 137 b 92 129 115 134 101 132 b 71 126 81 128 75 127 b 62 125 67 125 64 125 b 28 81 39 119 27 105 l 28 0 l 132 0 l 500 0 b 708 36 577 0 646 11 b 868 140 771 61 824 95 b 972 299 913 184 948 237 b 1009 502 997 360 1009 428 b 972 705 1009 576 997 643 m 796 353 b 732 242 781 310 760 273 b 633 173 705 212 672 189 b 500 149 594 156 550 149 l 321 149 l 321 855 l 500 855 b 633 831 550 856 594 847 b 732 761 672 815 705 792 b 796 650 760 730 781 694 b 818 502 811 606 818 557 b 796 353 818 446 811 397 "},"ÿ":{"x_min":17.421875,"x_max":827.421875,"ha":849,"o":"m 785 711 l 785 711 l 648 711 b 647 711 648 712 648 711 l 480 711 l 480 630 b 514 586 480 606 491 591 b 561 578 523 585 525 584 l 457 310 b 443 272 452 298 448 285 b 431 233 439 260 434 247 b 421 272 428 247 425 260 b 408 310 417 285 413 298 l 296 581 b 329 586 318 585 321 585 b 363 630 352 591 363 606 l 363 711 l 207 711 b 207 711 207 712 207 712 l 57 711 l 57 711 l 17 711 l 17 630 b 52 586 16 606 28 591 b 117 574 62 585 58 585 l 345 51 l 212 -233 l 340 -233 b 377 -223 356 -233 369 -230 b 397 -196 385 -217 391 -208 l 727 574 b 792 586 785 585 782 585 b 827 630 815 591 827 606 l 827 711 l 785 711 m 402 896 b 395 934 402 910 400 922 b 373 965 389 946 382 956 b 342 986 364 974 354 981 b 305 993 330 991 318 993 b 269 986 293 994 281 991 b 239 965 258 981 247 974 b 218 934 230 956 223 946 b 211 896 213 922 211 910 b 218 860 211 884 213 871 b 239 830 223 849 230 839 b 269 811 247 822 258 815 b 305 803 281 806 293 803 b 342 811 318 803 330 806 b 373 830 354 815 364 822 b 395 860 382 838 389 849 b 402 896 400 871 402 884 m 662 896 b 655 934 662 910 660 922 b 634 965 649 946 642 956 b 603 986 625 974 614 981 b 566 993 591 991 578 993 b 529 986 553 994 540 991 b 498 965 517 981 507 974 b 478 934 490 956 483 946 b 471 896 473 922 471 910 b 478 860 471 884 473 871 b 498 830 483 849 490 839 b 529 811 507 822 517 815 b 566 803 540 806 553 803 b 603 811 578 803 591 806 b 634 830 614 815 625 822 b 655 860 642 838 649 849 b 662 896 660 871 662 884 "},"ł":{"x_min":21.109375,"x_max":419.5,"ha":443,"o":"m 395 554 b 419 592 411 560 419 572 l 419 691 l 306 645 l 306 1032 l 134 1032 l 29 1032 l 29 950 b 64 906 29 925 41 911 b 73 904 66 906 69 905 b 94 901 76 904 83 902 b 134 893 103 899 117 897 l 134 584 l 41 545 b 21 511 28 538 21 527 l 21 410 l 135 456 l 135 137 b 94 129 117 134 103 131 b 73 126 83 128 76 127 b 64 125 69 125 66 125 b 29 81 41 119 29 105 l 29 0 l 135 0 l 306 0 l 411 0 l 411 81 b 377 125 411 105 400 120 b 368 126 375 125 372 125 b 347 129 364 127 357 128 b 307 137 337 131 323 134 l 307 516 l 395 554 "},"Ł":{"x_min":19.78125,"x_max":767,"ha":795,"o":"m 692 239 b 660 213 674 239 664 231 b 654 154 659 208 657 188 l 330 154 l 330 447 l 556 565 b 579 602 571 573 579 586 l 579 727 l 330 603 l 330 865 b 371 873 348 869 362 871 b 392 877 382 874 389 876 b 401 878 396 877 399 878 b 436 922 424 884 436 897 l 436 1003 l 330 1003 l 144 1003 l 39 1003 l 39 922 b 73 878 39 897 51 884 b 82 877 76 878 79 877 b 103 873 86 876 93 874 b 144 865 113 871 127 869 l 144 518 l 40 465 b 19 431 26 458 19 447 l 19 303 l 144 365 l 144 137 b 103 129 127 133 113 131 b 82 126 93 128 86 127 b 73 125 78 125 76 125 b 39 81 51 119 39 105 l 39 0 l 144 0 l 729 0 l 732 0 l 767 0 l 767 72 l 767 99 l 767 239 l 692 239 "},"$":{"x_min":18.328125,"x_max":722,"ha":743,"o":"m 292 -6 l 279 -154 l 342 -154 b 375 -141 355 -154 366 -150 b 389 -111 382 -132 387 -122 l 397 -9 b 535 23 448 -6 495 5 b 637 93 576 41 609 64 b 700 193 665 122 685 155 b 722 314 714 230 721 271 b 697 422 722 357 713 393 b 633 495 680 451 660 476 b 545 542 607 515 578 530 b 446 576 512 555 480 566 l 471 864 b 520 848 489 860 505 854 b 560 828 534 841 548 835 b 593 813 573 822 583 817 b 618 806 603 808 611 806 b 642 813 627 806 635 808 b 661 834 648 817 654 824 l 703 897 b 610 965 676 922 645 944 b 482 1006 573 984 531 998 l 494 1143 l 431 1143 b 398 1130 417 1143 407 1138 b 384 1100 390 1121 385 1111 l 377 1013 b 241 983 325 1010 280 1000 b 142 918 202 966 169 944 b 80 828 115 892 94 861 b 60 724 66 794 60 760 b 83 606 60 677 67 638 b 145 529 98 575 119 549 b 232 479 171 508 200 492 b 330 446 264 466 296 456 l 303 135 b 236 156 277 140 255 147 b 185 186 216 166 200 176 b 146 211 170 195 157 204 b 113 222 134 218 123 222 b 89 215 105 222 96 220 b 71 198 81 211 75 205 l 18 120 b 139 37 51 87 91 59 b 292 -6 186 15 237 0 m 559 287 b 520 183 559 244 545 209 b 409 133 495 156 458 140 l 433 415 b 483 395 451 409 468 402 b 522 368 497 388 511 379 b 549 333 534 358 543 347 b 559 287 555 320 559 305 m 222 741 b 229 785 222 756 224 771 b 255 822 235 799 243 810 b 299 850 266 833 281 842 b 364 866 317 858 339 863 l 343 609 b 294 631 325 616 309 623 b 255 659 279 640 267 649 b 231 694 244 669 236 681 b 222 741 224 708 222 724 "},"w":{"x_min":18.03125,"x_max":1220.828125,"ha":1242,"o":"m 1163 711 l 1163 711 l 1034 711 b 1033 711 1033 711 1033 712 l 873 711 l 873 630 b 908 586 873 606 885 591 b 958 577 917 585 919 584 l 881 299 b 865 237 875 278 870 257 b 855 177 861 218 858 197 b 840 234 850 197 845 215 b 825 292 836 253 830 272 l 708 681 b 691 704 705 690 700 698 b 660 713 683 710 672 713 l 584 713 b 555 704 573 713 563 710 b 538 681 547 698 541 690 l 420 299 b 402 238 413 278 407 258 b 386 178 396 218 390 198 b 375 238 382 198 379 218 b 362 299 372 258 368 278 l 287 579 b 329 586 319 584 321 585 b 364 630 353 591 364 606 l 364 711 l 211 711 b 211 711 211 712 211 712 l 75 711 l 75 711 l 18 711 l 18 630 b 52 586 17 606 29 591 b 118 575 63 585 59 585 l 300 0 l 431 0 b 469 29 450 0 462 9 l 599 440 b 610 481 603 454 606 468 b 619 522 613 495 616 509 b 627 482 621 509 624 496 b 639 441 631 468 635 455 l 768 29 b 800 0 774 9 784 0 l 938 0 l 1120 575 b 1186 586 1179 585 1175 585 b 1220 630 1209 591 1220 606 l 1220 711 l 1163 711 "},"\\":{"x_min":20.828125,"x_max":586.8125,"ha":607,"o":"m 20 1032 l 423 -2 b 461 -49 431 -23 443 -39 b 514 -65 478 -61 496 -65 l 586 -65 l 181 971 b 147 1016 173 991 162 1005 b 94 1032 131 1026 114 1032 l 20 1032 "},"∫":{"x_min":21.53125,"x_max":690.28125,"ha":714,"o":"m 331 760 l 242 34 b 228 -30 239 8 235 -12 b 200 -74 222 -48 213 -63 b 155 -99 188 -85 173 -93 b 88 -107 137 -104 114 -107 b 60 -109 76 -107 67 -107 b 43 -115 53 -110 47 -112 b 34 -126 39 -118 36 -122 b 30 -141 32 -130 31 -136 l 21 -213 b 74 -232 37 -222 54 -228 b 128 -237 93 -235 111 -237 b 230 -221 165 -237 199 -232 b 313 -171 262 -209 290 -193 b 373 -84 337 -148 357 -119 b 406 39 389 -50 400 -8 l 495 737 b 509 795 497 759 502 779 b 534 837 515 812 524 826 b 575 862 545 848 559 856 b 631 870 590 867 609 870 b 656 873 641 870 650 871 b 670 882 662 876 667 879 b 679 895 675 886 677 890 b 681 908 680 899 681 904 l 690 991 b 637 1010 673 1000 656 1006 b 582 1015 618 1013 600 1015 b 409 947 509 1015 451 993 b 331 760 368 903 341 840 "},"Ì":{"x_min":15.640625,"x_max":500.359375,"ha":528,"o":"m 465 878 b 500 922 488 884 500 897 l 500 1003 l 394 1003 l 208 1003 l 102 1003 l 102 922 b 137 878 102 897 114 884 b 146 877 139 878 142 877 b 166 873 149 876 156 875 b 208 865 176 871 190 869 l 208 137 b 166 129 190 134 176 131 b 146 126 156 128 149 127 b 137 125 142 125 139 125 b 102 81 114 119 102 105 l 102 0 l 208 0 l 394 0 l 500 0 l 500 81 b 465 125 500 105 488 119 b 456 126 463 125 460 125 b 436 129 453 127 446 128 b 394 137 426 131 412 134 l 394 865 b 436 873 412 869 426 871 b 456 877 446 875 453 876 b 465 878 460 877 463 878 m 205 1244 l 15 1244 l 221 1092 b 235 1083 226 1088 231 1085 b 248 1078 239 1080 244 1079 b 261 1076 252 1076 256 1076 b 278 1076 266 1076 271 1076 l 414 1076 l 277 1216 b 262 1230 271 1221 266 1225 b 246 1238 257 1233 252 1236 b 229 1242 241 1240 235 1241 b 205 1244 222 1243 214 1244 "},"Ç":{"x_min":18.984375,"x_max":868.0625,"ha":885,"o":"m 794 224 b 767 236 787 232 778 236 b 751 232 762 236 756 235 b 736 222 746 229 741 226 b 690 187 721 208 706 197 b 641 164 675 177 658 169 b 584 151 624 158 605 153 b 514 147 563 148 540 147 b 395 170 472 147 432 154 b 299 239 358 186 326 209 b 233 350 271 269 249 306 b 210 501 217 394 210 444 b 233 649 210 556 217 605 b 300 760 249 692 271 729 b 402 831 329 790 363 814 b 533 855 442 847 486 855 l 533 856 b 725 822 585 856 649 844 b 737 712 731 761 735 724 b 769 686 741 694 751 686 l 827 686 l 843 686 l 850 686 l 850 842 l 850 853 l 850 942 b 534 1014 723 990 618 1014 b 325 976 457 1014 388 1001 b 161 870 261 951 207 916 b 56 708 116 825 81 771 b 19 501 31 646 19 576 b 52 295 18 426 30 358 b 149 133 74 232 107 178 b 302 27 191 87 242 52 b 440 -8 343 9 389 -2 l 414 -92 b 491 -108 448 -97 475 -102 b 517 -136 508 -114 517 -123 b 505 -158 517 -145 512 -152 b 471 -166 497 -163 486 -166 b 451 -165 463 -166 457 -166 b 436 -161 445 -164 441 -163 b 425 -158 432 -160 428 -159 b 415 -157 421 -157 418 -157 b 395 -173 404 -157 398 -162 l 379 -225 b 428 -237 395 -231 412 -235 b 482 -242 445 -240 462 -242 b 550 -235 507 -242 530 -239 b 604 -214 571 -230 589 -223 b 638 -182 619 -205 630 -195 b 651 -140 646 -170 651 -156 b 626 -79 651 -117 642 -96 b 539 -38 609 -62 580 -48 l 546 -9 b 717 28 612 -6 669 7 b 868 144 777 55 827 94 l 794 224 "},"C":{"x_min":19,"x_max":868.0625,"ha":885,"o":"m 770 686 l 850 686 l 850 942 b 534 1014 723 990 618 1014 b 324 976 457 1014 388 1001 b 161 870 261 951 207 916 b 56 708 116 825 81 771 b 19 501 31 646 19 576 b 52 295 19 426 30 358 b 149 133 74 232 107 178 b 302 27 191 87 242 52 b 503 -11 361 1 428 -11 b 717 28 586 -11 658 2 b 868 144 777 55 827 94 l 794 224 b 767 235 787 232 778 235 b 751 232 762 236 756 235 b 736 222 746 229 741 226 b 690 187 721 208 706 197 b 641 163 675 177 658 169 b 584 150 623 158 605 153 b 514 147 563 147 540 147 b 395 170 472 146 432 154 b 298 239 358 186 326 209 b 233 350 271 269 249 306 b 209 501 217 394 209 444 b 233 649 209 556 217 605 b 300 760 249 692 272 729 b 402 831 329 790 363 814 b 532 855 442 847 486 855 b 725 822 585 855 649 844 b 737 712 731 761 735 724 b 770 686 741 694 751 686 "},"!":{"x_min":24,"x_max":234,"ha":259,"o":"m 212 1004 l 50 1004 l 50 606 b 56 482 50 564 52 522 b 72 353 60 442 65 399 l 189 353 b 205 482 196 399 201 442 b 212 606 209 522 212 564 l 212 1004 m 24 94 b 31 52 24 78 26 65 b 53 19 37 40 44 28 b 87 -2 63 10 74 3 b 129 -10 100 -7 114 -10 b 170 -2 143 -10 157 -7 b 203 19 182 3 193 10 b 225 52 212 28 220 40 b 234 94 231 65 234 78 b 225 135 234 108 231 121 b 203 168 220 147 212 158 b 170 190 193 177 182 185 b 128 199 157 196 143 199 b 87 190 114 199 100 196 b 53 168 74 185 63 177 b 31 135 44 158 37 147 b 24 94 26 121 24 108 "},"ç":{"x_min":20.953125,"x_max":621.859375,"ha":638,"o":"m 572 169 b 540 185 565 179 554 185 b 512 174 530 185 520 181 b 481 152 504 167 493 160 b 439 130 470 144 456 137 b 372 120 422 123 400 120 b 298 135 345 120 321 125 b 244 181 277 146 258 161 b 208 256 228 201 216 226 b 196 357 200 285 196 319 b 207 455 196 393 200 426 b 241 529 214 484 225 509 b 297 576 256 549 275 565 b 376 593 320 587 346 593 b 467 579 401 593 431 588 b 478 478 472 523 476 490 b 510 452 482 461 493 452 l 568 452 l 585 452 l 591 452 l 592 671 b 366 724 499 706 424 723 b 217 695 310 723 260 714 b 109 619 174 677 138 651 b 43 503 80 586 58 547 b 21 357 27 458 20 409 b 46 201 20 299 29 247 b 114 86 62 155 85 117 b 216 14 143 54 177 31 b 284 -5 237 5 260 -1 l 266 -61 l 262 -75 l 257 -92 b 335 -108 292 -97 318 -102 b 360 -136 351 -113 360 -123 b 348 -158 360 -145 355 -152 b 314 -167 340 -164 329 -167 b 294 -165 306 -167 300 -167 b 280 -162 289 -164 284 -163 b 268 -158 275 -160 271 -159 b 258 -157 264 -157 261 -157 b 239 -173 248 -157 241 -162 l 223 -226 b 271 -237 239 -231 255 -235 b 325 -242 288 -240 305 -242 b 394 -235 350 -242 373 -239 b 447 -214 414 -230 432 -223 b 481 -182 462 -205 473 -194 b 494 -140 489 -169 494 -155 b 469 -79 494 -116 485 -96 b 382 -37 452 -61 423 -48 l 389 -7 b 416 -4 400 -7 408 -5 b 490 14 442 0 467 5 b 560 50 514 23 538 35 b 621 106 582 65 603 83 l 572 169 "},"È":{"x_min":28.109375,"x_max":766,"ha":797,"o":"m 132 1005 l 28 1005 l 28 922 b 62 878 27 897 39 884 b 71 877 64 878 67 877 b 92 873 75 876 81 874 b 133 865 101 871 115 869 l 133 137 b 92 129 115 133 101 131 b 71 126 81 128 75 127 b 62 125 67 125 64 125 b 28 81 39 119 27 105 l 28 0 l 132 0 l 766 0 l 766 97 l 766 149 l 766 264 l 759 264 l 743 264 l 686 264 b 653 237 668 264 657 255 b 643 149 652 227 648 197 l 321 149 l 321 433 l 660 433 l 660 577 l 321 577 l 321 854 l 643 854 b 653 765 648 806 651 776 b 686 740 657 748 668 740 l 743 740 l 759 740 l 766 740 l 766 854 l 766 906 l 766 1003 l 132 1005 m 360 1243 l 170 1243 l 376 1091 b 390 1082 381 1088 386 1085 b 402 1078 394 1080 398 1079 b 416 1076 407 1076 411 1076 b 433 1075 420 1076 427 1076 l 568 1075 l 432 1215 b 416 1229 426 1221 421 1226 b 401 1238 411 1233 407 1236 b 384 1242 396 1240 390 1241 b 360 1243 377 1243 369 1243 "},"ﬁ":{"x_min":24.6875,"x_max":850.5,"ha":876,"o":"m 815 125 b 805 126 813 125 810 125 b 780 129 799 127 792 128 b 737 137 769 131 754 134 l 737 706 l 296 706 l 296 723 b 308 804 296 753 300 781 b 348 862 317 828 330 847 b 417 896 366 877 389 888 b 545 896 461 908 503 908 b 544 880 544 890 544 885 b 552 838 544 865 546 851 b 575 804 558 826 566 814 b 609 781 585 794 596 787 b 652 772 623 775 637 772 b 695 781 667 772 681 775 b 729 804 708 787 720 794 b 753 838 740 814 747 826 b 763 880 760 851 763 865 b 753 923 763 895 760 910 b 732 955 748 935 741 946 b 718 967 729 959 724 964 b 590 1022 683 993 640 1011 b 544 1031 577 1026 561 1029 b 521 1033 541 1031 534 1031 b 518 1033 520 1033 519 1033 b 510 1033 516 1033 514 1033 b 485 1033 500 1033 492 1033 b 328 1010 424 1033 371 1026 b 217 946 283 995 246 974 b 152 849 187 919 166 887 b 131 728 137 812 131 771 l 131 705 l 24 705 l 24 635 b 36 606 24 623 28 613 b 69 593 44 599 55 595 l 131 583 l 131 137 b 89 129 113 134 99 131 b 69 126 79 128 72 127 b 60 125 65 125 62 125 b 25 81 37 119 25 105 l 25 0 l 130 0 l 301 0 l 414 0 l 414 81 b 380 125 414 105 403 119 b 369 126 378 125 374 125 b 344 129 364 127 356 128 b 301 137 333 131 319 134 l 301 584 l 566 584 l 566 137 b 525 129 549 134 535 131 b 505 126 515 128 508 127 b 496 125 500 125 498 125 b 461 81 473 119 461 105 l 461 0 l 566 0 l 737 0 l 850 0 l 850 81 b 815 125 850 105 838 119 "},"X":{"x_min":25.65625,"x_max":1055.5625,"ha":1082,"o":"m 1020 125 b 915 136 1013 126 977 130 l 670 524 l 900 865 b 1006 878 963 872 999 877 b 1041 922 1029 884 1041 897 l 1041 1003 l 993 1003 l 945 1003 l 929 1003 l 814 1003 l 617 1003 l 617 922 b 652 878 617 897 629 884 b 704 867 675 873 693 870 l 565 647 b 556 630 561 642 559 636 b 548 612 553 625 550 618 l 389 868 b 435 878 397 870 413 873 b 470 922 459 884 470 897 l 470 1003 l 276 1003 l 150 1003 l 143 1003 l 90 1003 l 38 1003 l 38 922 b 73 878 38 897 50 884 b 180 865 81 877 116 872 l 410 515 l 165 136 b 60 125 102 129 67 126 b 25 81 36 119 25 105 l 25 0 l 76 0 l 128 0 l 136 0 l 251 0 l 456 0 l 456 81 b 421 125 456 105 444 119 b 363 137 397 129 377 134 l 520 387 b 527 400 522 390 525 395 b 534 416 529 405 531 411 l 704 133 b 663 125 699 131 685 129 b 629 81 640 119 629 105 l 629 0 l 815 0 l 944 0 l 956 0 l 1002 0 l 1055 0 l 1055 81 b 1020 125 1055 105 1043 119 "},"ô":{"x_min":21,"x_max":726,"ha":747,"o":"m 374 723 b 228 697 321 723 272 713 b 117 624 185 680 148 655 b 46 509 86 592 62 554 b 21 357 29 463 21 413 b 46 205 21 300 29 250 b 117 89 62 159 86 121 b 228 15 148 57 185 32 b 374 -10 272 -1 321 -10 b 519 15 427 -10 475 -1 b 630 89 562 32 599 57 b 701 205 660 121 684 159 b 726 357 717 250 726 300 b 701 509 726 413 717 463 b 630 624 684 554 660 592 b 519 697 599 655 562 680 b 374 723 475 713 427 722 m 374 122 b 241 181 314 122 269 141 b 198 356 211 221 198 280 b 241 531 198 432 211 490 b 374 592 269 571 314 592 b 505 531 433 592 477 571 b 549 356 534 491 549 432 b 505 181 549 279 534 221 b 374 122 477 141 433 122 m 614 810 l 455 1004 l 294 1004 l 135 810 l 254 810 b 273 814 261 809 267 811 b 289 823 280 816 284 819 l 363 889 b 370 896 365 891 367 893 b 378 904 373 898 375 901 b 384 896 380 901 382 898 b 392 889 387 893 389 891 l 465 823 b 500 810 473 814 485 810 l 614 810 "},"}":{"x_min":21.640625,"x_max":367.46875,"ha":389,"o":"m 284 285 b 303 353 284 312 290 335 b 367 381 316 371 338 381 l 367 480 b 303 506 338 480 316 488 b 284 575 290 524 284 547 b 288 640 284 597 285 618 b 298 705 290 661 294 683 b 309 770 302 727 306 748 b 314 838 311 792 314 815 b 298 933 314 872 308 904 b 251 1008 288 962 272 987 b 171 1056 230 1029 203 1045 b 58 1074 139 1067 101 1074 l 21 1074 l 21 997 b 25 981 21 991 22 985 b 34 971 27 977 30 974 b 47 965 39 968 43 966 b 58 963 51 963 55 963 l 64 963 b 139 932 96 963 121 952 b 165 848 155 911 165 883 b 160 774 165 822 163 798 b 151 706 157 751 154 729 b 143 642 148 684 146 663 b 139 577 140 620 139 599 b 145 527 139 559 141 543 b 167 484 150 511 157 497 b 201 451 176 472 187 461 b 246 430 214 441 230 434 b 201 407 230 424 214 417 b 167 373 187 398 176 387 b 145 330 157 361 150 346 b 139 281 141 315 139 299 b 143 217 139 260 140 238 b 151 152 146 196 148 174 b 160 84 154 130 157 108 b 165 10 163 60 165 36 b 139 -72 165 -23 155 -51 b 64 -103 121 -92 96 -103 l 58 -103 b 47 -105 55 -103 51 -103 b 34 -111 43 -106 39 -108 b 25 -122 30 -114 27 -117 b 21 -138 22 -126 21 -132 l 21 -214 l 58 -214 b 171 -196 101 -214 139 -207 b 251 -148 203 -185 230 -169 b 298 -74 272 -128 288 -103 b 313 21 308 -45 313 -13 b 309 88 314 44 311 66 b 298 153 306 110 302 132 b 288 219 294 176 290 197 b 284 285 285 241 284 262 "},"â":{"x_min":17.9375,"x_max":697.1875,"ha":722,"o":"m 662 126 b 647 128 661 126 655 126 b 610 135 638 130 626 132 l 610 451 b 593 561 610 491 604 528 b 541 649 581 595 563 624 b 458 706 518 673 491 692 b 346 727 425 720 388 726 b 50 614 231 727 132 689 l 82 559 b 102 537 87 550 93 543 b 132 528 110 531 120 528 b 170 538 145 528 158 531 b 208 559 181 544 194 551 b 256 582 222 568 237 575 b 325 592 274 588 298 592 b 413 557 364 592 393 580 b 443 449 433 533 443 497 l 443 408 b 239 386 362 407 294 400 b 108 334 185 372 142 355 b 38 262 76 312 52 289 b 18 182 24 237 18 210 b 32 98 17 151 22 123 b 75 38 42 74 57 54 b 140 1 93 21 115 10 b 224 -10 166 -6 194 -10 b 293 -3 249 -10 272 -7 b 352 14 314 0 334 6 b 406 45 371 23 389 33 b 459 88 423 58 441 71 l 474 37 b 495 7 479 21 486 11 b 533 0 504 2 517 0 l 591 0 l 610 0 l 697 0 l 697 82 b 662 126 697 106 685 120 m 443 183 b 406 150 430 170 418 159 b 368 126 393 141 381 132 b 326 112 355 120 341 115 b 277 108 311 109 295 108 b 208 127 249 108 226 114 b 181 191 190 140 181 162 b 194 235 181 207 185 221 b 237 269 202 248 217 259 b 318 293 258 278 285 287 b 443 303 351 299 393 303 l 443 183 m 579 811 l 420 1004 l 259 1004 l 100 811 l 219 811 b 239 814 226 810 233 811 b 253 823 245 817 250 820 l 328 889 b 335 896 330 891 332 893 b 342 904 338 898 340 901 b 350 896 345 901 347 898 b 357 889 353 893 355 891 l 430 823 b 464 811 439 815 450 811 l 579 811 "},"ø":{"x_min":16.5,"x_max":759.6875,"ha":776,"o":"m 640 619 l 759 780 l 674 780 b 649 777 665 780 656 779 b 630 770 642 776 636 773 b 613 755 624 766 619 761 b 597 734 608 750 603 743 l 558 682 b 476 712 533 695 506 705 b 382 723 447 719 415 723 b 236 697 329 723 280 713 b 125 624 193 680 156 655 b 54 509 94 592 70 554 b 29 357 37 463 29 413 b 53 206 29 301 36 250 b 123 91 69 161 92 123 l 16 -53 l 79 -53 b 133 -41 97 -53 115 -49 b 182 -3 152 -34 168 -21 l 206 29 b 288 0 231 16 258 6 b 382 -10 317 -7 349 -10 b 527 15 435 -10 483 -1 b 638 89 570 32 607 57 b 709 205 668 121 692 159 b 734 356 725 250 734 300 b 709 505 734 412 725 461 b 640 619 693 549 670 587 m 195 355 b 242 533 195 432 210 492 b 381 596 274 575 321 596 b 477 572 420 597 452 588 l 216 218 b 195 355 201 254 195 300 m 381 115 b 286 137 343 115 311 123 l 545 489 b 561 429 552 472 558 452 b 568 355 565 407 567 383 b 519 177 568 279 551 219 b 381 115 487 136 441 115 "},"Ä":{"x_min":23.109375,"x_max":1100.890625,"ha":1127,"o":"m 1073 106 b 997 138 1066 109 1041 119 l 657 1003 l 466 1003 l 126 138 b 50 106 82 120 57 109 b 23 70 32 98 23 86 l 23 0 l 71 0 l 180 0 l 203 0 l 216 0 l 362 0 l 362 70 b 334 106 362 86 352 98 b 306 118 331 107 321 111 l 309 126 l 362 268 l 762 268 l 812 132 l 817 118 b 789 106 802 111 792 107 b 762 70 771 98 762 86 l 762 0 l 907 0 l 919 0 l 943 0 l 1051 0 l 1100 0 l 1100 70 b 1073 106 1100 86 1091 98 m 523 711 b 542 765 530 727 536 744 b 561 830 548 785 555 806 b 581 765 568 806 574 785 b 599 712 587 745 593 727 l 714 400 l 409 400 l 523 711 m 504 1156 b 496 1193 504 1169 502 1181 b 475 1222 491 1204 484 1214 b 445 1243 467 1231 457 1238 b 408 1250 434 1248 421 1250 b 374 1243 396 1251 385 1248 b 345 1222 363 1238 353 1231 b 325 1193 337 1214 330 1204 b 318 1156 321 1181 318 1170 b 325 1121 318 1144 321 1132 b 345 1092 330 1110 337 1100 b 374 1072 353 1084 363 1077 b 408 1065 385 1068 396 1065 b 445 1072 421 1065 434 1068 b 475 1092 457 1077 467 1084 b 496 1121 484 1100 491 1110 b 504 1156 502 1132 504 1144 m 804 1156 b 797 1193 804 1169 802 1181 b 777 1222 792 1204 785 1214 b 748 1243 768 1231 759 1238 b 711 1250 737 1248 724 1250 b 675 1243 698 1251 687 1248 b 646 1222 664 1238 654 1231 b 625 1193 637 1214 630 1204 b 618 1156 621 1181 618 1170 b 625 1121 618 1144 621 1132 b 646 1092 630 1110 637 1100 b 675 1072 654 1084 664 1077 b 711 1065 687 1068 698 1065 b 748 1072 724 1065 737 1068 b 777 1092 759 1077 768 1084 b 797 1121 785 1100 792 1110 b 804 1156 802 1132 804 1144 "},"‰":{"x_min":24,"x_max":1569.359375,"ha":1593,"o":"m 489 760 b 471 866 489 799 482 834 b 422 945 459 897 443 924 b 348 996 401 967 376 984 b 255 1013 319 1008 288 1013 b 163 996 222 1013 190 1008 b 89 945 134 984 110 967 b 41 866 68 924 52 897 b 24 760 29 834 24 799 b 41 658 24 722 29 688 b 89 579 52 627 68 601 b 163 530 110 558 134 541 b 255 513 190 518 222 513 b 343 530 286 513 315 518 b 418 579 371 541 396 558 b 469 658 439 601 456 627 b 489 760 482 688 488 722 m 356 760 b 348 695 356 734 353 712 b 326 653 342 678 335 664 b 294 630 317 642 307 635 b 255 624 281 626 269 624 b 216 630 241 624 228 626 b 184 653 203 635 193 642 b 163 695 175 664 168 678 b 157 760 159 712 157 734 b 163 828 157 787 159 809 b 184 871 168 846 175 860 b 216 895 193 882 203 890 b 255 903 228 900 241 903 b 294 895 269 903 281 900 b 326 871 307 890 317 882 b 348 828 335 860 342 846 b 356 760 353 810 355 787 m 822 976 l 75 0 l 203 0 b 234 6 215 0 226 2 b 255 25 242 11 250 18 l 1002 1004 l 877 1004 b 842 995 862 1004 851 1001 b 822 976 834 990 827 983 m 1055 236 b 1037 341 1055 274 1048 309 b 988 421 1025 372 1009 398 b 914 470 968 442 943 459 b 822 489 886 482 855 489 b 729 470 788 489 757 482 b 656 421 701 459 677 442 b 607 341 635 398 619 372 b 590 236 596 309 591 274 b 607 133 590 197 596 164 b 656 55 619 103 635 76 b 729 5 677 33 701 17 b 821 -12 757 -6 788 -12 b 909 5 851 -12 881 -6 b 984 55 938 17 963 33 b 1035 133 1005 76 1023 103 b 1055 236 1048 164 1055 197 m 922 236 b 914 171 922 209 920 188 b 893 128 909 153 902 139 b 861 105 883 117 873 110 b 821 99 848 101 835 99 b 782 105 808 99 794 101 b 751 128 770 110 760 117 b 730 171 743 139 736 153 b 723 236 726 188 724 209 b 730 303 723 262 726 285 b 751 346 736 321 743 335 b 782 370 760 357 770 365 b 821 378 794 375 807 378 b 861 370 835 378 848 375 b 893 346 873 365 883 357 b 914 303 902 335 909 321 b 922 236 920 285 922 262 m 1569 236 b 1551 341 1570 274 1563 309 b 1503 421 1540 372 1524 398 b 1429 470 1482 442 1458 459 b 1336 489 1401 482 1369 489 b 1243 470 1303 489 1272 482 b 1171 421 1216 459 1191 442 b 1122 341 1150 398 1134 372 b 1105 236 1111 309 1105 274 b 1122 133 1105 197 1111 164 b 1171 55 1134 103 1150 76 b 1243 5 1191 33 1216 17 b 1336 -12 1272 -6 1303 -12 b 1424 5 1367 -12 1396 -6 b 1499 55 1453 17 1478 33 b 1550 133 1520 76 1538 103 b 1569 236 1563 164 1569 197 m 1437 236 b 1429 171 1438 209 1435 188 b 1408 128 1424 153 1417 139 b 1376 105 1399 117 1388 110 b 1336 99 1363 101 1350 99 b 1297 105 1323 99 1309 101 b 1266 128 1285 110 1275 117 b 1245 171 1258 139 1251 153 b 1238 236 1241 188 1239 209 b 1245 303 1238 262 1241 285 b 1266 346 1251 321 1258 335 b 1297 370 1275 357 1285 365 b 1336 378 1309 375 1322 378 b 1376 370 1350 378 1363 375 b 1408 346 1388 365 1399 357 b 1429 303 1417 335 1424 321 b 1437 236 1435 285 1437 262 "},"N":{"x_min":28.109375,"x_max":1084.859375,"ha":1106,"o":"m 979 1005 l 815 1005 l 690 1005 l 690 922 b 724 878 690 897 701 884 b 815 865 726 878 757 874 l 815 393 b 815 350 815 379 815 365 b 819 302 816 334 817 318 l 293 973 b 279 989 288 980 283 985 b 266 998 275 993 271 996 b 252 1002 262 1000 257 1002 b 231 1003 246 1003 239 1003 l 133 1003 l 28 1003 l 28 922 b 62 878 27 897 39 884 b 71 877 64 878 67 877 b 92 873 75 876 81 875 b 133 865 101 871 115 869 l 133 137 b 92 129 115 134 101 131 b 71 126 81 128 75 127 b 62 125 67 125 64 125 b 28 81 39 119 27 105 l 28 0 l 133 0 l 297 0 l 422 0 l 422 81 b 388 125 422 105 411 119 b 298 137 386 125 356 129 l 298 616 b 296 656 298 628 297 641 b 293 700 296 670 295 685 l 818 31 b 846 6 827 19 836 11 b 883 0 856 2 868 0 l 980 0 l 980 865 b 1020 873 997 869 1011 871 b 1041 877 1031 875 1037 876 b 1050 878 1045 877 1048 878 b 1084 922 1073 884 1084 897 l 1084 1003 l 979 1005 "},"—":{"x_min":39.578125,"x_max":981.953125,"ha":1022,"o":"m 39 478 l 39 356 l 981 356 l 981 478 l 39 478 "},"2":{"x_min":23.609375,"x_max":727.78125,"ha":753,"o":"m 727 150 l 727 247 l 654 247 b 621 221 636 247 625 239 b 615 159 620 216 618 196 l 394 159 b 333 154 374 159 354 157 b 268 139 311 150 290 146 l 494 370 b 571 452 520 398 546 425 b 635 535 595 479 617 507 b 679 625 653 564 668 594 b 695 728 690 657 695 691 b 672 846 695 771 688 811 b 608 936 657 881 636 911 b 510 994 581 961 548 980 b 383 1014 471 1008 429 1014 b 258 996 338 1014 297 1009 b 155 941 219 984 185 966 b 81 850 125 917 100 887 b 40 723 61 814 47 772 l 131 707 b 154 705 139 706 147 705 b 193 717 169 705 182 709 b 215 755 202 725 210 737 b 271 839 226 790 245 818 b 372 870 297 859 331 870 b 433 861 395 870 415 867 b 479 832 451 855 466 845 b 509 787 492 820 502 805 b 519 723 515 768 519 747 b 509 648 519 696 515 671 b 477 577 502 624 491 600 b 427 507 463 554 447 530 b 358 432 406 484 384 459 l 53 127 b 30 92 43 116 35 105 b 23 56 25 80 23 68 l 23 0 l 671 0 l 711 0 l 727 0 l 727 150 "},"⁄":{"x_min":20.828125,"x_max":762.5,"ha":785,"o":"m 179 49 l 762 1004 l 689 1004 b 637 988 669 1004 651 998 b 600 947 622 979 610 965 l 20 0 l 94 0 b 140 10 111 0 127 3 b 179 49 154 17 167 29 "},"ü":{"x_min":18.125,"x_max":848.859375,"ha":874,"o":"m 814 125 b 744 137 803 126 803 127 l 744 711 l 572 711 l 572 711 l 467 711 l 467 630 b 502 586 467 606 479 592 b 572 574 512 585 513 584 l 572 197 b 498 142 549 173 524 155 b 416 123 473 129 445 123 b 324 158 375 123 345 134 b 295 259 304 182 295 216 l 295 711 l 123 711 l 123 711 l 18 711 l 18 630 b 52 586 17 606 29 592 b 123 574 63 585 63 584 l 123 259 b 138 150 123 219 127 183 b 185 64 149 116 164 88 b 260 8 205 40 230 21 b 364 -11 290 -4 325 -11 b 429 -4 387 -11 409 -8 b 487 16 450 0 469 7 b 537 47 505 24 521 34 b 583 88 553 59 568 73 l 594 31 b 638 0 601 10 616 0 l 744 0 l 848 0 l 848 81 b 814 125 848 105 837 119 m 406 896 b 398 934 406 910 403 922 b 376 965 393 946 385 956 b 345 986 367 974 357 981 b 308 993 333 991 321 993 b 272 986 295 994 284 991 b 242 965 261 981 251 974 b 221 934 233 956 226 946 b 214 896 216 922 214 910 b 221 860 214 884 216 871 b 242 830 226 849 233 839 b 272 811 251 822 261 815 b 308 803 284 806 295 803 b 345 811 321 803 333 806 b 376 830 357 815 367 822 b 398 860 385 838 393 849 b 406 896 403 871 406 884 m 664 896 b 656 934 664 910 661 922 b 636 965 652 946 645 956 b 604 986 627 974 616 981 b 567 993 592 991 581 993 b 531 986 554 994 543 991 b 501 965 519 981 510 974 b 481 934 492 956 485 946 b 473 896 476 922 473 910 b 481 860 473 884 476 871 b 501 830 485 849 492 839 b 531 811 510 822 519 815 b 567 803 543 806 554 803 b 604 811 581 803 592 806 b 636 830 616 815 627 822 b 656 860 645 838 652 849 b 664 896 661 871 664 884 "},"Ó":{"x_min":19,"x_max":1037.328125,"ha":1059,"o":"m 1037 502 b 1000 706 1038 575 1025 643 b 896 868 976 768 941 822 b 736 976 852 914 798 949 b 528 1015 673 1001 604 1015 b 320 976 452 1015 383 1001 b 159 869 258 950 203 915 b 55 706 114 823 80 768 b 19 502 30 643 19 575 b 55 297 19 428 30 359 b 159 134 80 234 114 180 b 320 27 203 89 258 52 b 528 -11 383 1 452 -11 b 736 27 604 -11 673 1 b 896 134 798 52 852 89 b 1000 297 941 180 976 234 b 1037 502 1025 359 1037 428 m 845 502 b 823 353 845 446 838 397 b 760 242 809 309 788 273 b 661 173 733 212 700 189 b 528 149 622 156 577 149 b 395 173 479 149 435 156 b 295 242 356 189 323 212 b 231 353 267 273 246 309 b 209 502 217 397 209 446 b 231 649 209 556 217 606 b 295 761 246 693 267 731 b 395 831 323 792 356 815 b 528 856 435 847 479 856 b 661 831 577 856 622 847 b 760 761 700 815 733 792 b 823 649 788 731 809 693 b 845 502 838 606 845 556 m 796 1244 l 605 1244 b 582 1242 596 1244 588 1243 b 565 1238 575 1241 570 1240 b 550 1230 559 1236 554 1233 b 534 1216 545 1225 540 1221 l 398 1076 l 533 1076 b 550 1076 539 1075 545 1076 b 563 1079 554 1076 559 1077 b 577 1085 568 1080 572 1082 b 591 1093 581 1087 586 1089 l 796 1244 "},"˜":{"x_min":34,"x_max":477.46875,"ha":511,"o":"m 329 944 b 299 953 319 943 309 946 b 264 972 288 958 277 964 b 223 991 252 978 238 985 b 176 1001 208 997 193 1000 b 120 988 156 1001 137 996 b 74 953 102 980 87 968 b 44 898 61 937 51 919 b 34 828 37 877 34 854 l 140 828 b 151 869 140 847 143 861 b 183 882 158 877 169 881 b 213 872 192 882 201 878 b 247 853 224 866 235 860 b 288 834 260 846 274 839 b 334 825 302 827 318 825 b 392 836 355 824 375 828 b 437 871 409 845 424 856 b 467 925 449 886 460 905 b 477 996 473 946 477 970 l 373 996 b 361 955 374 976 369 962 b 329 944 353 947 343 944 "},"ˇ":{"x_min":31.25,"x_max":509.71875,"ha":542,"o":"m 350 811 l 509 1004 l 395 1004 b 375 1000 388 1004 382 1002 b 361 992 369 997 364 994 l 288 925 b 280 917 285 922 283 920 b 272 908 277 915 275 912 b 258 924 267 915 262 921 l 184 991 b 169 999 180 995 175 997 b 150 1003 163 1002 156 1003 l 31 1003 l 190 810 l 350 811 "},"Ÿ":{"x_min":22.015625,"x_max":986.8125,"ha":1008,"o":"m 963 1003 l 938 1003 l 881 1003 l 798 1003 l 611 1003 l 611 922 b 646 878 610 897 622 884 b 652 877 647 878 649 877 b 665 873 655 876 659 875 b 686 868 671 872 678 870 l 553 626 b 525 570 542 607 533 588 b 505 517 518 552 511 535 b 484 570 498 534 491 552 b 456 626 475 588 466 606 l 322 868 b 342 873 329 870 336 872 b 356 877 348 875 353 876 b 362 878 358 877 360 878 b 397 922 385 884 397 897 l 397 1003 l 209 1003 l 126 1003 l 69 1003 l 44 1003 l 22 1003 l 22 922 b 56 878 21 897 33 884 b 65 877 58 878 61 877 b 85 873 69 876 75 875 b 126 865 95 871 109 869 l 411 389 l 411 137 b 369 129 393 134 379 131 b 349 126 359 128 352 127 b 340 125 344 125 342 125 b 305 81 317 119 305 105 l 305 0 l 411 0 l 598 0 l 703 0 l 703 81 b 668 125 703 105 691 119 b 659 126 666 125 663 125 b 639 129 656 127 649 128 b 598 137 628 131 614 134 l 598 389 l 881 865 b 922 873 898 869 912 871 b 943 877 932 875 939 876 b 952 878 946 877 950 878 b 986 922 975 884 986 897 l 986 1003 l 963 1003 m 449 1156 b 441 1193 449 1169 446 1181 b 420 1222 435 1204 428 1214 b 390 1243 411 1231 401 1238 b 353 1250 378 1248 365 1250 b 318 1243 340 1251 329 1248 b 290 1222 307 1238 298 1231 b 269 1193 281 1214 274 1204 b 263 1156 265 1181 263 1170 b 269 1121 263 1144 265 1132 b 290 1092 274 1110 281 1100 b 318 1072 298 1084 307 1077 b 353 1065 329 1068 340 1065 b 390 1072 365 1065 378 1068 b 420 1092 401 1077 411 1084 b 441 1121 428 1100 435 1110 b 449 1156 446 1132 449 1144 m 750 1156 b 742 1193 750 1169 747 1181 b 722 1222 737 1204 731 1214 b 692 1243 714 1231 704 1238 b 656 1250 681 1248 669 1250 b 620 1243 644 1251 631 1248 b 591 1222 609 1238 599 1231 b 570 1193 582 1214 575 1204 b 564 1156 566 1181 564 1170 b 570 1121 564 1144 566 1132 b 591 1092 575 1110 582 1100 b 620 1072 599 1084 609 1077 b 656 1065 631 1068 644 1065 b 692 1072 669 1065 681 1068 b 722 1092 704 1077 714 1084 b 742 1121 731 1100 737 1110 b 750 1156 747 1132 750 1144 "},"€":{"x_min":28.140625,"x_max":794.71875,"ha":816,"o":"m 28 645 l 28 549 l 108 549 b 108 525 108 540 108 532 l 108 501 l 108 485 b 108 469 108 479 108 473 l 28 469 l 28 374 l 116 374 b 159 215 124 315 138 262 b 237 94 179 168 205 128 b 350 17 269 61 307 35 b 496 -10 393 0 442 -10 b 671 29 562 -10 621 3 b 794 144 721 55 762 94 l 720 212 b 708 221 716 216 712 220 b 695 224 704 223 700 224 b 666 210 685 224 675 219 b 635 180 658 201 647 191 b 585 150 622 169 605 159 b 505 137 565 141 539 137 b 368 195 450 137 405 156 b 294 374 331 234 306 294 l 532 374 b 566 387 546 374 558 378 b 580 417 575 396 580 405 l 580 469 l 285 469 b 285 485 285 473 285 478 l 285 501 l 285 525 b 285 549 284 532 285 540 l 598 549 b 632 562 612 549 624 553 b 646 592 641 571 645 581 l 646 645 l 297 645 b 375 810 312 717 338 773 b 514 867 413 848 459 867 b 566 861 534 867 551 864 b 605 846 581 857 594 853 b 633 828 616 842 625 835 b 655 810 641 822 648 817 b 672 796 661 805 666 801 b 690 791 678 793 683 792 b 712 797 699 791 706 793 b 726 810 716 801 721 805 l 787 876 b 671 976 755 918 717 951 b 506 1013 625 1001 570 1013 b 369 987 456 1013 410 1005 b 255 913 326 970 289 945 b 171 797 222 881 194 843 b 120 644 147 751 130 701 l 28 645 "},"ß":{"x_min":33,"x_max":749,"ha":768,"o":"m 397 1021 b 244 995 340 1021 289 1011 b 130 925 199 978 161 955 b 58 818 99 894 74 859 b 33 683 41 776 33 731 l 33 0 l 205 0 l 205 677 b 251 840 205 749 220 803 b 389 897 282 878 328 896 b 454 887 414 897 436 893 b 499 863 472 881 487 873 b 524 828 510 853 519 842 b 533 785 530 814 533 800 b 518 734 533 765 528 748 b 481 694 508 719 496 706 b 434 657 467 681 451 669 b 386 617 417 645 401 632 b 350 567 372 602 360 585 b 336 499 340 547 336 525 b 354 420 336 467 342 440 b 401 366 367 399 382 381 b 462 328 420 352 440 339 b 522 295 484 317 504 306 b 570 256 541 283 557 270 b 589 202 582 242 589 224 b 561 134 589 174 579 152 b 490 109 543 117 520 109 b 437 118 470 109 452 111 b 397 137 422 123 408 130 b 365 156 386 144 375 150 b 335 165 356 162 345 165 b 308 159 324 165 315 163 b 291 141 302 155 295 149 l 251 76 b 297 41 265 63 280 52 b 352 13 314 30 332 21 b 412 -4 371 5 391 0 b 475 -11 433 -8 454 -11 b 580 4 512 -11 547 -6 b 667 50 613 14 642 29 b 726 125 692 70 712 95 b 749 229 741 155 749 190 b 731 320 749 265 742 295 b 688 382 719 344 705 365 b 632 426 671 399 652 414 b 576 461 611 438 592 449 b 533 493 559 471 544 482 b 516 533 521 504 516 517 b 529 568 516 546 520 558 b 563 599 538 579 549 589 b 607 629 577 608 591 618 b 651 667 622 640 637 652 b 685 717 665 681 676 697 b 699 785 694 735 699 758 b 682 862 699 809 693 834 b 629 938 671 889 653 915 b 535 997 605 961 574 981 b 397 1021 497 1013 451 1020 "},"Ω":{"x_min":28,"x_max":958,"ha":985,"o":"m 542 0 l 895 0 b 940 15 914 0 929 4 b 958 58 951 27 958 40 l 958 153 l 686 153 l 686 249 b 801 300 729 260 767 277 b 886 381 835 322 863 349 b 939 486 909 413 927 447 b 958 611 951 525 958 566 b 923 769 958 666 946 719 b 829 897 901 817 869 860 b 682 984 788 933 739 963 b 492 1016 625 1004 562 1016 b 302 984 423 1016 359 1004 b 156 897 246 963 196 933 b 61 769 115 860 83 817 b 28 610 39 719 28 666 b 46 486 28 566 33 525 b 98 381 57 447 75 413 b 183 299 121 349 149 322 b 299 248 217 277 255 260 l 299 152 l 28 152 l 28 57 b 45 15 28 40 34 27 b 91 0 56 4 71 0 l 443 0 l 443 344 b 354 370 411 349 381 358 b 283 420 326 383 303 399 b 236 496 263 441 247 467 b 220 600 225 526 220 561 b 238 714 220 643 226 682 b 293 798 251 748 269 776 b 379 849 317 820 345 837 b 492 866 412 860 450 866 b 606 849 534 866 571 860 b 692 798 639 837 668 820 b 747 714 716 776 734 748 b 766 600 760 682 766 643 b 749 496 767 561 760 526 b 702 420 738 467 722 441 b 630 370 682 399 658 383 b 541 344 603 358 573 349 l 542 0 "},"s":{"x_min":29,"x_max":540.71875,"ha":559,"o":"m 526 299 b 486 351 516 319 503 336 b 430 387 469 366 450 377 b 365 413 409 397 388 405 b 301 433 344 420 322 427 b 246 455 281 439 262 446 b 206 482 229 462 216 471 b 191 521 196 492 191 505 b 220 577 191 544 201 562 b 300 599 240 591 267 599 b 384 589 333 599 366 595 b 393 510 389 535 391 517 b 425 485 396 493 407 485 l 483 485 l 499 485 l 505 485 l 505 686 l 506 687 b 297 723 405 718 367 723 b 181 705 253 723 214 717 b 97 658 148 694 119 678 b 45 589 74 639 57 615 b 29 506 34 563 29 535 b 43 425 29 474 33 447 b 83 369 53 402 66 384 b 139 331 100 354 118 341 b 204 305 160 321 182 312 b 269 284 226 298 248 291 b 325 264 290 278 308 271 b 365 236 342 255 355 246 b 379 195 375 225 379 211 b 373 162 379 184 377 172 b 352 135 369 152 362 143 b 316 115 343 127 331 120 b 264 109 301 111 284 109 b 151 120 233 109 189 109 b 141 202 146 177 143 195 b 109 228 138 220 127 228 l 51 228 l 35 228 l 29 228 l 29 96 l 29 27 l 29 27 b 255 -11 80 7 166 -11 b 377 6 301 -11 342 -5 b 466 55 413 18 443 34 b 521 130 491 76 509 101 b 540 225 535 159 540 191 b 526 299 540 254 535 278 "},"?":{"x_min":21.328125,"x_max":557.34375,"ha":583,"o":"m 21 913 l 66 841 b 102 821 73 827 85 821 b 126 829 109 821 117 823 b 158 848 134 834 145 841 b 205 868 170 855 186 862 b 272 876 223 873 245 876 b 322 868 290 877 307 874 b 362 847 338 863 351 856 b 389 813 373 837 382 826 b 398 768 395 800 398 784 b 382 702 399 743 393 721 b 344 653 373 684 360 668 b 294 612 329 638 313 625 b 245 574 277 600 260 587 b 206 531 229 561 217 547 b 191 478 197 516 191 499 l 191 472 b 192 466 191 471 192 469 l 203 353 l 321 353 l 337 454 b 359 495 340 470 347 483 b 400 531 370 506 384 518 b 452 570 417 543 434 556 b 503 619 470 583 488 600 b 541 686 518 638 532 661 b 557 777 552 712 557 742 b 538 875 558 813 551 846 b 483 950 525 904 507 929 b 397 997 459 971 431 986 b 287 1014 364 1008 327 1014 b 203 1006 257 1014 229 1012 b 133 984 178 1001 155 994 b 72 952 111 975 91 965 b 21 913 53 939 36 927 m 151 93 b 160 52 151 78 154 65 b 182 19 165 40 172 28 b 216 -2 192 10 203 3 b 258 -10 228 -7 242 -10 b 299 -2 272 -10 285 -7 b 332 19 311 3 322 10 b 354 52 341 28 349 40 b 363 93 360 65 363 78 b 354 134 363 108 360 122 b 331 167 349 147 341 158 b 298 190 322 177 311 184 b 257 198 285 195 272 198 b 215 190 242 198 228 195 b 182 167 203 184 192 177 b 160 134 172 158 165 147 b 151 93 154 122 151 108 "},"c":{"x_min":20.953125,"x_max":620.859375,"ha":638,"o":"m 571 169 b 540 185 564 179 554 185 b 511 175 529 185 520 181 b 481 152 503 168 493 161 b 438 130 470 144 455 137 b 372 121 422 123 400 121 b 298 136 345 121 320 125 b 243 182 277 146 258 161 b 208 256 227 202 216 227 b 195 358 200 285 195 319 b 207 455 195 394 200 426 b 241 529 214 484 225 509 b 297 576 256 550 275 565 b 376 593 320 587 346 593 b 467 579 400 593 431 588 b 478 478 472 523 476 490 b 510 453 482 461 493 453 l 568 453 l 584 453 l 590 453 l 591 671 b 366 722 498 706 424 722 b 217 695 310 722 261 713 b 109 618 174 677 138 651 b 43 503 80 586 58 547 b 21 358 27 458 20 410 b 46 201 20 299 29 247 b 114 86 62 155 85 117 b 216 14 143 54 177 30 b 340 -10 254 -2 296 -10 b 416 -4 365 -10 391 -8 b 490 14 441 0 466 5 b 559 50 513 23 537 35 b 620 107 581 65 602 84 l 571 169 "},"¶":{"x_min":24,"x_max":951.609375,"ha":976,"o":"m 951 1004 l 341 1004 b 210 983 292 1004 249 997 b 110 924 171 969 138 949 b 46 835 82 899 61 869 b 24 719 30 800 24 761 b 46 610 24 680 30 644 b 110 520 61 575 82 546 b 210 459 138 494 171 474 b 341 437 249 444 292 437 l 341 -145 l 491 -145 l 491 860 l 653 860 l 653 -145 l 803 -145 l 803 860 l 951 860 l 951 1004 "},"•":{"x_min":31,"x_max":637,"ha":667,"o":"m 31 411 b 54 295 31 370 38 331 b 119 200 70 259 92 227 b 215 135 147 172 179 150 b 333 112 252 119 291 112 b 451 135 375 112 413 119 b 548 200 488 150 520 172 b 612 295 575 227 596 259 b 637 411 628 331 637 370 b 612 529 637 453 628 492 b 548 625 596 565 575 597 b 451 690 520 652 488 674 b 333 714 413 705 375 714 b 215 690 291 714 252 705 b 119 625 179 674 147 652 b 54 529 92 597 70 565 b 31 411 38 492 31 453 "},"(":{"x_min":25,"x_max":317,"ha":336,"o":"m 174 435 b 208 716 174 530 185 624 b 307 977 231 809 264 895 b 317 1008 313 988 317 999 b 310 1029 317 1016 314 1024 b 293 1043 305 1035 299 1040 l 216 1089 b 128 931 181 1037 152 984 b 69 770 104 878 84 824 b 35 605 54 715 42 661 b 25 434 28 550 25 493 b 35 264 25 377 28 320 b 69 100 42 209 54 154 b 128 -61 84 45 104 -7 b 216 -220 152 -113 181 -167 l 293 -173 b 310 -159 299 -169 305 -164 b 317 -136 314 -153 317 -145 b 314 -122 317 -132 316 -127 b 307 -106 313 -117 311 -111 b 208 154 264 -25 231 61 b 174 435 185 245 174 339 "},"◊":{"x_min":20.828125,"x_max":669.453125,"ha":690,"o":"m 20 500 l 285 -63 l 404 -63 l 669 500 l 404 1063 l 285 1063 l 20 500 m 161 500 l 321 847 b 334 881 327 859 331 870 b 345 913 338 893 341 903 b 354 881 347 903 351 893 b 368 847 358 870 363 859 l 531 500 l 368 152 b 354 117 363 139 358 128 b 345 85 350 106 347 95 b 335 117 342 95 338 106 b 321 152 331 128 327 139 l 161 500 "},"­":{"x_min":40,"x_max":400,"ha":440,"o":"m 40 491 l 40 348 l 400 348 l 400 491 l 40 491 "},":":{"x_min":31.9375,"x_max":242.359375,"ha":273,"o":"m 31 94 b 39 52 31 78 34 65 b 61 19 45 40 52 28 b 95 -2 71 10 82 3 b 137 -10 108 -7 122 -10 b 178 -2 151 -10 165 -7 b 211 19 190 3 202 10 b 234 52 220 28 228 40 b 242 94 239 65 242 78 b 234 135 242 108 239 121 b 211 168 228 147 220 158 b 178 190 202 177 190 185 b 137 199 165 196 151 199 b 95 190 122 199 108 196 b 61 168 82 185 71 177 b 39 135 52 158 45 147 b 31 94 34 121 31 108 m 31 588 b 39 547 31 573 34 559 b 61 514 45 534 52 523 b 95 492 71 505 82 498 b 137 485 108 487 122 485 b 178 492 151 485 165 487 b 211 514 190 498 202 505 b 234 547 220 523 228 535 b 242 589 239 560 242 573 b 234 630 242 603 239 616 b 211 663 228 642 220 653 b 178 685 202 672 190 680 b 137 694 165 691 151 694 b 95 685 122 694 108 691 b 61 663 82 680 71 672 b 39 630 52 653 45 642 b 31 588 34 616 31 603 "},"Û":{"x_min":21.125,"x_max":1063.859375,"ha":1085,"o":"m 958 1005 l 772 1005 l 660 1005 l 660 922 b 695 878 660 897 672 884 b 706 877 697 878 701 877 b 729 873 710 876 718 875 b 772 866 740 871 754 869 l 772 402 b 756 298 772 364 766 329 b 710 219 745 267 731 241 b 638 169 691 197 667 180 b 542 151 610 156 578 151 b 444 169 506 151 473 156 b 373 219 416 180 392 197 b 328 299 353 241 338 268 b 313 403 317 330 313 364 l 313 866 b 355 873 330 869 344 871 b 378 877 366 875 374 876 b 389 878 383 877 387 878 b 424 922 412 884 424 897 l 424 1003 l 312 1003 l 126 1003 l 21 1003 l 21 922 b 55 878 20 897 32 884 b 64 877 57 878 60 877 b 85 873 68 876 74 875 b 126 866 94 871 108 869 l 126 402 b 154 236 126 343 135 287 b 237 105 173 186 201 142 b 368 19 273 68 317 40 b 542 -11 419 -1 477 -11 b 715 19 606 -11 664 -1 b 847 105 767 40 811 68 b 929 236 883 142 911 186 b 959 402 949 287 959 343 l 959 866 b 999 873 976 869 990 871 b 1020 877 1009 875 1016 876 b 1029 878 1024 877 1027 878 b 1063 922 1052 884 1063 897 l 1063 1003 l 958 1005 m 795 1075 l 627 1227 l 456 1227 l 288 1075 l 418 1075 b 441 1078 425 1075 433 1076 b 461 1086 449 1080 456 1083 l 531 1132 b 537 1137 533 1134 535 1135 b 542 1140 540 1138 541 1139 b 547 1136 544 1139 545 1137 b 552 1132 549 1135 550 1134 l 622 1086 b 642 1078 627 1083 634 1080 b 665 1075 651 1076 658 1075 l 795 1075 "},"V":{"x_min":22.203125,"x_max":1097.21875,"ha":1121,"o":"m 1049 1003 l 992 1003 l 898 1003 l 722 1003 l 722 922 b 756 878 722 897 734 884 b 763 877 758 878 760 877 b 778 873 766 876 771 875 b 801 868 785 871 793 870 l 602 348 b 562 208 586 308 572 261 b 541 283 555 234 548 259 b 519 348 534 306 527 329 l 318 868 b 340 873 327 870 334 871 b 355 877 347 875 352 876 b 362 878 358 877 361 878 b 397 922 385 884 397 897 l 397 1003 l 220 1003 l 127 1003 l 70 1003 l 22 1003 l 22 922 b 56 878 21 897 33 884 b 65 877 59 878 61 877 b 85 873 68 876 75 875 b 125 866 95 871 108 869 l 475 0 l 644 0 l 994 866 b 1034 873 1011 869 1024 871 b 1054 877 1043 875 1050 876 b 1062 878 1057 877 1060 878 b 1097 922 1085 883 1097 897 l 1097 1003 l 1049 1003 "},"ś":{"x_min":15.671875,"x_max":551.171875,"ha":569,"o":"m 499 573 l 538 635 b 438 699 512 661 478 683 b 304 724 397 715 353 724 b 188 705 260 724 221 717 b 104 658 155 694 126 678 b 53 589 82 639 64 616 b 35 506 42 563 35 535 b 51 425 35 474 41 448 b 90 369 60 403 73 384 b 146 331 107 354 126 341 b 211 305 167 321 189 312 b 275 284 233 298 255 291 b 332 264 296 278 315 271 b 371 236 348 255 361 246 b 386 195 381 225 386 211 b 379 162 386 184 384 172 b 359 135 375 152 368 143 b 323 115 349 127 337 120 b 270 109 308 111 291 109 b 206 118 244 109 223 111 b 162 137 189 123 175 130 b 129 156 150 144 139 150 b 99 166 119 162 110 166 b 73 159 88 166 80 163 b 55 141 66 155 60 149 l 15 76 b 63 41 29 63 45 52 b 123 13 81 30 101 21 b 190 -4 144 5 166 0 b 262 -11 214 -8 237 -11 b 384 6 308 -11 348 -5 b 473 55 419 18 449 34 b 528 130 497 76 515 101 b 547 225 540 159 547 191 b 531 299 547 254 541 278 b 492 351 522 319 508 336 b 436 387 475 366 457 377 b 373 413 415 397 394 405 b 309 433 350 420 330 427 b 253 455 288 439 269 446 b 213 482 236 462 223 471 b 198 521 203 492 199 505 b 227 577 198 544 208 562 b 307 599 246 591 273 599 b 363 592 329 599 348 596 b 406 576 379 587 393 581 b 439 560 418 570 429 564 b 465 553 449 555 457 553 b 485 558 474 553 480 555 b 499 573 490 560 495 566 m 551 1015 l 384 1015 b 343 1005 366 1015 352 1011 b 318 978 334 999 325 990 l 220 809 l 323 809 b 354 814 336 809 346 811 b 380 834 363 818 371 824 l 551 1015 "}," ":{"x_min":0,"x_max":0,"ha":104},"@":{"x_min":26,"x_max":1080,"ha":1106,"o":"m 789 127 b 904 154 830 127 869 136 b 996 230 939 172 970 198 b 1057 342 1023 262 1043 299 b 1080 482 1072 385 1080 432 b 1038 681 1080 555 1066 622 b 926 831 1010 740 973 790 b 766 926 880 872 826 903 b 577 958 706 948 642 958 b 428 938 525 958 475 952 b 296 880 381 924 336 905 b 185 792 255 856 218 827 b 99 680 151 758 123 721 b 44 548 76 639 57 595 b 26 404 32 501 26 453 b 69 165 26 315 40 236 b 192 -14 98 95 139 34 b 377 -127 244 -63 305 -101 b 610 -167 448 -153 526 -167 b 830 -137 692 -167 765 -157 b 998 -60 894 -117 950 -92 l 975 1 b 946 23 969 15 960 23 b 923 15 939 23 932 20 b 866 -11 906 6 887 -3 b 795 -34 844 -20 821 -27 b 710 -50 769 -41 740 -46 b 610 -56 678 -54 645 -56 b 428 -27 544 -56 484 -47 b 283 59 373 -8 324 20 b 186 203 242 98 210 146 b 151 403 162 261 151 328 b 182 578 151 466 161 524 b 272 720 204 632 234 680 b 408 814 310 760 355 791 b 577 849 460 837 516 849 b 731 825 633 849 683 840 b 851 755 777 810 817 786 b 929 641 884 725 910 687 b 958 482 948 595 958 542 b 946 382 958 446 953 412 b 915 302 938 351 928 325 b 869 250 902 280 887 263 b 815 232 852 238 834 232 b 787 235 805 232 796 233 b 766 247 779 237 771 241 b 752 269 760 252 755 259 b 747 304 749 278 747 290 b 758 378 746 323 751 348 l 825 636 b 751 660 801 646 776 655 b 660 669 726 666 695 669 b 547 654 618 669 581 664 b 455 615 513 644 483 632 b 384 557 428 598 404 579 b 334 486 364 535 347 511 b 303 407 320 461 310 435 b 294 327 296 380 294 354 b 304 248 294 298 297 272 b 337 184 311 223 322 202 b 391 143 351 166 369 152 b 467 128 412 132 438 128 b 566 149 502 128 535 134 b 653 220 597 163 625 187 b 704 149 663 187 679 163 b 789 127 729 134 757 127 m 501 238 b 445 262 476 238 458 245 b 427 331 433 279 427 302 b 442 417 427 361 431 389 b 486 491 453 445 467 469 b 551 542 504 512 526 529 b 631 561 576 554 602 561 b 677 556 647 561 662 559 l 626 360 b 604 301 620 336 613 316 b 573 263 594 285 584 272 b 538 243 562 253 550 247 b 501 238 525 239 513 238 "},"¾":{"x_min":22,"x_max":964.578125,"ha":988,"o":"m 301 49 l 884 1004 l 811 1004 b 758 989 790 1004 772 999 b 721 948 744 979 731 965 l 142 0 l 216 0 b 262 10 233 0 249 3 b 301 49 276 17 289 29 m 900 196 l 900 514 l 781 514 l 548 190 l 558 137 b 569 118 560 130 563 123 b 596 112 576 114 585 112 l 797 112 l 797 0 l 900 0 l 900 112 l 941 112 b 958 118 948 112 954 114 b 964 134 962 123 964 128 l 964 196 l 900 196 m 219 1011 b 153 1001 196 1011 174 1007 b 97 972 132 994 114 985 b 57 923 81 959 68 942 b 35 854 46 903 39 880 l 98 843 b 117 841 105 842 111 841 b 138 848 126 841 133 843 b 153 868 144 852 149 859 b 175 898 158 880 165 891 b 214 909 185 905 197 909 b 254 894 232 910 245 904 b 268 853 263 884 268 871 b 263 827 268 844 266 835 b 248 807 260 819 255 813 b 218 795 241 802 231 797 b 170 790 206 792 190 791 l 170 709 b 219 706 190 709 206 709 b 250 695 232 704 242 701 b 267 675 258 690 263 683 b 272 644 269 667 271 656 b 255 602 272 628 266 614 b 207 585 244 591 228 586 b 181 589 197 585 188 586 b 162 600 174 592 167 596 b 148 615 156 604 151 609 b 138 631 144 620 141 626 b 103 650 131 644 119 650 b 75 645 94 650 85 649 l 22 623 b 52 558 30 597 40 576 b 92 515 63 540 77 526 b 146 491 108 504 126 496 b 213 483 165 486 188 483 b 279 494 235 483 257 487 b 338 524 301 500 320 510 b 380 575 354 538 368 554 b 396 649 390 596 395 620 b 374 715 396 677 388 699 b 311 754 359 732 338 745 b 368 802 337 765 356 781 b 386 875 380 822 386 846 b 375 926 386 893 382 910 b 343 968 368 942 357 955 b 290 999 328 981 311 991 b 219 1011 270 1006 246 1011 m 797 311 l 797 195 l 661 195 l 801 387 b 797 347 799 373 798 360 b 797 311 797 334 797 323 "},"i":{"x_min":25.328125,"x_max":406.171875,"ha":431,"o":"m 371 125 b 363 126 370 125 366 125 b 342 129 358 127 352 128 b 302 137 332 131 319 134 l 302 713 l 130 713 l 25 713 l 25 630 b 60 587 24 606 36 592 b 68 585 61 587 64 586 b 89 582 72 585 78 583 b 130 574 98 580 112 578 l 130 137 b 89 129 112 134 98 131 b 68 126 78 128 72 127 b 60 125 64 125 61 125 b 25 81 36 119 24 105 l 25 0 l 130 0 l 301 0 l 406 0 l 406 81 b 371 125 406 105 395 119 m 327 920 b 318 963 327 935 324 949 b 293 998 311 976 304 988 b 259 1020 284 1007 272 1015 b 216 1030 246 1026 231 1030 b 173 1020 201 1030 187 1026 b 139 998 160 1015 149 1007 b 116 962 130 988 122 976 b 108 919 110 949 108 935 b 116 878 108 905 110 891 b 139 844 122 865 130 853 b 173 821 149 835 160 826 b 216 812 187 815 201 813 b 259 821 231 812 246 815 b 293 844 272 826 284 834 b 318 878 304 853 311 865 b 327 920 324 891 327 905 "},"≤":{"x_min":29.859375,"x_max":579.859375,"ha":614,"o":"m 29 582 l 29 513 l 579 248 l 579 365 b 571 390 579 374 577 382 b 541 412 565 398 556 405 l 297 524 b 260 537 286 529 273 534 b 218 547 247 541 233 545 b 260 558 233 551 247 554 b 297 570 272 561 285 565 l 542 680 b 572 702 556 687 566 694 b 579 728 577 711 579 719 l 579 845 l 29 582 m 29 181 l 29 54 l 579 54 l 579 181 l 29 181 "},"m":{"x_min":27.109375,"x_max":1237.859375,"ha":1264,"o":"m 1203 125 b 1194 126 1201 125 1198 125 b 1173 129 1190 127 1183 128 b 1133 137 1164 131 1150 134 l 1133 452 b 1116 567 1133 495 1127 534 b 1069 652 1105 600 1089 629 b 991 704 1048 675 1022 693 b 886 722 961 717 926 722 b 818 715 863 722 841 720 b 755 691 796 710 775 702 b 700 650 735 681 717 667 b 659 589 684 634 670 613 b 594 686 644 629 623 662 b 483 722 565 711 528 722 b 424 716 462 722 442 720 b 374 696 407 711 390 704 b 331 666 359 688 344 678 b 292 628 317 655 304 642 l 281 680 b 237 711 274 701 259 711 l 132 711 l 27 711 l 27 631 b 61 586 26 606 38 591 b 70 585 63 586 66 586 b 91 582 74 584 80 583 b 132 574 100 579 114 577 l 132 137 b 91 129 114 134 100 131 b 70 126 80 128 74 127 b 61 125 66 125 63 125 b 27 81 38 119 26 105 l 27 0 l 132 0 l 303 0 l 408 0 l 408 81 b 374 125 408 105 397 119 b 365 126 372 125 369 125 b 344 129 361 127 354 128 b 304 137 335 131 321 134 l 304 520 b 363 571 322 542 342 559 b 433 589 385 584 408 589 b 517 557 470 589 499 579 b 547 452 537 535 547 500 l 547 0 l 718 0 l 823 0 l 823 81 b 789 125 823 105 812 119 b 780 126 786 125 784 125 b 759 129 776 127 769 128 b 719 137 750 131 736 134 l 719 452 b 728 511 719 475 722 495 b 755 554 734 529 743 543 b 794 580 766 566 780 575 b 843 589 809 586 826 589 b 931 555 881 589 911 578 b 961 452 951 532 961 498 l 961 0 l 1132 0 l 1237 0 l 1237 81 b 1203 125 1237 105 1226 119 "},"ż":{"x_min":24.71875,"x_max":593.03125,"ha":608,"o":"m 587 232 l 570 232 l 513 232 b 481 206 495 232 484 223 b 472 131 479 200 477 182 l 224 131 l 561 577 b 577 606 568 585 573 595 b 584 641 581 617 584 629 l 584 711 l 44 711 l 44 704 l 44 704 l 44 485 l 50 485 l 67 485 l 124 485 b 156 510 142 485 153 493 b 165 580 158 516 160 533 l 388 580 l 46 129 b 30 99 39 120 33 110 b 24 71 26 88 24 79 l 24 0 l 570 0 l 574 0 l 593 0 l 593 232 l 587 232 m 434 922 b 424 965 434 937 430 952 b 400 1000 418 978 410 990 b 365 1023 391 1010 379 1018 b 322 1032 351 1029 337 1032 b 280 1023 307 1033 293 1029 b 246 1000 267 1018 256 1010 b 223 965 237 990 228 978 b 215 922 217 952 215 937 b 223 880 215 908 217 894 b 246 846 228 867 237 855 b 280 823 256 837 267 828 b 322 814 293 817 307 815 b 365 823 337 814 351 817 b 400 846 379 828 391 836 b 424 880 410 855 418 867 b 434 922 430 894 434 908 "},"ž":{"x_min":25.03125,"x_max":594.15625,"ha":608,"o":"m 588 232 l 571 232 l 514 232 b 482 206 496 232 485 223 b 473 131 480 200 478 182 l 224 131 l 562 577 b 578 606 569 585 574 595 b 585 641 583 617 585 629 l 585 711 l 44 711 l 44 704 l 44 704 l 44 485 l 50 485 l 67 485 l 124 485 b 157 510 142 485 153 493 b 165 580 158 516 160 533 l 389 580 l 47 129 b 30 99 39 120 34 110 b 25 71 26 88 25 79 l 25 0 l 571 0 l 575 0 l 594 0 l 594 232 l 588 232 m 403 810 l 562 1003 l 448 1003 b 428 999 441 1004 435 1002 b 413 991 421 997 416 994 l 340 924 b 332 918 337 922 335 920 b 325 909 330 915 327 912 b 310 925 319 915 314 921 l 236 991 b 221 1000 232 995 227 997 b 202 1003 215 1002 209 1003 l 83 1003 l 242 810 l 403 810 "},"á":{"x_min":17.9375,"x_max":697.171875,"ha":722,"o":"m 662 125 b 647 127 661 125 655 125 b 610 134 638 129 626 131 l 610 450 b 593 561 610 491 604 528 b 541 649 581 595 563 624 b 458 706 518 673 491 692 b 346 727 425 720 388 726 b 50 614 231 727 132 689 l 82 559 b 102 537 87 550 93 543 b 132 528 110 531 120 528 b 169 538 145 528 158 531 b 208 559 181 544 194 551 b 255 582 221 568 237 575 b 325 592 274 588 298 592 b 413 557 364 592 393 580 b 443 449 433 533 443 497 l 443 408 b 239 386 362 407 294 400 b 108 334 185 372 142 355 b 38 262 76 312 52 288 b 18 182 24 236 18 209 b 32 98 17 150 22 122 b 75 37 42 73 57 53 b 140 0 93 20 115 9 b 224 -11 166 -7 194 -11 b 293 -4 249 -11 272 -9 b 352 13 314 0 334 5 b 406 44 371 22 389 31 b 459 87 423 56 441 70 l 474 36 b 495 6 479 21 486 11 b 533 0 504 2 517 0 l 591 0 l 610 0 l 697 0 l 697 81 b 662 125 697 105 685 119 m 443 183 b 406 149 430 169 418 158 b 368 125 393 140 381 132 b 325 111 355 119 341 114 b 277 107 311 108 295 107 b 208 126 249 107 226 113 b 181 191 190 139 181 161 b 194 234 181 207 185 221 b 237 268 202 247 217 259 b 318 293 258 278 285 286 b 443 303 351 299 393 303 l 443 183 m 579 1015 l 413 1015 b 371 1005 395 1015 381 1011 b 347 978 362 999 354 990 l 249 809 l 351 809 b 383 814 364 809 375 810 b 408 833 391 817 400 824 l 579 1015 "},"×":{"x_min":15.96875,"x_max":670.828125,"ha":687,"o":"m 659 691 l 568 781 l 343 556 l 116 783 l 26 693 l 253 465 l 15 228 l 106 138 l 343 375 l 579 140 l 670 229 l 434 465 l 659 691 "},"K":{"x_min":28.109375,"x_max":996.390625,"ha":1022,"o":"m 961 125 b 950 126 959 125 956 125 b 925 129 945 127 937 128 b 884 136 914 131 900 134 l 637 469 b 601 508 625 485 613 498 b 560 532 589 518 575 527 b 591 553 571 537 581 545 b 622 586 601 562 611 573 l 849 866 b 890 873 865 869 879 872 b 915 876 901 875 910 876 b 926 878 920 877 924 878 b 961 922 949 883 961 897 l 961 1004 l 856 1003 l 821 1004 l 591 1004 l 591 922 b 626 878 591 897 602 883 b 634 876 628 878 631 877 b 644 875 638 876 641 875 l 437 613 b 407 590 429 602 419 595 b 363 582 395 585 381 582 l 320 582 l 320 866 b 360 874 337 869 351 872 b 381 877 370 875 377 876 b 390 879 385 878 388 879 b 424 922 413 884 424 898 l 424 1004 l 319 1004 l 133 1004 l 28 1004 l 28 922 b 62 879 27 898 39 884 b 71 877 64 879 67 878 b 92 874 75 876 81 875 b 133 866 101 872 115 869 l 133 137 b 92 129 115 134 101 131 b 71 126 81 128 75 127 b 62 125 67 125 64 125 b 28 81 39 119 27 105 l 28 0 l 133 0 l 319 0 l 424 0 l 424 81 b 390 125 424 105 413 119 b 381 126 388 125 385 125 b 360 129 377 127 370 128 b 320 137 351 131 337 134 l 320 441 l 379 441 b 428 433 400 442 416 439 b 459 407 440 428 450 419 l 672 129 b 653 126 664 128 658 127 b 642 125 647 125 644 125 b 607 81 618 119 607 105 l 607 0 l 820 0 l 837 0 l 891 0 l 985 0 l 996 0 l 996 81 b 961 125 996 105 985 119 "},"7":{"x_min":27.703125,"x_max":721.5625,"ha":747,"o":"m 28 1003 l 28 887 b 28 886 27 887 28 886 b 28 884 28 885 28 885 l 28 735 l 101 735 b 134 761 119 735 129 743 b 143 847 136 775 138 803 l 547 847 b 493 766 527 825 509 798 l 104 0 l 228 0 b 286 16 253 0 272 5 b 320 58 301 27 312 41 l 700 841 b 714 875 704 850 709 861 b 721 929 719 889 721 906 l 721 1003 l 28 1003 "},"¨":{"x_min":33.28125,"x_max":485,"ha":518,"o":"m 224 897 b 217 934 224 910 222 922 b 195 965 211 946 204 956 b 164 986 186 974 176 981 b 127 994 152 991 140 994 b 91 986 115 994 102 991 b 61 965 80 981 70 974 b 40 934 52 956 45 946 b 33 897 35 922 33 910 b 40 860 33 884 35 871 b 61 830 45 849 52 839 b 91 811 70 822 80 815 b 127 803 102 806 115 803 b 164 811 140 803 152 806 b 195 830 176 815 186 822 b 217 860 204 838 211 849 b 224 897 222 871 224 884 m 485 896 b 477 934 485 910 482 922 b 456 965 471 946 464 956 b 425 986 447 974 437 981 b 388 993 413 991 400 993 b 351 986 375 994 362 991 b 320 965 339 981 329 974 b 300 934 312 956 305 946 b 293 896 295 922 293 910 b 300 860 293 884 295 871 b 320 830 305 849 312 839 b 350 811 329 822 339 815 b 387 803 362 806 375 803 b 425 811 400 803 413 806 b 455 830 437 815 447 822 b 476 860 464 838 471 849 b 485 896 482 871 484 884 "},"Y":{"x_min":22.09375,"x_max":986.1875,"ha":1009,"o":"m 963 1003 l 938 1003 l 880 1003 l 798 1003 l 611 1003 l 611 922 b 645 878 610 897 622 884 b 652 877 647 878 649 877 b 665 873 654 876 659 875 b 685 868 670 872 677 870 l 553 626 b 525 570 542 607 533 588 b 505 517 518 552 511 535 b 484 570 498 534 491 552 b 456 626 475 588 466 606 l 322 868 b 342 873 329 870 336 872 b 356 877 348 875 353 876 b 362 878 358 877 361 878 b 397 922 385 884 397 897 l 397 1003 l 209 1003 l 126 1003 l 70 1003 l 45 1003 l 22 1003 l 22 922 b 56 878 21 897 33 884 b 65 877 58 878 61 877 b 86 873 69 876 75 875 b 126 865 95 871 109 869 l 411 389 l 411 137 b 370 129 393 134 379 131 b 349 126 359 128 352 127 b 340 125 345 125 342 125 b 305 81 317 119 305 105 l 305 0 l 411 0 l 597 0 l 702 0 l 702 81 b 668 125 702 105 691 119 b 659 126 666 125 663 125 b 638 129 655 127 648 128 b 598 137 628 131 614 134 l 598 389 l 881 865 b 921 873 898 869 911 871 b 942 877 932 875 938 876 b 951 878 945 877 949 878 b 986 922 974 884 986 897 l 986 1003 l 963 1003 "},"E":{"x_min":28.109375,"x_max":766,"ha":797,"o":"m 132 1005 l 28 1005 l 28 922 b 62 878 27 897 39 884 b 71 877 64 878 67 877 b 92 873 75 876 81 874 b 133 865 101 871 115 869 l 133 137 b 92 129 115 133 101 131 b 71 126 81 128 75 127 b 62 125 67 125 64 125 b 28 81 39 119 27 105 l 28 0 l 132 0 l 766 0 l 766 97 l 766 149 l 766 264 l 759 264 l 743 264 l 686 264 b 653 237 668 264 657 255 b 643 149 652 227 648 197 l 321 149 l 321 433 l 660 433 l 660 577 l 321 577 l 321 854 l 643 854 b 653 765 648 806 651 776 b 686 740 657 748 668 740 l 743 740 l 759 740 l 766 740 l 766 854 l 766 906 l 766 1003 l 132 1005 "},"Ô":{"x_min":19,"x_max":1037.328125,"ha":1059,"o":"m 1037 502 b 1000 706 1038 575 1025 643 b 896 868 976 768 941 822 b 736 976 852 914 798 949 b 528 1015 673 1001 604 1015 b 320 976 452 1015 383 1001 b 159 869 258 950 203 915 b 55 706 114 823 80 768 b 19 502 30 643 19 575 b 55 297 19 428 30 359 b 159 134 80 234 114 180 b 320 27 203 89 258 52 b 528 -11 383 1 452 -11 b 736 27 604 -11 673 1 b 896 134 798 52 852 89 b 1000 297 941 180 976 234 b 1037 502 1025 359 1037 428 m 845 502 b 823 353 845 446 838 397 b 760 242 809 309 788 273 b 661 173 733 212 700 189 b 528 149 622 156 577 149 b 395 173 479 149 435 156 b 295 242 356 189 323 212 b 231 353 267 273 246 309 b 209 502 217 397 209 446 b 231 649 209 556 217 606 b 295 761 246 693 267 731 b 395 831 323 792 356 815 b 528 856 435 847 479 856 b 661 831 577 856 622 847 b 760 761 700 815 733 792 b 823 649 788 731 809 693 b 845 502 838 606 845 556 m 783 1076 l 615 1228 l 444 1228 l 276 1076 l 406 1076 b 429 1078 413 1075 420 1076 b 449 1087 437 1080 444 1082 l 519 1133 b 525 1137 522 1134 524 1136 b 529 1141 527 1139 529 1139 b 535 1137 531 1139 534 1138 b 540 1133 536 1135 538 1134 l 610 1087 b 630 1078 616 1082 622 1080 b 653 1076 639 1076 646 1076 l 783 1076 "},"Ï":{"x_min":15,"x_max":501,"ha":517,"o":"m 419 878 b 453 922 442 884 453 897 l 453 1003 l 348 1003 l 161 1003 l 55 1003 l 55 922 b 90 878 55 897 67 884 b 99 877 92 878 95 877 b 119 873 102 876 109 875 b 161 865 129 871 143 869 l 161 137 b 119 129 143 134 129 131 b 99 126 109 128 102 127 b 90 125 95 125 92 125 b 55 81 67 119 55 105 l 55 0 l 161 0 l 348 0 l 453 0 l 453 81 b 419 125 453 105 442 119 b 410 126 417 125 414 125 b 389 129 406 127 399 128 b 349 137 379 131 365 134 l 349 865 b 389 873 365 869 379 871 b 410 877 399 875 406 876 b 419 878 414 877 417 878 m 201 1157 b 193 1193 201 1170 198 1181 b 172 1222 187 1204 180 1214 b 141 1243 163 1231 152 1238 b 104 1250 130 1248 117 1250 b 70 1243 92 1251 81 1248 b 41 1222 59 1238 50 1231 b 21 1193 33 1214 26 1204 b 15 1156 17 1181 15 1170 b 21 1121 15 1144 17 1132 b 41 1092 26 1110 33 1100 b 70 1072 50 1084 59 1077 b 104 1065 81 1068 92 1065 b 141 1072 117 1065 130 1068 b 172 1092 152 1077 163 1084 b 193 1121 180 1100 187 1110 b 201 1157 198 1132 201 1145 m 501 1156 b 493 1193 501 1169 498 1181 b 473 1222 488 1204 482 1214 b 444 1243 465 1231 455 1238 b 408 1250 432 1248 420 1250 b 371 1243 395 1251 383 1248 b 342 1222 360 1238 350 1231 b 321 1193 333 1214 326 1204 b 315 1156 317 1181 315 1170 b 321 1121 315 1144 317 1132 b 342 1092 326 1110 333 1100 b 371 1072 350 1084 360 1077 b 408 1065 383 1068 395 1065 b 444 1072 420 1065 432 1068 b 473 1092 455 1077 464 1084 b 493 1121 482 1100 488 1110 b 501 1156 498 1132 501 1144 "},"‹":{"x_min":28,"x_max":288,"ha":317,"o":"m 28 362 l 205 87 l 261 113 b 288 150 278 122 288 134 b 278 180 288 160 284 170 l 183 344 b 161 373 175 356 168 366 b 183 402 169 380 176 390 l 278 565 b 288 595 284 575 287 586 b 281 617 288 603 285 610 b 261 633 277 623 270 628 l 205 659 l 28 384 l 28 362 "},"±":{"x_min":31.25,"x_max":709.140625,"ha":738,"o":"m 439 861 l 300 861 l 300 616 l 31 616 l 31 488 l 300 488 l 300 251 l 439 251 l 439 488 l 709 488 l 709 616 l 439 616 l 439 861 m 31 183 l 31 56 l 709 56 l 709 183 l 31 183 "},"ì":{"x_min":15.75,"x_max":423.859375,"ha":447,"o":"m 389 125 b 380 126 387 125 384 125 b 359 129 376 127 369 128 b 319 137 349 131 335 134 l 319 713 l 147 713 l 41 713 l 41 630 b 76 587 41 606 53 592 b 85 585 78 587 81 586 b 105 582 88 585 95 583 b 147 574 115 580 129 578 l 147 137 b 105 129 129 134 115 131 b 85 126 95 128 88 127 b 76 125 81 125 78 125 b 41 81 53 119 41 105 l 41 0 l 147 0 l 318 0 l 423 0 l 423 81 b 389 125 423 105 412 119 m 176 1015 l 15 1015 l 187 834 b 211 814 195 824 203 818 b 243 809 220 811 230 809 l 341 809 l 242 978 b 218 1005 235 990 227 999 b 176 1015 208 1011 195 1015 "},"|":{"x_min":38,"x_max":171,"ha":209,"o":"m 38 1073 l 38 -233 l 171 -233 l 171 1073 l 38 1073 "},"§":{"x_min":24,"x_max":603,"ha":628,"o":"m 532 865 l 571 926 b 470 990 544 953 510 974 b 336 1015 430 1006 385 1015 b 220 996 292 1015 254 1008 b 136 949 187 985 159 969 b 85 880 114 929 96 906 b 69 796 74 853 69 826 b 89 707 69 762 75 732 b 141 642 102 682 119 661 b 52 574 101 626 72 603 b 24 475 33 544 24 512 b 40 396 24 444 29 418 b 85 338 51 374 66 355 b 147 296 103 322 124 308 b 219 264 171 285 194 274 b 290 237 243 254 267 245 b 353 208 314 228 335 219 b 398 172 371 198 387 186 b 415 124 409 159 415 143 b 383 59 415 96 403 75 b 294 35 362 44 332 35 b 227 44 267 35 245 39 b 180 64 209 51 193 57 b 146 83 167 71 156 78 b 116 92 136 90 127 92 b 90 86 105 92 97 90 b 72 68 83 82 77 76 l 32 3 b 80 -31 46 -9 62 -20 b 140 -59 98 -41 118 -50 b 207 -77 161 -66 183 -73 b 279 -84 231 -81 254 -84 b 401 -66 325 -84 366 -78 b 491 -16 437 -54 466 -37 b 545 58 514 3 532 28 b 564 152 557 87 564 118 b 543 233 564 184 557 211 b 493 293 530 256 514 276 b 576 367 531 312 559 336 b 603 468 593 397 603 430 b 586 542 603 496 597 521 b 543 598 575 563 561 582 b 481 641 525 615 504 628 b 411 676 458 653 435 665 b 340 705 387 686 363 696 b 279 734 317 715 297 724 b 235 765 261 744 247 754 b 220 804 224 776 220 790 b 227 837 219 816 222 827 b 250 864 233 847 240 856 b 288 882 260 871 272 878 b 339 888 302 886 319 888 b 395 881 360 888 379 886 b 438 866 411 877 426 871 b 471 850 451 860 461 855 b 498 843 480 846 489 843 b 518 848 506 843 512 845 b 532 865 523 851 528 857 m 176 503 b 189 549 176 521 180 536 b 235 585 199 562 214 574 b 313 552 260 574 286 562 b 383 519 339 542 363 531 b 434 481 404 508 421 495 b 454 430 447 467 454 450 b 441 383 454 413 449 397 b 401 349 433 369 419 358 b 321 382 374 360 347 371 b 248 415 294 392 269 403 b 196 453 226 426 209 439 b 176 503 182 467 176 483 "},"q":{"x_min":21,"x_max":787.421875,"ha":803,"o":"m 752 -108 b 742 -106 750 -108 747 -107 b 719 -103 737 -105 729 -104 b 676 -95 708 -101 693 -99 l 676 462 l 677 685 b 326 724 546 711 430 724 b 200 696 280 724 237 715 b 103 617 162 677 130 651 b 41 499 77 584 56 545 b 21 351 27 454 21 405 b 39 197 21 294 27 242 b 93 84 52 152 70 114 b 177 14 117 54 145 30 b 283 -9 209 -1 245 -9 b 408 17 331 -9 373 0 b 504 89 444 35 476 58 l 504 -95 b 463 -103 487 -99 474 -101 b 443 -106 453 -104 446 -105 b 434 -108 439 -107 436 -108 b 399 -151 411 -113 399 -127 l 399 -233 l 505 -233 l 676 -233 l 787 -233 l 787 -151 b 752 -108 787 -127 775 -113 m 434 146 b 342 123 409 131 378 123 b 282 135 320 123 300 127 b 236 175 264 144 248 158 b 207 246 224 193 214 217 b 197 351 200 275 197 310 b 209 459 197 393 201 428 b 243 534 217 490 228 515 b 296 578 257 554 275 569 b 366 593 317 588 340 593 b 504 580 412 593 458 589 l 504 209 b 434 146 483 182 459 161 "},"b":{"x_min":19.5625,"x_max":785,"ha":808,"o":"m 765 516 b 711 629 753 560 735 599 b 628 698 687 659 660 682 b 522 723 596 714 561 723 b 397 695 474 723 432 714 b 302 624 361 677 329 654 l 302 1032 l 130 1032 l 19 1032 l 19 949 b 54 906 18 925 30 911 b 64 904 56 906 59 905 b 87 901 68 903 76 902 b 130 893 98 899 112 896 l 130 251 l 130 29 b 479 -10 259 2 376 -10 b 605 17 525 -10 567 0 b 701 96 642 36 675 62 b 763 214 728 129 748 168 b 785 362 777 259 785 308 b 765 516 785 420 778 471 m 596 254 b 562 179 587 224 576 199 b 509 135 547 159 530 145 b 439 121 488 125 465 121 b 302 134 394 121 347 125 l 302 504 b 371 567 323 531 347 551 b 463 590 397 582 427 590 b 523 577 485 590 505 585 b 569 538 541 569 556 556 b 597 467 581 520 590 496 b 608 362 604 438 608 402 b 596 254 608 320 603 285 "},"♩":{"x_min":40,"x_max":42.84375,"ha":81,"o":"m 40 1032 l 40 -233 l 42 -233 l 42 1032 l 40 1032 "},"ﬂ":{"x_min":24.75,"x_max":902.53125,"ha":925,"o":"m 896 94 b 885 112 895 104 892 110 b 851 117 880 115 868 117 b 808 121 834 117 819 118 b 778 138 796 125 786 130 b 763 169 771 146 767 156 b 758 215 760 182 758 198 l 758 1015 l 662 1015 b 549 1020 624 1015 587 1018 b 429 1025 511 1023 471 1025 b 296 1000 378 1025 333 1016 b 203 936 258 984 227 963 b 149 845 178 910 160 879 b 131 735 136 810 131 773 l 131 706 l 24 706 l 24 635 b 37 606 24 623 28 613 b 69 593 44 599 55 595 l 131 583 l 131 137 b 89 129 113 134 99 131 b 69 126 79 128 72 127 b 60 125 65 125 62 125 b 25 81 37 120 25 105 l 25 0 l 130 0 l 301 0 l 415 0 l 415 81 b 380 125 415 105 403 120 b 369 126 378 125 374 125 b 344 129 364 127 356 128 b 301 137 333 131 319 134 l 301 584 l 465 584 l 465 706 l 296 706 l 296 735 b 337 856 296 787 310 827 b 456 899 365 884 404 899 l 587 899 l 587 215 b 599 127 587 183 592 154 b 638 55 608 99 621 75 b 708 6 656 34 680 18 b 815 -11 737 -5 773 -11 b 860 -8 831 -11 846 -10 b 902 2 874 -5 888 -2 l 896 94 "},"®":{"x_min":26,"x_max":1052,"ha":1077,"o":"m 26 501 b 44 365 26 454 31 408 b 96 243 56 321 73 280 b 176 140 118 205 144 171 b 280 60 207 108 242 82 b 402 8 317 37 358 20 b 538 -10 445 -4 491 -10 b 674 8 585 -10 630 -4 b 797 60 718 20 759 37 b 901 140 835 82 869 108 b 981 243 932 171 959 205 b 1033 365 1003 280 1020 321 b 1052 501 1045 409 1051 454 b 1033 637 1052 549 1045 594 b 981 760 1020 681 1004 722 b 901 864 959 798 932 833 b 797 944 869 895 835 922 b 674 996 759 966 718 983 b 538 1014 630 1008 585 1014 b 402 996 491 1014 445 1008 b 280 944 358 983 317 966 b 176 864 242 921 207 895 b 96 760 144 833 118 798 b 44 637 73 722 56 681 b 26 501 31 594 26 549 m 120 501 b 134 617 120 541 124 580 b 176 721 144 654 158 689 b 240 808 194 753 215 782 b 325 876 265 835 294 857 b 425 919 356 894 389 909 b 538 934 461 929 499 934 b 651 919 577 934 615 929 b 752 876 687 909 721 894 b 837 808 782 857 811 835 b 903 721 862 782 885 753 b 944 617 921 689 935 654 b 960 501 954 580 960 541 b 927 332 960 441 948 385 b 837 196 905 280 875 235 b 703 104 799 157 755 126 b 538 71 652 82 596 71 b 374 104 479 71 424 82 b 240 196 322 126 278 157 b 151 332 203 235 173 280 b 120 501 130 385 120 441 m 461 417 l 499 417 b 524 412 510 417 519 415 b 540 396 530 408 535 403 l 640 214 b 684 191 648 199 663 191 l 827 191 l 701 404 b 680 436 694 417 687 427 b 654 459 673 445 664 453 b 753 526 698 473 732 496 b 786 635 774 557 785 593 b 725 768 786 692 765 737 b 535 814 685 799 621 814 l 312 814 l 312 191 l 461 191 l 461 417 m 461 523 l 461 701 l 535 701 b 587 696 555 701 573 700 b 618 680 600 693 611 687 b 634 653 626 674 632 664 b 639 615 637 642 639 630 b 634 576 639 601 636 587 b 616 546 630 564 624 555 b 580 529 607 539 596 533 b 522 523 565 525 546 524 l 461 523 "},"L":{"x_min":28.109375,"x_max":755,"ha":785,"o":"m 680 239 b 648 213 663 239 652 231 b 642 154 647 208 646 188 l 319 154 l 319 865 b 360 873 337 869 350 871 b 381 877 370 874 377 876 b 389 878 385 877 387 878 b 424 922 413 884 424 897 l 424 1003 l 319 1003 l 132 1003 l 28 1003 l 28 922 b 62 878 27 897 39 884 b 71 877 64 878 67 877 b 92 873 75 876 81 874 b 133 865 101 871 115 869 l 133 137 b 92 129 115 133 101 131 b 71 126 81 128 75 127 b 62 125 67 125 64 125 b 28 81 39 119 27 105 l 28 0 l 132 0 l 717 0 l 721 0 l 755 0 l 755 72 l 755 99 l 755 239 l 680 239 "}," ":{"x_min":0,"x_max":0,"ha":321},"∑":{"x_min":25.6875,"x_max":864.578125,"ha":892,"o":"m 25 1004 l 25 944 b 29 917 25 935 27 926 b 43 892 32 908 36 900 l 456 387 l 43 -121 b 29 -147 36 -130 32 -138 b 25 -173 27 -156 25 -164 l 25 -233 l 864 -233 l 864 -89 l 290 -89 l 647 360 l 647 410 l 290 860 l 864 860 l 864 1004 l 25 1004 "},"À":{"x_min":23.609375,"x_max":1101.390625,"ha":1127,"o":"m 1074 106 b 997 138 1067 109 1041 119 l 657 1003 l 466 1003 l 127 138 b 50 106 83 120 58 109 b 23 70 32 98 23 86 l 23 0 l 72 0 l 181 0 l 204 0 l 217 0 l 362 0 l 362 70 b 334 106 362 86 353 98 b 306 118 331 107 322 111 l 310 126 l 362 268 l 762 268 l 812 132 l 818 118 b 790 106 802 111 793 107 b 762 70 771 98 762 86 l 762 0 l 907 0 l 920 0 l 943 0 l 1052 0 l 1101 0 l 1101 70 b 1074 106 1101 86 1092 98 m 524 711 b 543 765 530 727 536 744 b 561 830 549 785 555 806 b 581 765 568 806 575 785 b 600 712 588 745 594 727 l 714 400 l 410 400 l 524 711 m 462 1243 l 272 1243 l 478 1091 b 492 1082 484 1088 488 1085 b 504 1078 496 1080 500 1079 b 518 1076 509 1076 513 1076 b 535 1075 523 1076 529 1076 l 670 1075 l 534 1215 b 518 1229 528 1221 523 1226 b 504 1238 514 1233 509 1236 b 486 1242 498 1240 493 1241 b 462 1243 479 1243 472 1243 "},"+":{"x_min":28.25,"x_max":706.140625,"ha":735,"o":"m 436 814 l 297 814 l 297 530 l 28 530 l 28 403 l 297 403 l 297 116 l 436 116 l 436 403 l 706 403 l 706 530 l 436 530 l 436 814 "},"½":{"x_min":21.640625,"x_max":932.0625,"ha":958,"o":"m 928 145 l 918 145 l 885 145 b 866 129 875 145 868 140 b 864 110 865 127 864 120 l 801 110 b 766 107 790 110 779 109 b 728 98 754 105 741 102 l 817 188 b 856 230 831 202 843 216 b 889 271 869 243 879 257 b 912 317 899 286 907 301 b 921 369 918 333 921 350 b 909 429 921 390 917 410 b 877 476 902 447 891 463 b 823 508 862 490 844 500 b 751 520 802 516 778 520 b 622 481 699 520 656 507 b 559 363 588 456 567 417 l 627 353 b 636 352 631 353 633 352 b 643 351 639 352 641 351 b 668 358 654 351 663 353 b 684 376 674 362 679 368 b 708 410 690 391 698 402 b 744 421 717 417 729 421 b 782 406 760 421 773 416 b 795 365 791 395 795 381 b 790 332 796 354 794 343 b 774 298 785 321 781 309 b 750 264 767 287 760 275 b 721 232 741 253 731 241 l 576 88 b 561 64 569 81 563 72 b 556 39 558 55 556 47 l 556 0 l 932 0 l 932 8 l 932 72 l 932 145 l 928 145 m 256 49 l 839 1004 l 766 1004 b 713 989 745 1004 727 999 b 676 948 699 979 686 965 l 97 0 l 170 0 b 217 10 188 0 203 3 b 256 49 231 17 243 29 m 67 570 l 67 491 l 366 491 l 366 570 l 287 570 l 287 1005 l 183 1005 l 21 870 l 59 818 b 71 808 61 814 66 811 b 90 804 77 806 83 804 b 114 813 98 804 106 807 l 167 855 l 164 820 l 164 570 l 67 570 "},"Ë":{"x_min":28.109375,"x_max":766,"ha":797,"o":"m 132 1005 l 28 1005 l 28 922 b 62 878 27 897 39 884 b 71 877 64 878 67 877 b 92 873 75 876 81 874 b 133 865 101 871 115 869 l 133 137 b 92 129 115 133 101 131 b 71 126 81 128 75 127 b 62 125 67 125 64 125 b 28 81 39 119 27 105 l 28 0 l 132 0 l 766 0 l 766 97 l 766 149 l 766 264 l 759 264 l 743 264 l 686 264 b 653 237 668 264 657 255 b 644 149 652 227 648 197 l 321 149 l 321 433 l 660 433 l 660 577 l 321 577 l 321 854 l 644 854 b 653 765 648 806 651 776 b 686 740 657 748 668 740 l 743 740 l 759 740 l 766 740 l 766 854 l 766 906 l 766 1003 l 132 1005 m 403 1157 b 395 1193 403 1170 400 1182 b 374 1223 390 1205 383 1215 b 343 1243 365 1232 355 1239 b 307 1251 332 1249 320 1251 b 272 1243 295 1252 283 1249 b 244 1223 262 1239 252 1232 b 223 1193 235 1215 228 1205 b 217 1157 219 1182 217 1170 b 223 1122 217 1145 219 1133 b 244 1093 228 1111 235 1101 b 272 1073 252 1084 262 1078 b 307 1066 283 1069 295 1066 b 343 1073 320 1066 332 1069 b 374 1093 355 1078 365 1084 b 395 1122 383 1101 390 1111 b 403 1157 400 1133 403 1145 m 703 1157 b 695 1193 703 1170 700 1182 b 675 1223 690 1205 684 1215 b 646 1243 667 1232 657 1239 b 610 1251 634 1249 623 1251 b 573 1243 597 1252 585 1249 b 544 1223 562 1239 553 1232 b 523 1193 535 1215 528 1205 b 517 1157 519 1182 517 1170 b 523 1122 517 1145 519 1133 b 544 1093 528 1111 535 1101 b 573 1073 553 1084 562 1078 b 610 1066 585 1069 597 1066 b 646 1073 623 1066 634 1069 b 675 1093 657 1078 667 1084 b 695 1122 684 1101 690 1111 b 703 1157 700 1133 703 1145 "},"'":{"x_min":33,"x_max":182,"ha":215,"o":"m 182 1005 l 33 1005 l 33 804 l 48 696 b 66 649 51 675 57 660 b 106 633 76 637 89 633 b 148 649 125 633 139 637 b 166 696 156 660 162 675 l 182 804 l 182 1005 "}}}
